{
.appVersion = "3151";
.formatVersion = 3;
axes = (
{
name = Weight;
tag = wght;
}
);
date = "2014-02-11 20:47:01 +0000";
familyName = Comme;
featurePrefixes = (
{
automatic = 1;
code = "languagesystem DFLT dflt;

languagesystem latn dflt;
languagesystem latn AZE;
languagesystem latn CRT;
languagesystem latn KAZ;
languagesystem latn TAT;
languagesystem latn TRK;
languagesystem latn ROM;
languagesystem latn MOL;
languagesystem latn CAT;
";
name = Languagesystems;
}
);
features = (
{
automatic = 1;
code = "feature locl;
feature sups;
feature numr;
feature dnom;
feature frac;
feature ordn;
";
tag = aalt;
},
{
automatic = 1;
code = "lookup ccmp_Other_1 {
	@CombiningTopAccents = [acutecomb brevecomb breveinvertedcomb caroncomb circumflexcomb commaturnedabovecomb dblgravecomb dieresiscomb dotaccentcomb gravecomb hungarumlautcomb macroncomb ringcomb tildecomb];
	@CombiningNonTopAccents = [cedillacomb ogonekcomb dotaboverightcomb];
	sub [i j]' @CombiningTopAccents by [idotless jdotless];
	sub [i j]' @CombiningNonTopAccents @CombiningTopAccents by [idotless jdotless];
} ccmp_Other_1;

lookup ccmp_latn_1 {
	sub fi by f i;
	sub fl by f l;
	sub lj by l j;
	sub Lj by L j;
	sub LJ by L J;
	sub nj by n j;
	sub Nj by N j;
	sub NJ by N J;
	sub dzcaron by d zcaron;
	sub Dzcaron by D zcaron;
	sub DZcaron by D Zcaron;
} ccmp_latn_1;

script latn;
lookup ccmp_latn_1;
";
tag = ccmp;
},
{
automatic = 1;
code = "lookup locl_latn_0 {
	script latn;
	language AZE;
	sub i by idotaccent;
	language CRT;
	sub i by idotaccent;
	language KAZ;
	sub i by idotaccent;
	language TAT;
	sub i by idotaccent;
	language TRK;
	sub i by idotaccent;
} locl_latn_0;

lookup locl_latn_1 {
	script latn;
	language ROM;
	sub Scedilla by Scommaaccent;
	sub scedilla by scommaaccent;
	sub Tcedilla by Tcommaaccent;
	sub tcedilla by tcommaaccent;
	language MOL;
	sub Scedilla by Scommaaccent;
	sub scedilla by scommaaccent;
	sub Tcedilla by Tcommaaccent;
	sub tcedilla by tcommaaccent;
} locl_latn_1;

lookup locl_latn_2 {

glyphs = (
{
glyphname = A;
kernLeft = A;
kernRight = A;
lastChange = "2023-03-23 12:10:17 +0000";
layers = (
{
anchors = (
{
name = bottom;
pos = (649,0);
},
{
name = ogonek;
pos = (1249,0);
},
{
name = top;
pos = (649,1455);
}
);
background = {
anchors = (
{
name = bot;
pos = (639,0);
},
{
name = top;
pos = (639,1455);
}
);
shapes = (
{
closed = 1;
nodes = (
(141,0,l),
(338,514,l),
(952,514,l),
(1145,0,l),
(1227,0,l),
(670,1455,l),
(607,1455,l),
(50,0,l)
);
},
{
closed = 1;
nodes = (
(638,1339,l),
(927,582,l),
(364,582,l)
);
}
);
};
layerId = "45045840-C2F8-4391-8868-007C921F4A2B";
shapes = (
{
closed = 1;
nodes = (
(156,0,l),
(349,506,l),
(958,506,l),
(1148,0,l),
(1244,0,l),
(688,1455,l),
(607,1455,l),
(52,0,l)
);
},
{
closed = 1;
nodes = (
(648,1330,l),
(930,583,l),
(378,583,l)
);
}
);
userData = {
com.typemytype.robofont.layerData = {
};
org.pippin.gimp.org.kernagic = {
lstem = 0;
rstem = 0;
};
org.robofab.postScriptHintData = {
};
};
width = 1297;
},
{
anchors = (
{
name = bottom;
pos = (710,0);
},
{
name = ogonek;
pos = (1341,3);
},
{
name = top;
pos = (710,1456);
}
);
background = {
anchors = (
{
name = bot;
pos = (708,0);
},
{
name = top;
pos = (706,1456);
}
);
shapes = (
{
closed = 1;
nodes = (
(255,0,l),
(422,453,l),
(995,453,l),
(1163,0,l),
(1356,0,l),
(806,1456,l),
(608,1456,l),
(63,0,l)
);
},
{
closed = 1;
nodes = (
(708,1268,l),
(950,588,l),
(467,588,l)
);
}
);
};
layerId = "FE517A28-BD9F-4180-B9A0-41F76CAB3C17";
shapes = (
{
closed = 1;
nodes = (
(255,0,l),
(422,453,l),
(995,453,l),
(1163,0,l),
(1356,0,l),
(806,1456,l),
(608,1456,l),
(63,0,l)
);
},
{
closed = 1;
nodes = (
(708,1268,l),
(950,588,l),
(467,588,l)
);
}
);
userData = {
com.typemytype.robofont.layerData = {
};
org.pippin.gimp.org.kernagic = {
lstem = 0;
rstem = 0;
};
org.robofab.postScriptHintData = {
};
};
width = 1419;
},
{
anchors = (
{
name = bottom;
pos = (791,0);
},
{
name = ogonek;
pos = (1514,6);
},
{
name = top;
pos = (791,1456);
}
);
background = {
anchors = (
{
name = bot;
pos = (800,0);
},
{
name = top;
pos = (802,1456);
}
);
shapes = (
{
closed = 1;
nodes = (
(494,0,l),
(592,335,l),
(982,335,l),
(1088,0,l),
(1528,0,l),
(1076,1456,l),
(515,1456,l),
(54,0,l)
);
},
{
closed = 1;
nodes = (
(794,1112,l),
(912,594,l),
(669,594,l)
);
}
);
};
layerId = "79570A4D-82CC-4E5E-902B-26A7181B4C65";
shapes = (
{
closed = 1;
nodes = (
(494,0,l),
(592,335,l),
(982,335,l),
(1088,0,l),
(1528,0,l),
(1076,1456,l),
(515,1456,l),
(54,0,l)
);
},
{
closed = 1;
nodes = (
(794,1112,l),
(912,594,l),
(669,594,l)
);
}
);
userData = {
com.typemytype.robofont.layerData = {
};
org.pippin.gimp.org.kernagic = {
lstem = 0;
rstem = 0;
};
org.robofab.postScriptHintData = {
};
};
width = 1582;
}
);
unicode = 65;
},
{
glyphname = Aacute;
kernLeft = A;
kernRight = A;
lastChange = "2023-03-23 12:10:54 +0000";
layers = (
{
background = {
anchors = (
{
name = bot;
pos = (639,0);
},
{
name = top;
pos = (639,1455);
}
);
shapes = (
{
closed = 1;
nodes = (
(141,0,l),
(338,514,l),
(952,514,l),
(1145,0,l),
(1227,0,l),
(670,1455,l),
(607,1455,l),
(50,0,l)
);
},
{
closed = 1;
nodes = (
(638,1339,l),
(927,582,l),
(364,582,l)
);
},
{
closed = 1;
nodes = (
(664,1633,l),
(929,1984,l),
(824,1984,l),
(610,1633,l)
);
}
);
};
layerId = "45045840-C2F8-4391-8868-007C921F4A2B";
shapes = (
{
ref = A;
},
{
pos = (397,373);
ref = acutecomb;
}
);
userData = {
com.typemytype.robofont.layerData = {
};
org.robofab.postScriptHintData = {
};
};
width = 1297;
},
{
background = {
anchors = (
{
name = bot;
pos = (708,0);
},
{
name = top;
pos = (706,1456);
}
);
shapes = (
{
closed = 1;
nodes = (
(255,0,l),
(422,453,l),
(995,453,l),
(1163,0,l),
(1356,0,l),
(806,1456,l),
(608,1456,l),
(63,0,l)
);
},
{
closed = 1;
nodes = (
(708,1268,l),
(950,588,l),
(467,588,l)
);
},
{
closed = 1;
nodes = (
(762,1583,l),
(1061,1960,l),
(839,1960,l),
(643,1583,l)
);
}
);
};
layerId = "FE517A28-BD9F-4180-B9A0-41F76CAB3C17";
shapes = (
{
ref = A;
},
{
pos = (352,374);
ref = acutecomb;
}
);
userData = {
com.typemytype.robofont.layerData = {
};
org.robofab.postScriptHintData = {
};
};
width = 1419;
},
{
background = {
anchors = (
{
name = bot;
pos = (800,0);
},
{
name = top;
pos = (802,1456);
}
);
shapes = (
{
closed = 1;
nodes = (
(494,0,l),
(592,335,l),
(982,335,l),
(1088,0,l),
(1528,0,l),
(1076,1456,l),
(515,1456,l),
(54,0,l)
);
},
{
closed = 1;
nodes = (
(794,1112,l),
(912,594,l),
(669,594,l)
);
},
{
closed = 1;
nodes = (
(908,1581,l),
(1259,1997,l),
(855,1997,l),
(686,1581,l)
);
}
);
};
layerId = "79570A4D-82CC-4E5E-902B-26A7181B4C65";
shapes = (
{
ref = A;
},
{
pos = (252,374);
ref = acutecomb;
}
);
userData = {
com.typemytype.robofont.layerData = {
};
org.robofab.postScriptHintData = {
};
};
width = 1582;
}
);
unicode = 193;
},
{
glyphname = Abreve;
kernLeft = A;
kernRight = A;
lastChange = "2023-03-23 12:10:54 +0000";
layers = (
{
background = {
anchors = (
{
name = bot;
pos = (639,0);
},
{
name = top;
pos = (639,1455);
}
);
shapes = (
{
closed = 1;
nodes = (
(141,0,l),
(338,514,l),
(952,514,l),
(1145,0,l),
(1227,0,l),
(670,1455,l),
(607,1455,l),
(50,0,l)
);
},
{
closed = 1;
nodes = (
(638,1339,l),
(927,582,l),
(364,582,l)
);
},
{
closed = 1;
nodes = (
(735,1652,o),
(836,1709,o),
(836,1869,c),
(784,1869,l),
(784,1749,o),
(705,1705,o),
(632,1705,cs),
(561,1705,o),
(490,1749,o),
(490,1869,c),
(435,1869,l),
(435,1708,o),
(532,1652,o),
(632,1652,cs)
);
}
);
};
layerId = "45045840-C2F8-4391-8868-007C921F4A2B";
shapes = (
{
ref = A;
},
{
pos = (240,373);
ref = brevecomb;
}
);
userData = {
com.typemytype.robofont.layerData = {
};
org.robofab.postScriptHintData = {
};
};
width = 1297;
},
{
background = {
anchors = (
{
name = bot;
pos = (708,0);
},
{
name = top;
pos = (706,1456);
}
);
shapes = (
{
closed = 1;
nodes = (
(255,0,l),
(422,453,l),
(995,453,l),
(1163,0,l),
(1356,0,l),
(806,1456,l),
(608,1456,l),
(63,0,l)
);
},
{
closed = 1;
nodes = (
(708,1268,l),
(950,588,l),
(467,588,l)
);
},
{
closed = 1;
nodes = (
(841,1678,o),
(949,1757,o),
(949,1922,c),
(834,1922,l),
(834,1831,o),
(766,1791,o),
(702,1791,cs),
(639,1791,o),
(575,1831,o),
(575,1922,c),
(458,1922,l),
(458,1757,o),
(564,1678,o),
(702,1678,cs)
);
}
);
};
layerId = "FE517A28-BD9F-4180-B9A0-41F76CAB3C17";
shapes = (
{
ref = A;
},
{
pos = (285,374);
ref = brevecomb;
}
);
userData = {
com.typemytype.robofont.layerData = {
};
org.robofab.postScriptHintData = {
};
};
width = 1419;
},
{
background = {
anchors = (
{
name = bot;
pos = (800,0);
},
{
name = top;
pos = (802,1456);
}
);
shapes = (
{
closed = 1;
nodes = (
(494,0,l),
(592,335,l),
(982,335,l),
(1088,0,l),
(1528,0,l),
(1076,1456,l),
(515,1456,l),
(54,0,l)
);
},
{
closed = 1;
nodes = (
(794,1112,l),
(912,594,l),
(669,594,l)
);
},
{
closed = 1;
nodes = (
(997,1702,o),
(1115,1814,o),
(1115,1985,c),
(904,1985,l),
(904,1938,o),
(868,1906,o),
(803,1906,cs),
(737,1906,o),
(701,1938,o),
(701,1985,c),
(487,1985,l),
(487,1814,o),
(607,1702,o),
(803,1702,cs)
);
}
);
};
layerId = "79570A4D-82CC-4E5E-902B-26A7181B4C65";
shapes = (
{
ref = A;
},
{
pos = (339,374);
ref = brevecomb;
}
);
userData = {
com.typemytype.robofont.layerData = {
};
org.robofab.postScriptHintData = {
};
};
width = 1582;
}
);
unicode = 258;
},
{
glyphname = Acaron;
lastChange = "2023-03-23 12:10:54 +0000";
layers = (
{
background = {
anchors = (
{
name = bot;
pos = (639,0);
},
{
name = top;
pos = (639,1455);
}
);
shapes = (
{
closed = 1;
nodes = (
(141,0,l),
(338,514,l),
(952,514,l),
(1145,0,l),
(1227,0,l),
(670,1455,l),
(607,1455,l),
(50,0,l)
);
},
{
closed = 1;
nodes = (
(638,1339,l),
(927,582,l),
(364,582,l)
);
},
{
closed = 1;
nodes = (
(679,1626,l),
(861,1930,l),
(801,1930,l),
(629,1683,l),
(457,1930,l),
(395,1930,l),
(579,1626,l)
);
}
);
};
layerId = "45045840-C2F8-4391-8868-007C921F4A2B";
shapes = (
{
ref = A;
},
{
pos = (235,373);
ref = caroncomb;
}
);
userData = {
com.typemytype.robofont.layerData = {
};
org.robofab.postScriptHintData = {
};
};
width = 1297;
},
{
background = {
anchors = (
{
name = bot;
pos = (708,0);
},
{
name = top;
pos = (706,1456);
}
);
shapes = (
{
closed = 1;
nodes = (
(255,0,l),
(422,453,l),
(995,453,l),
(1163,0,l),
(1356,0,l),
(806,1456,l),
(608,1456,l),
(63,0,l)
);
},
{
closed = 1;
nodes = (
(708,1268,l),
(950,588,l),
(467,588,l)
);
},
{
closed = 1;
nodes = (
(789,1612,l),
(985,1959,l),
(828,1959,l),
(693,1730,l),
(556,1959,l),
(399,1959,l),
(596,1612,l)
);
}
);
};
layerId = "FE517A28-BD9F-4180-B9A0-41F76CAB3C17";
shapes = (
{
ref = A;
},
{
pos = (280,374);
ref = caroncomb;
}
);
userData = {
com.typemytype.robofont.layerData = {
};
org.robofab.postScriptHintData = {
};
};
width = 1419;
},
{
background = {
anchors = (
{
name = bot;
pos = (800,0);
},
{
name = top;
pos = (802,1456);
}
);
shapes = (
{
closed = 1;
nodes = (
(494,0,l),
(592,335,l),
(982,335,l),
(1088,0,l),
(1528,0,l),
(1076,1456,l),
(515,1456,l),
(54,0,l)
);
},
{
closed = 1;
nodes = (
(794,1112,l),
(912,594,l),
(669,594,l)
);
},
{
closed = 1;
nodes = (
(953,1663,l),
(1171,2074,l),
(865,2074,l),
(785,1872,l),
(704,2074,l),
(398,2074,l),
(615,1663,l)
);
}
);
};
layerId = "79570A4D-82CC-4E5E-902B-26A7181B4C65";
shapes = (
{
ref = A;
},
{
pos = (333,374);
ref = caroncomb;
}
);
userData = {
com.typemytype.robofont.layerData = {
};
org.robofab.postScriptHintData = {
};
};
width = 1582;
}
);
unicode = 461;
},
{
glyphname = Acircumflex;
kernLeft = A;
kernRight = A;
lastChange = "2023-03-23 12:10:54 +0000";
layers = (
{
background = {
anchors = (
{
name = bot;
pos = (639,0);
},
{
name = top;
pos = (639,1455);
}
);
shapes = (
{
closed = 1;
nodes = (
(141,0,l),
(338,514,l),
(952,514,l),
(1145,0,l),
(1227,0,l),
(670,1455,l),
(607,1455,l),
(50,0,l)
);
},
{
closed = 1;
nodes = (
(638,1339,l),
(927,582,l),
(364,582,l)
);
},
{
closed = 1;
nodes = (
(457,1626,l),
(629,1873,l),
(801,1626,l),
(861,1626,l),
(679,1930,l),
(579,1930,l),
(395,1626,l)
);
}
);
};
layerId = "45045840-C2F8-4391-8868-007C921F4A2B";
shapes = (
{
ref = A;
},
{
pos = (235,373);
ref = circumflexcomb;
}
);
userData = {
com.typemytype.robofont.layerData = {
};
org.robofab.postScriptHintData = {
};
};
width = 1297;
},
{
background = {
anchors = (
{
name = bot;
pos = (708,0);
},
{
name = top;
pos = (706,1456);
}
);
shapes = (
{
closed = 1;
nodes = (
(255,0,l),
(422,453,l),
(995,453,l),
(1163,0,l),
(1356,0,l),
(806,1456,l),
(608,1456,l),
(63,0,l)
);
},
{
closed = 1;
nodes = (
(708,1268,l),
(950,588,l),
(467,588,l)
);
},
{
closed = 1;
nodes = (
(565,1625,l),
(702,1854,l),
(837,1625,l),
(994,1625,l),
(798,1972,l),
(605,1972,l),
(408,1625,l)
);
}
);
};
layerId = "FE517A28-BD9F-4180-B9A0-41F76CAB3C17";
shapes = (
{
ref = A;
},
{
pos = (281,374);
ref = circumflexcomb;
}
);
userData = {
com.typemytype.robofont.layerData = {
};
org.robofab.postScriptHintData = {
};
};
width = 1419;
},
{
background = {
anchors = (
{
name = bot;
pos = (800,0);
},
{
name = top;
pos = (802,1456);
}
);
shapes = (
{
closed = 1;
nodes = (
(494,0,l),
(592,335,l),
(982,335,l),
(1088,0,l),
(1528,0,l),
(1076,1456,l),
(515,1456,l),
(54,0,l)
);
},
{
closed = 1;
nodes = (
(794,1112,l),
(912,594,l),
(669,594,l)
);
},
{
closed = 1;
nodes = (
(725,1696,l),
(805,1898,l),
(885,1696,l),
(1191,1696,l),
(974,2107,l),
(636,2107,l),
(419,1696,l)
);
}
);
};
layerId = "79570A4D-82CC-4E5E-902B-26A7181B4C65";
shapes = (
{
ref = A;
},
{
pos = (336,374);
ref = circumflexcomb;
}
);
userData = {
com.typemytype.robofont.layerData = {
};
org.robofab.postScriptHintData = {
};
};
width = 1582;
}
);
unicode = 194;
},
{
glyphname = Adblgrave;
lastChange = "2023-03-23 13:09:26 +0000";
layers = (
{
background = {
anchors = (
{
name = bot;
pos = (639,0);
},
{
name = top;
pos = (639,1455);
}
);
shapes = (
{
closed = 1;
nodes = (
(141,0,l),
(338,514,l),
(952,514,l),
(1145,0,l),
(1227,0,l),
(670,1455,l),
(607,1455,l),
(50,0,l)
);
},
{
closed = 1;
nodes = (
(638,1339,l),
(927,582,l),
(364,582,l)
);
},
{
closed = 1;
nodes = (
(748,1633,l),
(534,1984,l),
(429,1984,l),
(694,1633,l)
);
},
{
closed = 1;
nodes = (
(528,1633,l),
(314,1984,l),
(209,1984,l),
(474,1633,l)
);
}
);
};
layerId = "45045840-C2F8-4391-8868-007C921F4A2B";
shapes = (
{
ref = A;
},
{
pos = (139,373);
ref = dblgravecomb;
}
);
userData = {
com.typemytype.robofont.layerData = {
};
org.robofab.postScriptHintData = {
};
};
width = 1297;
},
{
background = {
anchors = (
{
name = bot;
pos = (708,0);
},
{
name = top;
pos = (706,1456);
}
);
shapes = (
{
closed = 1;
nodes = (
(255,0,l),
(422,453,l),
(995,453,l),
(1163,0,l),
(1356,0,l),
(806,1456,l),
(608,1456,l),
(63,0,l)
);
},
{
closed = 1;
nodes = (
(708,1268,l),
(950,588,l),
(467,588,l)
);
},
{
closed = 1;
nodes = (
(615,1637,l),
(466,1988,l),
(282,1988,l),
(507,1637,l)
);
},
{
closed = 1;
nodes = (
(894,1637,l),
(762,1988,l),
(595,1988,l),
(782,1637,l)
);
}
);
};
layerId = "FE517A28-BD9F-4180-B9A0-41F76CAB3C17";
shapes = (
{
ref = A;
},
{
pos = (244,374);
ref = dblgravecomb;
}
);
userData = {
com.typemytype.robofont.layerData = {
};
org.robofab.postScriptHintData = {
};
};
width = 1419;
},
{
background = {
anchors = (
{
name = bot;
pos = (800,0);
},
{
name = top;
pos = (802,1456);
}
);
shapes = (
{
closed = 1;
nodes = (
(494,0,l),
(592,335,l),
(982,335,l),
(1088,0,l),
(1528,0,l),
(1076,1456,l),
(515,1456,l),
(54,0,l)
);
},
{
closed = 1;
nodes = (
(794,1112,l),
(912,594,l),
(669,594,l)
);
},
{
closed = 1;
nodes = (
(703,1633,l),
(559,2054,l),
(228,2054,l),
(524,1633,l)
);
},
{
closed = 1;
nodes = (
(1111,1633,l),
(946,2054,l),
(643,2054,l),
(919,1633,l)
);
}
);
};
layerId = "79570A4D-82CC-4E5E-902B-26A7181B4C65";
shapes = (
{
ref = A;
},
{
pos = (185,374);
ref = dblgravecomb;
}
);
userData = {
com.typemytype.robofont.layerData = {
};
org.robofab.postScriptHintData = {
};
};
width = 1582;
}
);
unicode = 512;
},
{
glyphname = Adieresis;
kernLeft = A;
kernRight = A;
lastChange = "2023-03-23 12:10:54 +0000";
layers = (
{
background = {
anchors = (
{
name = bot;
pos = (639,0);
},
{
name = top;
pos = (639,1455);
}
);
shapes = (
{
closed = 1;
nodes = (
(141,0,l),
(338,514,l),
(952,514,l),
(1145,0,l),
(1227,0,l),
(670,1455,l),
(607,1455,l),
(50,0,l)
);
},
{
closed = 1;
nodes = (
(638,1339,l),
(927,582,l),
(364,582,l)
);
},
{
closed = 1;
nodes = (
(860,1723,o),
(871,1758,o),
(871,1787,cs),
(871,1813,o),
(860,1850,o),
(808,1850,cs),
(752,1850,o),
(744,1813,o),
(744,1787,cs),
(744,1759,o),
(754,1723,o),
(808,1723,cs)
);
},
{
closed = 1;
nodes = (
(497,1723,o),
(507,1759,o),
(507,1787,cs),
(507,1813,o),
(497,1850,o),
(444,1850,cs),
(388,1850,o),
(380,1813,o),
(380,1787,cs),
(380,1759,o),
(391,1723,o),
(444,1723,cs)
);
}
);
};
layerId = "45045840-C2F8-4391-8868-007C921F4A2B";
shapes = (
{
ref = A;
},
{
pos = (256,373);
ref = dieresiscomb;
}
);
userData = {
com.typemytype.robofont.layerData = {
};
org.robofab.postScriptHintData = {
};
};
width = 1297;
},
{
background = {
anchors = (
{
name = bot;
pos = (708,0);
},
{
name = top;
pos = (706,1456);
}
);
shapes = (
{
closed = 1;
nodes = (
(255,0,l),
(422,453,l),
(995,453,l),
(1163,0,l),
(1356,0,l),
(806,1456,l),
(608,1456,l),
(63,0,l)
);
},
{
closed = 1;
nodes = (
(708,1268,l),
(950,588,l),
(467,588,l)
);
},
{
closed = 1;
nodes = (
(988,1664,o),
(1021,1712,o),
(1021,1773,cs),
(1021,1833,o),
(988,1882,o),
(915,1882,cs),
(840,1882,o),
(807,1833,o),
(807,1773,cs),
(807,1712,o),
(841,1664,o),
(915,1664,cs)
);
},
{
closed = 1;
nodes = (
(553,1664,o),
(586,1712,o),
(586,1773,cs),
(586,1833,o),
(553,1882,o),
(480,1882,cs),
(405,1882,o),
(373,1833,o),
(373,1773,cs),
(373,1712,o),
(407,1664,o),
(480,1664,cs)
);
}
);
};
layerId = "FE517A28-BD9F-4180-B9A0-41F76CAB3C17";
shapes = (
{
ref = A;
},
{
pos = (254,374);
ref = dieresiscomb;
}
);
userData = {
com.typemytype.robofont.layerData = {
};
org.robofab.postScriptHintData = {
};
};
width = 1419;
},
{
background = {
anchors = (
{
name = bot;
pos = (800,0);
},
{
name = top;
pos = (802,1456);
}
);
shapes = (
{
closed = 1;
nodes = (
(494,0,l),
(592,335,l),
(982,335,l),
(1088,0,l),
(1528,0,l),
(1076,1456,l),
(515,1456,l),
(54,0,l)
);
},
{
closed = 1;
nodes = (
(794,1112,l),
(912,594,l),
(669,594,l)
);
},
{
closed = 1;
nodes = (
(1178,1577,o),
(1245,1642,o),
(1245,1751,cs),
(1245,1861,o),
(1178,1928,o),
(1073,1928,cs),
(967,1928,o),
(897,1861,o),
(897,1751,cs),
(897,1642,o),
(967,1577,o),
(1073,1577,cs)
);
},
{
closed = 1;
nodes = (
(633,1577,o),
(700,1642,o),
(700,1751,cs),
(700,1861,o),
(633,1928,o),
(529,1928,cs),
(423,1928,o),
(355,1861,o),
(355,1751,cs),
(355,1642,o),
(423,1577,o),
(529,1577,cs)
);
}
);
};
layerId = "79570A4D-82CC-4E5E-902B-26A7181B4C65";
shapes = (
{
ref = A;
},
{
pos = (223,374);
ref = dieresiscomb;
}
);
userData = {
com.typemytype.robofont.layerData = {
};
org.robofab.postScriptHintData = {
};
};
width = 1582;
}
);
unicode = 196;
},
{
glyphname = Adotaccent;
lastChange = "2023-03-23 12:10:54 +0000";
layers = (
{
background = {
anchors = (
{
name = bot;
pos = (639,0);
},
{
name = top;
pos = (639,1455);
}
);
shapes = (
{
closed = 1;
nodes = (
(141,0,l),
(338,514,l),
(952,514,l),
(1145,0,l),
(1227,0,l),
(670,1455,l),
(607,1455,l),
(50,0,l)
);
},
{
closed = 1;
nodes = (
(638,1339,l),
(927,582,l),
(364,582,l)
);
},
{
closed = 1;
nodes = (
(690,1706,o),
(713,1731,o),
(713,1779,cs),
(713,1826,o),
(690,1851,o),
(640,1851,cs),
(588,1851,o),
(566,1826,o),
(566,1779,cs),
(566,1731,o),
(588,1706,o),
(640,1706,cs)
);
}
);
};
layerId = "45045840-C2F8-4391-8868-007C921F4A2B";
shapes = (
{
ref = A;
},
{
pos = (494,373);
ref = dotaccentcomb;
}
);
userData = {
com.typemytype.robofont.layerData = {
};
org.robofab.postScriptHintData = {
};
};
width = 1297;
},
{
background = {
anchors = (
{
name = bot;
pos = (708,0);
},
{
name = top;
pos = (706,1456);
}
);
shapes = (
{
closed = 1;
nodes = (
(255,0,l),
(422,453,l),
(995,453,l),
(1163,0,l),
(1356,0,l),
(806,1456,l),
(608,1456,l),
(63,0,l)
);
},
{
closed = 1;
nodes = (
(708,1268,l),
(950,588,l),
(467,588,l)
);
},
{
closed = 1;
nodes = (
(791,1676,o),
(839,1725,o),
(839,1805,cs),
(839,1882,o),
(791,1930,o),
(707,1930,cs),
(623,1930,o),
(575,1882,o),
(575,1805,cs),
(575,1725,o),
(623,1676,o),
(707,1676,cs)
);
}
);
};
layerId = "FE517A28-BD9F-4180-B9A0-41F76CAB3C17";
shapes = (
{
ref = A;
},
{
pos = (486,374);
ref = dotaccentcomb;
}
);
userData = {
com.typemytype.robofont.layerData = {
};
org.robofab.postScriptHintData = {
};
};
width = 1419;
},
{
background = {
anchors = (
{
name = bot;
pos = (800,0);
},
{
name = top;
pos = (802,1456);
}
);
shapes = (
{
closed = 1;
nodes = (
(494,0,l),
(592,335,l),
(982,335,l),
(1088,0,l),
(1528,0,l),
(1076,1456,l),
(515,1456,l),
(54,0,l)
);
},
{
closed = 1;
nodes = (
(794,1112,l),
(912,594,l),
(669,594,l)
);
},
{
closed = 1;
nodes = (
(940,1630,o),
(1027,1714,o),
(1027,1842,cs),
(1027,1962,o),
(940,2045,o),
(804,2045,cs),
(668,2045,o),
(581,1962,o),
(581,1842,cs),
(581,1714,o),
(668,1630,o),
(804,1630,cs)
);
}
);
};
layerId = "79570A4D-82CC-4E5E-902B-26A7181B4C65";
shapes = (
{
ref = A;
},
{
pos = (442,374);
ref = dotaccentcomb;
}
);
userData = {
com.typemytype.robofont.layerData = {
};
org.robofab.postScriptHintData = {
};
};
width = 1582;
}
);
unicode = 550;
},
{
glyphname = Agrave;
kernLeft = A;
kernRight = A;
lastChange = "2023-03-23 12:10:54 +0000";
layers = (
{
background = {
anchors = (
{
name = bot;
pos = (639,0);
},
{
name = top;
pos = (639,1455);
}
);
shapes = (
{
closed = 1;
nodes = (
(141,0,l),
(338,514,l),
(952,514,l),
(1145,0,l),
(1227,0,l),
(670,1455,l),
(607,1455,l),
(50,0,l)
);
},
{
closed = 1;
nodes = (
(638,1339,l),
(927,582,l),
(364,582,l)
);
},
{
closed = 1;
nodes = (
(651,1633,l),
(437,1984,l),
(316,1984,l),
(597,1633,l)
);
}
);
};
layerId = "45045840-C2F8-4391-8868-007C921F4A2B";
shapes = (
{
ref = A;
},
{
pos = (229,375);
ref = gravecomb;
}
);
userData = {
com.typemytype.robofont.layerData = {
};
org.robofab.postScriptHintData = {
};
};
width = 1297;
},
{
background = {
anchors = (
{
name = bot;
pos = (708,0);
},
{
name = top;
pos = (706,1456);
}
);
shapes = (
{
closed = 1;
nodes = (
(255,0,l),
(422,453,l),
(995,453,l),
(1163,0,l),
(1356,0,l),
(806,1456,l),
(608,1456,l),
(63,0,l)
);
},
{
closed = 1;
nodes = (
(708,1268,l),
(950,588,l),
(467,588,l)
);
},
{
closed = 1;
nodes = (
(756,1599,l),
(561,1976,l),
(329,1976,l),
(637,1599,l)
);
}
);
};
layerId = "FE517A28-BD9F-4180-B9A0-41F76CAB3C17";
shapes = (
{
ref = A;
},
{
pos = (233,390);
ref = gravecomb;
}
);
userData = {
com.typemytype.robofont.layerData = {
};
org.robofab.postScriptHintData = {
};
};
width = 1419;
},
{
background = {
anchors = (
{
name = bot;
pos = (800,0);
},
{
name = top;
pos = (802,1456);
}
);
shapes = (
{
closed = 1;
nodes = (
(494,0,l),
(592,335,l),
(982,335,l),
(1088,0,l),
(1528,0,l),
(1076,1456,l),
(515,1456,l),
(54,0,l)
);
},
{
closed = 1;
nodes = (
(794,1112,l),
(912,594,l),
(669,594,l)
);
},
{
closed = 1;
nodes = (
(868,1578,l),
(701,1994,l),
(297,1994,l),
(647,1578,l)
);
}
);
};
layerId = "79570A4D-82CC-4E5E-902B-26A7181B4C65";
shapes = (
{
ref = A;
},
{
pos = (261,371);
ref = gravecomb;
}
);
userData = {
com.typemytype.robofont.layerData = {
};
org.robofab.postScriptHintData = {
};
};
width = 1582;
}
);
unicode = 192;
},
{
glyphname = Ainvertedbreve;
lastChange = "2023-03-23 12:10:54 +0000";
layers = (
{
background = {
anchors = (
{
name = bot;
pos = (639,0);
},
{
name = top;
pos = (639,1455);
}
);
shapes = (
{
closed = 1;
nodes = (
(141,0,l),
(338,514,l),
(952,514,l),
(1145,0,l),
(1227,0,l),
(670,1455,l),
(607,1455,l),
(50,0,l)
);
},
{
closed = 1;
nodes = (
(638,1339,l),
(927,582,l),
(364,582,l)
);
},
{
closed = 1;
nodes = (
(490,1652,l),
(490,1772,o),
(561,1816,o),
(632,1816,cs),
(705,1816,o),
(784,1772,o),
(784,1652,c),
(836,1652,l),
(836,1812,o),
(735,1869,o),
(632,1869,cs),
(532,1869,o),
(435,1813,o),
(435,1652,c)
);
}
);
};
layerId = "45045840-C2F8-4391-8868-007C921F4A2B";
shapes = (
{
ref = A;
},
{
pos = (267,373);
ref = breveinvertedcomb;
}
);
userData = {
com.typemytype.robofont.layerData = {
};
org.robofab.postScriptHintData = {
};
};
width = 1297;
},
{
background = {
anchors = (
{
name = bot;
pos = (708,0);
},
{
name = top;
pos = (706,1456);
}
);
shapes = (
{
closed = 1;
nodes = (
(255,0,l),
(422,453,l),
(995,453,l),
(1163,0,l),
(1356,0,l),
(806,1456,l),
(608,1456,l),
(63,0,l)
);
},
{
closed = 1;
nodes = (
(708,1268,l),
(950,588,l),
(467,588,l)
);
},
{
closed = 1;
nodes = (
(575,1678,l),
(575,1768,o),
(639,1809,o),
(702,1809,cs),
(765,1809,o),
(834,1768,o),
(834,1678,c),
(948,1678,l),
(948,1842,o),
(840,1922,o),
(702,1922,cs),
(564,1922,o),
(458,1843,o),
(458,1678,c)
);
}
);
};
layerId = "FE517A28-BD9F-4180-B9A0-41F76CAB3C17";
shapes = (
{
ref = A;
},
{
pos = (303,374);
ref = breveinvertedcomb;
}
);
userData = {
com.typemytype.robofont.layerData = {
};
org.robofab.postScriptHintData = {
};
};
width = 1419;
},
{
background = {
anchors = (
{
name = bot;
pos = (800,0);
},
{
name = top;
pos = (802,1456);
}
);
shapes = (
{
closed = 1;
nodes = (
(494,0,l),
(592,335,l),
(982,335,l),
(1088,0,l),
(1528,0,l),
(1076,1456,l),
(515,1456,l),
(54,0,l)
);
},
{
closed = 1;
nodes = (
(794,1112,l),
(912,594,l),
(669,594,l)
);
},
{
closed = 1;
nodes = (
(699,1702,l),
(699,1748,o),
(735,1781,o),
(801,1781,cs),
(866,1781,o),
(902,1748,o),
(902,1702,c),
(1113,1702,l),
(1113,1873,o),
(995,1985,o),
(801,1985,cs),
(605,1985,o),
(485,1873,o),
(485,1702,c)
);
}
);
};
layerId = "79570A4D-82CC-4E5E-902B-26A7181B4C65";
shapes = (
{
ref = A;
},
{
pos = (334,374);
ref = breveinvertedcomb;
}
);
userData = {
com.typemytype.robofont.layerData = {
};
org.robofab.postScriptHintData = {
};
};
width = 1582;
}
);
unicode = 514;
},
{
glyphname = Amacron;
kernLeft = A;
kernRight = A;
lastChange = "2023-03-23 12:10:54 +0000";
layers = (
{
background = {
anchors = (
{
name = bot;
pos = (639,0);
},
{
name = top;
pos = (639,1455);
}
);
shapes = (
{
closed = 1;
nodes = (
(141,0,l),
(338,514,l),
(952,514,l),
(1145,0,l),
(1227,0,l),
(670,1455,l),
(607,1455,l),
(50,0,l)
);
},
{
closed = 1;
nodes = (
(638,1339,l),
(927,582,l),
(364,582,l)
);
},
{
closed = 1;
nodes = (
(851,1754,l),
(851,1808,l),
(378,1808,l),
(378,1754,l)
);
}
);
};
layerId = "45045840-C2F8-4391-8868-007C921F4A2B";
shapes = (
{
ref = A;
},
{
pos = (62,373);
ref = macroncomb;
}
);
userData = {
com.typemytype.robofont.layerData = {
};
org.robofab.postScriptHintData = {
};
};
width = 1297;
},
{
background = {
anchors = (
{
name = bot;
pos = (708,0);
},
{
name = top;
pos = (706,1456);
}
);
shapes = (
{
closed = 1;
nodes = (
(255,0,l),
(422,453,l),
(995,453,l),
(1163,0,l),
(1356,0,l),
(806,1456,l),
(608,1456,l),
(63,0,l)
);
},
{
closed = 1;
nodes = (
(708,1268,l),
(950,588,l),
(467,588,l)
);
},
{
closed = 1;
nodes = (
(984,1717,l),
(984,1817,l),
(400,1817,l),
(400,1717,l)
);
}
);
};
layerId = "FE517A28-BD9F-4180-B9A0-41F76CAB3C17";
shapes = (
{
ref = A;
},
{
pos = (153,374);
ref = macroncomb;
}
);
userData = {
com.typemytype.robofont.layerData = {
};
org.robofab.postScriptHintData = {
};
};
width = 1419;
},
{
background = {
anchors = (
{
name = bot;
pos = (800,0);
},
{
name = top;
pos = (802,1456);
}
);
shapes = (
{
closed = 1;
nodes = (
(494,0,l),
(592,335,l),
(982,335,l),
(1088,0,l),
(1528,0,l),
(1076,1456,l),
(515,1456,l),
(54,0,l)
);
},
{
closed = 1;
nodes = (
(794,1112,l),
(912,594,l),
(669,594,l)
);
},
{
closed = 1;
nodes = (
(1181,1618,l),
(1181,1787,l),
(427,1787,l),
(427,1618,l)
);
}
);
};
layerId = "79570A4D-82CC-4E5E-902B-26A7181B4C65";
shapes = (
{
ref = A;
},
{
pos = (287,374);
ref = macroncomb;
}
);
userData = {
com.typemytype.robofont.layerData = {
};
org.robofab.postScriptHintData = {
};
};
width = 1582;
}
);
unicode = 256;
},
{
glyphname = Aogonek;
kernLeft = A;
kernRight = A;
lastChange = "2023-03-23 12:10:54 +0000";
layers = (
{
background = {
anchors = (
{
name = bot;
pos = (639,0);
},
{
name = top;
pos = (639,1455);
}
);
shapes = (
{
closed = 1;
nodes = (
(141,0,l),
(338,514,l),
(952,514,l),
(1145,0,l),
(1227,0,l),
(670,1455,l),
(607,1455,l),
(50,0,l)
);
},
{
closed = 1;
nodes = (
(638,1339,l),
(927,582,l),
(364,582,l)
);
},
{
closed = 1;
nodes = (
(1163,-388,o),
(1204,-379,o),
(1234,-364,c),
(1234,-364,o),
(1235,-331,o),
(1235,-318,cs),
(1235,-313,l),
(1209,-325,o),
(1177,-332,o),
(1148,-332,cs),
(1094,-332,o),
(1048,-305,o),
(1048,-236,cs),
(1048,-147,o),
(1131,-58,o),
(1218,0,c),
(1159,0,l),
(1035,-71,o),
(968,-176,o),
(968,-262,cs),
(968,-353,o),
(1042,-388,o),
(1122,-388,cs)
);
}
);
};
layerId = "45045840-C2F8-4391-8868-007C921F4A2B";
shapes = (
{
ref = A;
},
{
pos = (796,-1);
ref = ogonekcomb;
}
);
userData = {
com.typemytype.robofont.layerData = {
};
org.robofab.postScriptHintData = {
};
};
width = 1297;
},
{
background = {
anchors = (
{
name = bot;
pos = (708,0);
},
{
name = top;
pos = (706,1456);
}
);
shapes = (
{
closed = 1;
nodes = (
(255,0,l),
(422,453,l),
(995,453,l),
(1163,0,l),
(1356,0,l),
(806,1456,l),
(608,1456,l),
(63,0,l)
);
},
{
closed = 1;
nodes = (
(708,1268,l),
(950,588,l),
(467,588,l)
);
},
{
closed = 1;
nodes = (
(1244,-423,o),
(1307,-408,o),
(1342,-392,c),
(1339,-283,l),
(1321,-291,o),
(1272,-308,o),
(1229,-308,cs),
(1184,-308,o),
(1147,-284,o),
(1147,-228,cs),
(1147,-152,o),
(1229,-41,o),
(1290,4,c),
(1206,4,l),
(1105,-38,o),
(1002,-153,o),
(1002,-269,cs),
(1002,-364,o),
(1069,-423,o),
(1193,-423,cs)
);
}
);
};
layerId = "FE517A28-BD9F-4180-B9A0-41F76CAB3C17";
shapes = (
{
ref = A;
},
{
pos = (750,-1);
ref = ogonekcomb;
}
);
userData = {
com.typemytype.robofont.layerData = {
};
org.robofab.postScriptHintData = {
};
};
width = 1419;
},
{
background = {
anchors = (
{
name = bot;
pos = (800,0);
},
{
name = top;
pos = (802,1456);
}
);
shapes = (
{
closed = 1;
nodes = (
(494,0,l),
(592,335,l),
(982,335,l),
(1088,0,l),
(1528,0,l),
(1076,1456,l),
(515,1456,l),
(54,0,l)
);
},
{
closed = 1;
nodes = (
(794,1112,l),
(912,594,l),
(669,594,l)
);
},
{
closed = 1;
nodes = (
(1377,-456,o),
(1442,-440,o),
(1514,-413,c),
(1504,-235,l),
(1493,-243,o),
(1426,-274,o),
(1362,-274,cs),
(1322,-274,o),
(1297,-229,o),
(1297,-200,cs),
(1297,-146,o),
(1312,-68,o),
(1401,4,c),
(1269,4,l),
(1201,-40,o),
(1088,-114,o),
(1088,-257,cs),
(1088,-397,o),
(1198,-456,o),
(1306,-456,cs)
);
}
);
};
layerId = "79570A4D-82CC-4E5E-902B-26A7181B4C65";
shapes = (
{
ref = A;
},
{
pos = (852,2);
ref = ogonekcomb;
}
);
userData = {
com.typemytype.robofont.layerData = {
};
org.robofab.postScriptHintData = {
};
};
width = 1582;
}
);
unicode = 260;
},
{
glyphname = Aring;
kernLeft = A;
kernRight = A;
lastChange = "2023-03-23 12:10:54 +0000";
layers = (
{
background = {
anchors = (
{
name = bot;
pos = (639,0);
},
{
name = top;
pos = (639,1455);
}
);
shapes = (
{
closed = 1;
nodes = (
(141,0,l),
(338,514,l),
(952,514,l),
(1145,0,l),
(1227,0,l),
(670,1455,l),
(607,1455,l),
(50,0,l)
);
},
{
closed = 1;
nodes = (
(638,1339,l),
(927,582,l),
(364,582,l)
);
},
{
closed = 1;
nodes = (
(727,1576,o),
(803,1640,o),
(803,1733,cs),
(803,1824,o),
(726,1888,o),
(639,1888,cs),
(552,1888,o),
(476,1824,o),
(476,1733,cs),
(476,1640,o),
(552,1576,o),
(639,1576,cs)
);
},
{
closed = 1;
nodes = (
(585,1631,o),
(539,1676,o),
(539,1731,cs),
(539,1787,o),
(584,1830,o),
(639,1830,cs),
(694,1830,o),
(741,1787,o),
(741,1731,cs),
(741,1676,o),
(694,1631,o),
(639,1631,cs)
);
}
);
};
layerId = "45045840-C2F8-4391-8868-007C921F4A2B";
shapes = (
{
ref = A;
},
{
pos = (333,373);
ref = ringcomb;
}
);
userData = {
com.typemytype.robofont.layerData = {
};
org.robofab.postScriptHintData = {
};
};
width = 1297;
},
{
background = {
anchors = (
{
name = bot;
pos = (708,0);
},
{
name = top;
pos = (706,1456);
}
);
shapes = (
{
closed = 1;
nodes = (
(255,0,l),
(422,453,l),
(995,453,l),
(1163,0,l),
(1356,0,l),
(806,1456,l),
(608,1456,l),
(63,0,l)
);
},
{
closed = 1;
nodes = (
(708,1268,l),
(950,588,l),
(467,588,l)
);
},
{
closed = 1;
nodes = (
(820,1588,o),
(901,1672,o),
(901,1775,cs),
(901,1877,o),
(821,1961,o),
(707,1961,cs),
(594,1961,o),
(515,1878,o),
(515,1775,cs),
(515,1672,o),
(594,1588,o),
(707,1588,cs)
);
},
{
closed = 1;
nodes = (
(649,1671,o),
(611,1717,o),
(611,1774,cs),
(611,1828,o),
(650,1876,o),
(707,1876,cs),
(764,1876,o),
(805,1828,o),
(805,1774,cs),
(805,1718,o),
(764,1671,o),
(707,1671,cs)
);
}
);
};
layerId = "FE517A28-BD9F-4180-B9A0-41F76CAB3C17";
shapes = (
{
ref = A;
},
{
pos = (365,374);
ref = ringcomb;
}
);
userData = {
com.typemytype.robofont.layerData = {
};
org.robofab.postScriptHintData = {
};
};
width = 1419;
},
{
background = {
anchors = (
{
name = bot;
pos = (800,0);
},
{
name = top;
pos = (802,1456);
}
);
shapes = (
{
closed = 1;
nodes = (
(494,0,l),
(592,335,l),
(982,335,l),
(1088,0,l),
(1528,0,l),
(1076,1456,l),
(515,1456,l),
(54,0,l)
);
},
{
closed = 1;
nodes = (
(794,1112,l),
(912,594,l),
(669,594,l)
);
},
{
closed = 1;
nodes = (
(956,1561,o),
(1045,1674,o),
(1045,1794,cs),
(1045,1912,o),
(959,2024,o),
(804,2024,cs),
(652,2024,o),
(567,1915,o),
(567,1794,cs),
(567,1674,o),
(653,1561,o),
(804,1561,cs)
);
},
{
closed = 1;
nodes = (
(739,1686,o),
(716,1735,o),
(716,1793,cs),
(716,1845,o),
(745,1900,o),
(804,1900,cs),
(866,1900,o),
(897,1845,o),
(897,1793,cs),
(897,1737,o),
(866,1686,o),
(804,1686,cs)
);
}
);
};
layerId = "79570A4D-82CC-4E5E-902B-26A7181B4C65";
shapes = (
{
ref = A;
},
{
pos = (394,374);
ref = ringcomb;
}
);
userData = {
com.typemytype.robofont.layerData = {
};
org.robofab.postScriptHintData = {
};
};
width = 1582;
}
);
unicode = 197;
},
{
glyphname = Aringacute;
lastChange = "2023-03-23 12:10:54 +0000";
layers = (
{
background = {
anchors = (
{
name = bot;
pos = (639,0);
},
{
name = top;
pos = (639,1455);
}
);
shapes = (
{
closed = 1;
nodes = (
(141,0,l),
(338,514,l),
(952,514,l),
(1145,0,l),
(1227,0,l),
(670,1455,l),
(607,1455,l),
(50,0,l)
);
},
{
closed = 1;
nodes = (
(638,1339,l),
(927,582,l),
(364,582,l)
);
},
{
closed = 1;
nodes = (
(664,2039,l),
(929,2390,l),
(824,2390,l),
(610,2039,l)
);
},
{
closed = 1;
nodes = (
(727,1605,o),
(803,1669,o),
(803,1762,cs),
(803,1853,o),
(726,1917,o),
(639,1917,cs),
(552,1917,o),
(476,1853,o),
(476,1762,cs),
(476,1669,o),
(552,1605,o),
(639,1605,cs)
);
},
{
closed = 1;
nodes = (
(585,1660,o),
(539,1705,o),
(539,1760,cs),
(539,1816,o),
(584,1859,o),
(639,1859,cs),
(694,1859,o),
(741,1816,o),
(741,1760,cs),
(741,1705,o),
(694,1660,o),
(639,1660,cs)
);
}
);
};
layerId = "45045840-C2F8-4391-8868-007C921F4A2B";
shapes = (
{
ref = A;
},
{
pos = (333,373);
ref = ringcomb;
},
{
pos = (398,755);
ref = acutecomb;
}
);
userData = {
com.typemytype.robofont.layerData = {
};
org.robofab.postScriptHintData = {
};
};
width = 1297;
},
{
background = {
anchors = (
{
name = bot;
pos = (708,0);
},
{
name = top;
pos = (706,1456);
}
);
shapes = (
{
closed = 1;
nodes = (
(255,0,l),
(422,453,l),
(995,453,l),
(1163,0,l),
(1356,0,l),
(806,1456,l),
(608,1456,l),
(63,0,l)
);
},
{
closed = 1;
nodes = (
(708,1268,l),
(950,588,l),
(467,588,l)
);
},
{
closed = 1;
nodes = (
(762,1583,l),
(1061,1960,l),
(839,1960,l),
(643,1583,l)
);
},
{
closed = 1;
nodes = (
(820,1588,o),
(901,1672,o),
(901,1775,cs),
(901,1877,o),
(821,1961,o),
(707,1961,cs),
(594,1961,o),
(515,1878,o),
(515,1775,cs),
(515,1672,o),
(594,1588,o),
(707,1588,cs)
);
},
{
closed = 1;
nodes = (
(649,1671,o),
(611,1717,o),
(611,1774,cs),
(611,1828,o),
(650,1876,o),
(707,1876,cs),
(764,1876,o),
(805,1828,o),
(805,1774,cs),
(805,1718,o),
(764,1671,o),
(707,1671,cs)
);
}
);
};
layerId = "FE517A28-BD9F-4180-B9A0-41F76CAB3C17";
shapes = (
{
ref = A;
},
{
pos = (365,374);
ref = ringcomb;
},
{
pos = (353,813);
ref = acutecomb;
}
);
userData = {
com.typemytype.robofont.layerData = {
};
org.robofab.postScriptHintData = {
};
};
width = 1419;
},
{
background = {
anchors = (
{
name = bot;
pos = (800,0);
},
{
name = top;
pos = (802,1456);
}
);
shapes = (
{
closed = 1;
nodes = (
(494,0,l),
(592,335,l),
(982,335,l),
(1088,0,l),
(1528,0,l),
(1076,1456,l),
(515,1456,l),
(54,0,l)
);
},
{
closed = 1;
nodes = (
(794,1112,l),
(912,594,l),
(669,594,l)
);
},
{
closed = 1;
nodes = (
(904,2104,l),
(1255,2520,l),
(851,2520,l),
(682,2104,l)
);
},
{
closed = 1;
nodes = (
(952,1561,o),
(1041,1674,o),
(1041,1794,cs),
(1041,1912,o),
(955,2024,o),
(800,2024,cs),
(648,2024,o),
(563,1915,o),
(563,1794,cs),
(563,1674,o),
(649,1561,o),
(800,1561,cs)
);
},
{
closed = 1;
nodes = (
(735,1686,o),
(712,1735,o),
(712,1793,cs),
(712,1845,o),
(741,1900,o),
(800,1900,cs),
(862,1900,o),
(893,1845,o),
(893,1793,cs),
(893,1737,o),
(862,1686,o),
(800,1686,cs)
);
}
);
};
layerId = "79570A4D-82CC-4E5E-902B-26A7181B4C65";
shapes = (
{
ref = A;
},
{
pos = (394,374);
ref = ringcomb;
},
{
pos = (251,896);
ref = acutecomb;
}
);
userData = {
com.typemytype.robofont.layerData = {
};
org.robofab.postScriptHintData = {
};
};
width = 1582;
}
);
unicode = 506;
},
{
glyphname = Atilde;
kernLeft = A;
kernRight = A;
lastChange = "2023-03-23 12:10:54 +0000";
layers = (
{
background = {
anchors = (
{
name = bot;
pos = (639,0);
},
{
name = top;
pos = (639,1455);
}
);
shapes = (
{
closed = 1;
nodes = (
(141,0,l),
(338,514,l),
(952,514,l),
(1145,0,l),
(1227,0,l),
(670,1455,l),
(607,1455,l),
(50,0,l)
);
},
{
closed = 1;
nodes = (
(638,1339,l),
(927,582,l),
(364,582,l)
);
},
{
closed = 1;
nodes = (
(382,1701,l),
(385,1770,o),
(410,1801,o),
(446,1801,cs),
(524,1801,o),
(659,1701,o),
(759,1701,cs),
(799,1701,o),
(870,1707,o),
(870,1864,c),
(813,1864,l),
(808,1796,o),
(787,1773,o),
(752,1773,cs),
(684,1773,o),
(567,1865,o),
(460,1865,cs),
(406,1865,o),
(331,1854,o),
(331,1701,c)
);
}
);
};
layerId = "45045840-C2F8-4391-8868-007C921F4A2B";
shapes = (
{
ref = A;
},
{
pos = (183,373);
ref = tildecomb;
}
);
userData = {
com.typemytype.robofont.layerData = {
};
org.robofab.postScriptHintData = {
};
};
width = 1297;
},
{
background = {
anchors = (
{
name = bot;
pos = (708,0);
},
{
name = top;
pos = (706,1456);
}
);
shapes = (
{
closed = 1;
nodes = (
(255,0,l),
(422,453,l),
(995,453,l),
(1163,0,l),
(1356,0,l),
(806,1456,l),
(608,1456,l),
(63,0,l)
);
},
{
closed = 1;
nodes = (
(708,1268,l),
(950,588,l),
(467,588,l)
);
},
{
closed = 1;
nodes = (
(478,1684,l),
(487,1755,o),
(511,1783,o),
(546,1783,cs),
(620,1783,o),
(738,1684,o),
(843,1684,cs),
(936,1684,o),
(995,1760,o),
(995,1897,c),
(899,1897,l),
(890,1832,o),
(869,1810,o),
(838,1810,cs),
(776,1810,o),
(673,1898,o),
(552,1898,cs),
(447,1898,o),
(385,1822,o),
(385,1684,c)
);
}
);
};
layerId = "FE517A28-BD9F-4180-B9A0-41F76CAB3C17";
shapes = (
{
ref = A;
},
{
pos = (232,374);
ref = tildecomb;
}
);
userData = {
com.typemytype.robofont.layerData = {
};
org.robofab.postScriptHintData = {
};
};
width = 1419;
},
{
background = {
anchors = (
{
name = bot;
pos = (800,0);
},
{
name = top;
pos = (802,1456);
}
);
shapes = (
{
closed = 1;
nodes = (
(494,0,l),
(592,335,l),
(982,335,l),
(1088,0,l),
(1528,0,l),
(1076,1456,l),
(515,1456,l),
(54,0,l)
);
},
{
closed = 1;
nodes = (
(794,1112,l),
(912,594,l),
(669,594,l)
);
},
{
closed = 1;
nodes = (
(617,1614,l),
(636,1688,o),
(659,1713,o),
(694,1713,cs),
(759,1713,o),
(851,1614,o),
(966,1614,cs),
(1140,1614,o),
(1181,1794,o),
(1181,1901,c),
(1025,1901,l),
(1008,1840,o),
(989,1821,o),
(963,1821,cs),
(909,1821,o),
(829,1902,o),
(685,1902,cs),
(502,1902,o),
(460,1731,o),
(460,1614,c)
);
}
);
};
layerId = "79570A4D-82CC-4E5E-902B-26A7181B4C65";
shapes = (
{
ref = A;
},
{
pos = (290,374);
ref = tildecomb;
}
);
userData = {
com.typemytype.robofont.layerData = {
};
org.robofab.postScriptHintData = {
};
};
width = 1582;
}
);
unicode = 195;
},
{
glyphname = AE;
lastChange = "2023-03-23 12:10:17 +0000";
layers = (
{
anchors = (
{
name = bottom;
pos = (948,0);
},
{
name = top;
pos = (1422,1455);
}
);
background = {
shapes = (
{
closed = 1;
nodes = (
(154,0,l),
(497,514,l),
(1060,514,l),
(1060,0,l),
(1881,0,l),
(1889,69,l),
(1144,69,l),
(1144,711,l),
(1803,711,l),
(1803,780,l),
(1144,780,l),
(1144,1384,l),
(1887,1384,l),
(1890,1455,l),
(1034,1455,l),
(55,0,l)
);
},
{
closed = 1;
nodes = (
(1060,1366,l),
(1060,582,l),
(544,582,l)
);
}
);
};
layerId = "45045840-C2F8-4391-8868-007C921F4A2B";
shapes = (
{
closed = 1;
nodes = (
(148,0,l),
(478,507,l),
(1023,507,l),
(1023,0,l),
(1837,0,l),
(1846,79,l),
(1119,79,l),
(1119,708,l),
(1760,708,l),
(1760,787,l),
(1119,787,l),
(1119,1374,l),
(1841,1374,l),
(1844,1455,l),
(987,1455,l),
(35,0,l)
);
},
{
closed = 1;
nodes = (
(1023,1356,l),
(1023,584,l),
(527,584,l)
);
}
);
userData = {
com.typemytype.robofont.layerData = {
};
org.pippin.gimp.org.kernagic = {
lstem = 0;
rstem = 0;
};
org.robofab.postScriptHintData = {
};
};
width = 1895;
},
{
anchors = (
{
name = bottom;
pos = (803,0);
},
{
name = top;
pos = (1108,1456);
}
);
background = {
shapes = (
{
closed = 1;
nodes = (
(111,0,l),
(354,462,l),
(780,462,l),
(780,0,l),
(1553,0,l),
(1565,147,l),
(961,147,l),
(961,689,l),
(1484,689,l),
(1484,834,l),
(961,834,l),
(961,1311,l),
(1542,1311,l),
(1549,1456,l),
(683,1456,l),
(-94,0,l)
);
},
{
closed = 1;
nodes = (
(780,1291,l),
(780,595,l),
(421,595,l)
);
}
);
};
layerId = "FE517A28-BD9F-4180-B9A0-41F76CAB3C17";
shapes = (
{
closed = 1;
nodes = (
(111,0,l),
(354,462,l),
(780,462,l),
(780,0,l),
(1553,0,l),
(1565,147,l),
(961,147,l),
(961,689,l),
(1484,689,l),
(1484,834,l),
(961,834,l),
(961,1311,l),
(1542,1311,l),
(1549,1456,l),
(683,1456,l),
(-94,0,l)
);
},
{
closed = 1;
nodes = (
(780,1291,l),
(780,595,l),
(421,595,l)
);
}
);
userData = {
com.typemytype.robofont.layerData = {
};
org.pippin.gimp.org.kernagic = {
lstem = 0;
rstem = 0;
};
org.robofab.postScriptHintData = {
};
};
width = 1606;
},
{
anchors = (
{
name = bottom;
pos = (1089,0);
},
{
name = top;
pos = (1449,1456);
}
);
background = {
shapes = (
{
closed = 1;
nodes = (
(466,0,l),
(664,327,l),
(1020,327,l),
(1020,0,l),
(2026,0,l),
(2034,279,l),
(1344,279,l),
(1344,593,l),
(1977,593,l),
(1977,864,l),
(1344,864,l),
(1344,1187,l),
(1985,1187,l),
(2009,1456,l),
(974,1456,l),
(43,0,l)
);
},
{
closed = 1;
nodes = (
(1020,976,l),
(1020,573,l),
(778,573,l)
);
}
);
};
layerId = "79570A4D-82CC-4E5E-902B-26A7181B4C65";
shapes = (
{
closed = 1;
nodes = (
(466,0,l),
(664,327,l),
(1020,327,l),
(1020,0,l),
(2026,0,l),
(2034,279,l),
(1344,279,l),
(1344,593,l),
(1977,593,l),
(1977,864,l),
(1344,864,l),
(1344,1187,l),
(1985,1187,l),
(2009,1456,l),
(974,1456,l),
(43,0,l)
);
},
{
closed = 1;
nodes = (
(1020,976,l),
(1020,573,l),
(778,573,l)
);
}
);
userData = {
com.typemytype.robofont.layerData = {
};
org.pippin.gimp.org.kernagic = {
lstem = 0;
rstem = 0;
};
org.robofab.postScriptHintData = {
};
};
width = 2177;
}
);
unicode = 198;
},
{
glyphname = AEacute;
lastChange = "2023-03-23 12:10:54 +0000";
layers = (
{
background = {
shapes = (
{
closed = 1;
nodes = (
(154,0,l),
(497,514,l),
(1060,514,l),
(1060,0,l),
(1881,0,l),
(1889,69,l),
(1144,69,l),
(1144,711,l),
(1803,711,l),
(1803,780,l),
(1144,780,l),
(1144,1384,l),
(1887,1384,l),
(1890,1455,l),
(1034,1455,l),
(55,0,l)
);
},
{
closed = 1;
nodes = (
(1060,1366,l),
(1060,582,l),
(544,582,l)
);
},
{
closed = 1;
nodes = (
(1488,1662,l),
(1753,2013,l),
(1648,2013,l),
(1434,1662,l)
);
}
);
};
layerId = "45045840-C2F8-4391-8868-007C921F4A2B";
shapes = (
{
ref = AE;
},
{
pos = (1170,373);
ref = acutecomb;
}
);
userData = {
com.typemytype.robofont.layerData = {
};
org.robofab.postScriptHintData = {
};
};
width = 1895;
},
{
background = {
shapes = (
{
closed = 1;
nodes = (
(111,0,l),
(354,462,l),
(780,462,l),
(780,0,l),
(1553,0,l),
(1565,147,l),
(961,147,l),
(961,689,l),
(1484,689,l),
(1484,834,l),
(961,834,l),
(961,1311,l),
(1542,1311,l),
(1549,1456,l),
(683,1456,l),
(-94,0,l)
);
},
{
closed = 1;
nodes = (
(780,1291,l),
(780,595,l),
(421,595,l)
);
},
{
closed = 1;
nodes = (
(1464,1599,l),
(1763,1976,l),
(1541,1976,l),
(1345,1599,l)
);
}
);
};
layerId = "FE517A28-BD9F-4180-B9A0-41F76CAB3C17";
shapes = (
{
ref = AE;
},
{
pos = (750,374);
ref = acutecomb;
}
);
userData = {
com.typemytype.robofont.layerData = {
};
org.robofab.postScriptHintData = {
};
};
width = 1606;
},
{
background = {
shapes = (
{
closed = 1;
nodes = (
(466,0,l),
(664,327,l),
(1020,327,l),
(1020,0,l),
(2026,0,l),
(2034,279,l),
(1344,279,l),
(1344,593,l),
(1977,593,l),
(1977,864,l),
(1344,864,l),
(1344,1187,l),
(1985,1187,l),
(2009,1456,l),
(974,1456,l),
(43,0,l)
);
},
{
closed = 1;
nodes = (
(1020,976,l),
(1020,573,l),
(778,573,l)
);
},
{
closed = 1;
nodes = (
(1427,1578,l),
(1778,1994,l),
(1374,1994,l),
(1205,1578,l)
);
}
);
};
layerId = "79570A4D-82CC-4E5E-902B-26A7181B4C65";
shapes = (
{
ref = AE;
},
{
pos = (910,374);
ref = acutecomb;
}
);
userData = {
com.typemytype.robofont.layerData = {
};
org.robofab.postScriptHintData = {
};
};
width = 2177;
}
);
unicode = 508;
},
{
glyphname = AEmacron;
lastChange = "2023-03-23 12:10:54 +0000";
layers = (
{
background = {
shapes = (
{
closed = 1;
nodes = (
(154,0,l),
(497,514,l),
(1060,514,l),
(1060,0,l),
(1881,0,l),
(1889,69,l),
(1144,69,l),
(1144,711,l),
(1803,711,l),
(1803,780,l),
(1144,780,l),
(1144,1384,l),
(1887,1384,l),
(1890,1455,l),
(1034,1455,l),
(55,0,l)
);
},
{
closed = 1;
nodes = (
(1060,1366,l),
(1060,582,l),
(544,582,l)
);
},
{
closed = 1;
nodes = (
(1502,1785,l),
(1502,1839,l),
(1029,1839,l),
(1029,1785,l)
);
}
);
};
layerId = "45045840-C2F8-4391-8868-007C921F4A2B";
shapes = (
{
ref = AE;
},
{
pos = (835,373);
ref = macroncomb;
}
);
userData = {
com.typemytype.robofont.layerData = {
};
org.robofab.postScriptHintData = {
};
};
width = 1895;
},
{
background = {
shapes = (
{
closed = 1;
nodes = (
(111,0,l),
(354,462,l),
(780,462,l),
(780,0,l),
(1553,0,l),
(1565,147,l),
(961,147,l),
(961,689,l),
(1484,689,l),
(1484,834,l),
(961,834,l),
(961,1311,l),
(1542,1311,l),
(1549,1456,l),
(683,1456,l),
(-94,0,l)
);
},
{
closed = 1;
nodes = (
(780,1291,l),
(780,595,l),
(421,595,l)
);
},
{
closed = 1;
nodes = (
(1463,1739,l),
(1463,1839,l),
(879,1839,l),
(879,1739,l)
);
}
);
};
layerId = "FE517A28-BD9F-4180-B9A0-41F76CAB3C17";
shapes = (
{
ref = AE;
},
{
pos = (551,374);
ref = macroncomb;
}
);
userData = {
com.typemytype.robofont.layerData = {
};
org.robofab.postScriptHintData = {
};
};
width = 1606;
},
{
background = {
shapes = (
{
closed = 1;
nodes = (
(466,0,l),
(664,327,l),
(1020,327,l),
(1020,0,l),
(2026,0,l),
(2034,279,l),
(1344,279,l),
(1344,593,l),
(1977,593,l),
(1977,864,l),
(1344,864,l),
(1344,1187,l),
(1985,1187,l),
(2009,1456,l),
(974,1456,l),
(43,0,l)
);
},
{
closed = 1;
nodes = (
(1020,976,l),
(1020,573,l),
(778,573,l)
);
},
{
closed = 1;
nodes = (
(1740,1614,l),
(1740,1783,l),
(986,1783,l),
(986,1614,l)
);
}
);
};
layerId = "79570A4D-82CC-4E5E-902B-26A7181B4C65";
shapes = (
{
ref = AE;
},
{
pos = (945,374);
ref = macroncomb;
}
);
userData = {
com.typemytype.robofont.layerData = {
};
org.robofab.postScriptHintData = {
};
};
width = 2177;
}
);
unicode = 482;
},
{
glyphname = B;
kernRight = B;
lastChange = "2023-03-23 12:10:17 +0000";
layers = (
{
anchors = (
{
name = bottom;
pos = (683,0);
},
{
name = center;
pos = (683,728);
},
{
name = top;
pos = (653,1455);
}
);
background = {
anchors = (
{
name = top;
pos = (685,1456);
}
);
shapes = (
{
closed = 1;
nodes = (
(1135,-13,o),
(1244,130,o),
(1244,400,cs),
(1244,595,o),
(1135,716,o),
(916,761,c),
(1138,825,o),
(1182,942,o),
(1182,1104,cs),
(1182,1342,o),
(1068,1467,o),
(552,1467,cs),
(456,1467,o),
(347,1463,o),
(222,1454,c),
(222,0,l),
(354,-9,o),
(469,-13,o),
(571,-13,cs)
);
},
{
closed = 1;
nodes = (
(517,59,o),
(422,62,o),
(314,67,c),
(314,729,l),
(647,729,ls),
(988,729,o),
(1151,652,o),
(1151,393,cs),
(1151,148,o),
(1070,59,o),
(600,59,cs)
);
},
{
closed = 1;
nodes = (
(314,1386,l),
(412,1390,o),
(499,1393,o),
(574,1393,cs),
(989,1393,o),
(1098,1324,o),
(1098,1098,cs),
(1098,851,o),
(941,803,o),
(730,803,cs),
(314,803,l)
);
}
);
};
layerId = "45045840-C2F8-4391-8868-007C921F4A2B";
shapes = (
{
closed = 1;
nodes = (
(1123,-12,o),
(1243,129,o),
(1243,404,cs),
(1243,593,o),
(1142,718,o),
(919,765,c),
(1136,828,o),
(1183,946,o),
(1183,1103,cs),
(1183,1331,o),
(1078,1467,o),
(561,1467,cs),
(465,1467,o),
(349,1462,o),
(219,1451,c),
(219,1,l),
(351,-8,o),
(459,-12,o),
(569,-12,cs)
);
},
{
closed = 1;
nodes = (
(521,69,o),
(430,72,o),
(325,77,c),
(325,727,l),
(648,727,ls),
(979,727,o),
(1137,650,o),
(1137,398,cs),
(1137,164,o),
(1062,69,o),
(598,69,cs)
);
},
{
closed = 1;
nodes = (
(325,1376,l),
(421,1381,o),
(505,1384,o),
(581,1384,cs),
(978,1384,o),
(1086,1314,o),
(1086,1096,cs),
(1086,856,o),
(928,809,o),
(721,809,cs),
(325,809,l)
);
}
);
userData = {
com.typemytype.robofont.layerData = {
};
org.pippin.gimp.org.kernagic = {
lstem = 0;
rstem = 0;
};
org.robofab.postScriptHintData = {
};
};
width = 1366;
},
{
anchors = (
{
name = bottom;
pos = (687,0);
},
{
name = center;
pos = (687,728);
},
{
name = top;
pos = (657,1456);
}
);
background = {
anchors = (
{
name = top;
pos = (658,1456);
}
);
shapes = (
{
closed = 1;
nodes = (
(1047,-9,o),
(1242,120,o),
(1242,432,cs),
(1242,612,o),
(1157,738,o),
(942,790,c),
(1127,850,o),
(1190,965,o),
(1190,1098,cs),
(1190,1257,o),
(1155,1464,o),
(622,1464,cs),
(507,1464,o),
(368,1455,o),
(203,1434,c),
(203,8,l),
(335,-3,o),
(453,-9,o),
(557,-9,cs)
);
},
{
closed = 1;
nodes = (
(532,135,o),
(467,138,o),
(397,143,c),
(397,717,l),
(657,717,ls),
(930,717,o),
(1049,635,o),
(1049,427,cs),
(1049,265,o),
(1015,135,o),
(590,135,cs)
);
},
{
closed = 1;
nodes = (
(397,1314,l),
(485,1323,o),
(564,1327,o),
(631,1327,cs),
(920,1327,o),
(1011,1246,o),
(1011,1085,cs),
(1011,889,o),
(853,851,o),
(668,851,cs),
(397,851,l)
);
}
);
};
layerId = "FE517A28-BD9F-4180-B9A0-41F76CAB3C17";
shapes = (
{
closed = 1;
nodes = (
(1047,-9,o),
(1242,120,o),
(1242,432,cs),
(1242,612,o),
(1157,738,o),
(942,790,c),
(1127,850,o),
(1190,965,o),
(1190,1098,cs),
(1190,1257,o),
(1155,1464,o),
(622,1464,cs),
(507,1464,o),
(368,1455,o),
(203,1434,c),
(203,8,l),
(335,-3,o),
(453,-9,o),
(557,-9,cs)
);
},
{
closed = 1;
nodes = (
(532,135,o),
(467,138,o),
(397,143,c),
(397,717,l),
(657,717,ls),
(930,717,o),
(1049,635,o),
(1049,427,cs),
(1049,265,o),
(1015,135,o),
(590,135,cs)
);
},
{
closed = 1;
nodes = (
(397,1314,l),
(485,1323,o),
(564,1327,o),
(631,1327,cs),
(920,1327,o),
(1011,1246,o),
(1011,1085,cs),
(1011,889,o),
(853,851,o),
(668,851,cs),
(397,851,l)
);
}
);
userData = {
com.typemytype.robofont.layerData = {
};
org.pippin.gimp.org.kernagic = {
lstem = 0;
rstem = 0;
};
org.robofab.postScriptHintData = {
};
};
width = 1373;
},
{
anchors = (
{
name = bottom;
pos = (733,0);
},
{
name = center;
pos = (733,728);
},
{
name = top;
pos = (713,1456);
}
);
background = {
anchors = (
{
name = top;
pos = (712,1456);
}
);
shapes = (
{
closed = 1;
nodes = (
(1269,5,o),
(1395,164,o),
(1395,434,cs),
(1395,646,o),
(1298,748,o),
(1083,779,c),
(1252,812,o),
(1360,939,o),
(1360,1093,cs),
(1360,1420,o),
(1063,1468,o),
(732,1468,cs),
(643,1468,o),
(358,1462,o),
(162,1456,c),
(162,23,l),
(340,10,o),
(496,5,o),
(626,5,cs)
);
},
{
closed = 1;
nodes = (
(640,280,o),
(619,281,o),
(598,282,c),
(598,634,l),
(714,634,ls),
(871,634,o),
(960,630,o),
(960,471,cs),
(960,292,o),
(850,280,o),
(661,280,cs)
);
},
{
closed = 1;
nodes = (
(598,1204,l),
(617,1204,o),
(637,1204,o),
(656,1204,cs),
(821,1204,o),
(895,1194,o),
(895,1033,cs),
(895,932,o),
(835,882,o),
(719,882,cs),
(598,882,l)
);
}
);
};
layerId = "79570A4D-82CC-4E5E-902B-26A7181B4C65";
shapes = (
{
closed = 1;
nodes = (
(1269,5,o),
(1395,164,o),
(1395,434,cs),
(1395,646,o),
(1298,748,o),
(1083,779,c),
(1252,812,o),
(1360,939,o),
(1360,1093,cs),
(1360,1420,o),
(1063,1468,o),
(732,1468,cs),
(643,1468,o),
(358,1462,o),
(162,1456,c),
(162,23,l),
(340,10,o),
(496,5,o),
(626,5,cs)
);
},
{
closed = 1;
nodes = (
(640,280,o),
(619,281,o),
(598,282,c),
(598,634,l),
(714,634,ls),
(871,634,o),
(960,630,o),
(960,471,cs),
(960,292,o),
(850,280,o),
(661,280,cs)
);
},
{
closed = 1;
nodes = (
(598,1204,l),
(617,1204,o),
(637,1204,o),
(656,1204,cs),
(821,1204,o),
(895,1194,o),
(895,1033,cs),
(895,932,o),
(835,882,o),
(719,882,cs),
(598,882,l)
);
}
);
userData = {
com.typemytype.robofont.layerData = {
};
org.pippin.gimp.org.kernagic = {
lstem = 0;
rstem = 0;
};
org.robofab.postScriptHintData = {
};
};
width = 1465;
}
);
unicode = 66;
},
{
glyphname = Bdotaccent;
lastChange = "2023-03-23 12:10:54 +0000";
layers = (
{
background = {
anchors = (
{
name = top;
pos = (685,1456);
}
);
shapes = (
{
closed = 1;
nodes = (
(1135,-13,o),
(1244,130,o),
(1244,400,cs),
(1244,595,o),
(1135,716,o),
(916,761,c),
(1138,825,o),
(1182,942,o),
(1182,1104,cs),
(1182,1342,o),
(1068,1467,o),
(552,1467,cs),
(456,1467,o),
(347,1463,o),
(222,1454,c),
(222,0,l),
(354,-9,o),
(469,-13,o),
(571,-13,cs)
);
},
{
closed = 1;
nodes = (
(517,59,o),
(422,62,o),
(314,67,c),
(314,729,l),
(647,729,ls),
(988,729,o),
(1151,652,o),
(1151,393,cs),
(1151,148,o),
(1070,59,o),
(600,59,cs)
);
},
{
closed = 1;
nodes = (
(314,1386,l),
(412,1390,o),
(499,1393,o),
(574,1393,cs),
(989,1393,o),
(1098,1324,o),
(1098,1098,cs),
(1098,851,o),
(941,803,o),
(730,803,cs),
(314,803,l)
);
},
{
closed = 1;
nodes = (
(736,1707,o),
(759,1732,o),
(759,1780,cs),
(759,1827,o),
(736,1852,o),
(686,1852,cs),
(634,1852,o),
(612,1827,o),
(612,1780,cs),
(612,1732,o),
(634,1707,o),
(686,1707,cs)
);
}
);
};
layerId = "45045840-C2F8-4391-8868-007C921F4A2B";
shapes = (
{
ref = B;
},
{
pos = (498,373);
ref = dotaccentcomb;
}
);
userData = {
com.typemytype.robofont.layerData = {
};
org.robofab.postScriptHintData = {
};
};
width = 1366;
},
{
background = {
anchors = (
{
name = top;
pos = (658,1456);
}
);
shapes = (
{
closed = 1;
nodes = (
(1047,-9,o),
(1242,120,o),
(1242,432,cs),
(1242,612,o),
(1157,738,o),
(942,790,c),
(1127,850,o),
(1190,965,o),
(1190,1098,cs),
(1190,1257,o),
(1155,1464,o),
(622,1464,cs),
(507,1464,o),
(368,1455,o),
(203,1434,c),
(203,8,l),
(335,-3,o),
(453,-9,o),
(557,-9,cs)
);
},
{
closed = 1;
nodes = (
(532,135,o),
(467,138,o),
(397,143,c),
(397,717,l),
(657,717,ls),
(930,717,o),
(1049,635,o),
(1049,427,cs),
(1049,265,o),
(1015,135,o),
(590,135,cs)
);
},
{
closed = 1;
nodes = (
(397,1314,l),
(485,1323,o),
(564,1327,o),
(631,1327,cs),
(920,1327,o),
(1011,1246,o),
(1011,1085,cs),
(1011,889,o),
(853,851,o),
(668,851,cs),
(397,851,l)
);
},
{
closed = 1;
nodes = (
(743,1676,o),
(791,1725,o),
(791,1805,cs),
(791,1882,o),
(743,1930,o),
(659,1930,cs),
(575,1930,o),
(527,1882,o),
(527,1805,cs),
(527,1725,o),
(575,1676,o),
(659,1676,cs)
);
}
);
};
layerId = "FE517A28-BD9F-4180-B9A0-41F76CAB3C17";
shapes = (
{
ref = B;
},
{
pos = (433,374);
ref = dotaccentcomb;
}
);
userData = {
com.typemytype.robofont.layerData = {
};
org.robofab.postScriptHintData = {
};
};
width = 1373;
},
{
background = {
anchors = (
{
name = top;
pos = (712,1456);
}
);
shapes = (
{
closed = 1;
nodes = (
(1269,5,o),
(1395,164,o),
(1395,434,cs),
(1395,646,o),
(1298,748,o),
(1083,779,c),
(1252,812,o),
(1360,939,o),
(1360,1093,cs),
(1360,1420,o),
(1063,1468,o),
(732,1468,cs),
(643,1468,o),
(358,1462,o),
(162,1456,c),
(162,23,l),
(340,10,o),
(496,5,o),
(626,5,cs)
);
},
{
closed = 1;
nodes = (
(640,280,o),
(619,281,o),
(598,282,c),
(598,634,l),
(714,634,ls),
(871,634,o),
(960,630,o),
(960,471,cs),
(960,292,o),
(850,280,o),
(661,280,cs)
);
},
{
closed = 1;
nodes = (
(598,1204,l),
(617,1204,o),
(637,1204,o),
(656,1204,cs),
(821,1204,o),
(895,1194,o),
(895,1033,cs),
(895,932,o),
(835,882,o),
(719,882,cs),
(598,882,l)
);
},
{
closed = 1;
nodes = (
(850,1630,o),
(937,1714,o),
(937,1842,cs),
(937,1962,o),
(850,2045,o),
(714,2045,cs),
(578,2045,o),
(491,1962,o),
(491,1842,cs),
(491,1714,o),
(578,1630,o),
(714,1630,cs)
);
}
);
};
layerId = "79570A4D-82CC-4E5E-902B-26A7181B4C65";
shapes = (
{
ref = B;
},
{
pos = (364,374);
ref = dotaccentcomb;
}
);
userData = {
com.typemytype.robofont.layerData = {
};
org.robofab.postScriptHintData = {
};
};
width = 1465;
}
);
unicode = 7682;
},
{
glyphname = C;
kernLeft = C;
lastChange = "2023-03-23 13:44:01 +0000";
layers = (
{
anchors = (
{
name = bottom;
pos = (767,0);
},
{
name = top;
pos = (792,1455);
}
);
background = {
anchors = (
{
name = bot;
pos = (827,0);
},
{
name = top;
pos = (820,1455);
}
);
shapes = (
{
closed = 1;
nodes = (
(1005,-20,o),
(1191,100,o),
(1269,294,c),
(1209,318,l),
(1196,318,l),
(1127,153,o),
(972,49,o),
(797,49,cs),
(455,49,o),
(241,310,o),
(241,728,cs),
(241,1146,o),
(455,1407,o),
(797,1407,cs),
(972,1407,o),
(1127,1303,o),
(1196,1138,c),
(1210,1138,l),
(1269,1163,l),
(1191,1356,o),
(1005,1476,o),
(797,1476,cs),
(399,1476,o),
(148,1188,o),
(148,728,cs),
(148,268,o),
(399,-20,o),
(797,-20,cs)
);
}
);
};
layerId = "45045840-C2F8-4391-8868-007C921F4A2B";
shapes = (
{
closed = 1;
nodes = (
(1011,-20,o),
(1205,101,o),
(1280,303,c),
(1209,331,l),
(1196,331,l),
(1131,166,o),
(976,60,o),
(800,60,cs),
(466,60,o),
(256,313,o),
(256,728,cs),
(256,1143,o),
(466,1396,o),
(800,1396,cs),
(979,1396,o),
(1132,1287,o),
(1195,1126,c),
(1209,1126,l),
(1279,1154,l),
(1206,1352,o),
(1014,1476,o),
(798,1476,cs),
(401,1476,o),
(149,1190,o),
(149,728,cs),
(149,267,o),
(401,-20,o),
(798,-20,cs)
);
}
);
userData = {
com.typemytype.robofont.layerData = {
};
org.pippin.gimp.org.kernagic = {
lstem = 0;
rstem = 0;
};
org.robofab.postScriptHintData = {
};
};
width = 1377;
},
{
anchors = (
{
name = bottom;
pos = (717,0);
},
{
name = top;
pos = (779,1456);
}
);
background = {
anchors = (
{
name = bot;
pos = (791,1);
},
{
name = top;
pos = (775,1456);
}
);
shapes = (
{
closed = 1;
nodes = (
(1045,-20,o),
(1292,106,o),
(1345,361,c),
(1205,412,l),
(1189,412,l),
(1153,252,o),
(997,133,o),
(814,133,cs),
(535,133,o),
(350,332,o),
(350,729,cs),
(350,1126,o),
(533,1324,o),
(814,1324,cs),
(997,1324,o),
(1149,1208,o),
(1185,1046,c),
(1201,1046,l),
(1341,1097,l),
(1288,1352,o),
(1043,1478,o),
(801,1478,cs),
(412,1478,o),
(152,1205,o),
(152,729,cs),
(152,253,o),
(412,-20,o),
(801,-20,cs)
);
}
);
};
layerId = "FE517A28-BD9F-4180-B9A0-41F76CAB3C17";
shapes = (
{
closed = 1;
nodes = (
(1045,-20,o),
(1292,106,o),
(1345,361,c),
(1205,412,l),
(1189,412,l),
(1153,252,o),
(997,133,o),
(814,133,cs),
(535,133,o),
(350,332,o),
(350,729,cs),
(350,1126,o),
(533,1324,o),
(814,1324,cs),
(997,1324,o),
(1149,1208,o),
(1185,1046,c),
(1201,1046,l),
(1341,1097,l),
(1288,1352,o),
(1043,1478,o),
(801,1478,cs),
(412,1478,o),
(152,1205,o),
(152,729,cs),
(152,253,o),
(412,-20,o),
(801,-20,cs)
);
}
);
userData = {
com.typemytype.robofont.layerData = {
};
org.pippin.gimp.org.kernagic = {
lstem = 0;
rstem = 0;
};
org.robofab.postScriptHintData = {
};
};
width = 1433;
},
{
anchors = (
{
name = bottom;
pos = (821,0);
},
{
name = top;
pos = (856,1456);
}
);
background = {
anchors = (
{
name = bot;
pos = (882,-1);
},
{
name = top;
pos = (913,1456);
}
);
shapes = (
{
closed = 1;
nodes = (
(1389,-20,o),
(1495,305,o),
(1527,447,c),
(1206,559,l),
(1175,559,l),
(1141,391,o),
(1071,269,o),
(877,269,cs),
(704,269,o),
(573,372,o),
(573,734,cs),
(573,1136,o),
(747,1186,o),
(886,1186,cs),
(1076,1186,o),
(1141,1060,o),
(1176,894,c),
(1207,894,l),
(1528,1005,l),
(1497,1142,o),
(1370,1478,o),
(865,1478,cs),
(377,1478,o),
(105,1203,o),
(105,734,cs),
(105,249,o),
(378,-20,o),
(867,-20,cs)
);
}
);
};
layerId = "79570A4D-82CC-4E5E-902B-26A7181B4C65";
shapes = (
{
closed = 1;
nodes = (
(1389,-20,o),
(1495,305,o),
(1527,447,c),
(1206,559,l),
(1175,559,l),
(1141,391,o),
(1071,269,o),
(877,269,cs),
(704,269,o),
(573,372,o),
(573,734,cs),
(573,1136,o),
(747,1186,o),
(886,1186,cs),
(1076,1186,o),
(1141,1060,o),
(1176,894,c),
(1207,894,l),
(1528,1005,l),
(1497,1142,o),
(1370,1478,o),
(865,1478,cs),
(377,1478,o),
(105,1203,o),
(105,734,cs),
(105,249,o),
(378,-20,o),
(867,-20,cs)
);
}
);
userData = {
com.typemytype.robofont.layerData = {
};
org.pippin.gimp.org.kernagic = {
lstem = 0;
rstem = 0;
};
org.robofab.postScriptHintData = {
};
};
width = 1641;
}
);
unicode = 67;
},
{
glyphname = Cacute;
kernLeft = C;
lastChange = "2023-03-23 12:10:54 +0000";
layers = (
{
background = {
anchors = (
{
name = bot;
pos = (827,0);
},
{
name = top;
pos = (820,1455);
}
);
shapes = (
{
closed = 1;
nodes = (
(1005,-20,o),
(1191,100,o),
(1269,294,c),
(1209,318,l),
(1196,318,l),
(1127,153,o),
(972,49,o),
(797,49,cs),
(455,49,o),
(241,310,o),
(241,728,cs),
(241,1146,o),
(455,1407,o),
(797,1407,cs),
(972,1407,o),
(1127,1303,o),
(1196,1138,c),
(1210,1138,l),
(1269,1163,l),
(1191,1356,o),
(1005,1476,o),
(797,1476,cs),
(399,1476,o),
(148,1188,o),
(148,728,cs),
(148,268,o),
(399,-20,o),
(797,-20,cs)
);
},
{
closed = 1;
nodes = (
(845,1633,l),
(1110,1984,l),
(1005,1984,l),
(791,1633,l)
);
}
);
};
layerId = "45045840-C2F8-4391-8868-007C921F4A2B";
shapes = (
{
ref = C;
},
{
pos = (540,373);
ref = acutecomb;
}
);
userData = {
com.typemytype.robofont.layerData = {
};
org.robofab.postScriptHintData = {
};
};
width = 1377;
},
{
background = {
anchors = (
{
name = bot;
pos = (791,1);
},
{
name = top;
pos = (775,1456);
}
);
shapes = (
{
closed = 1;
nodes = (
(1045,-20,o),
(1292,106,o),
(1345,361,c),
(1205,412,l),
(1189,412,l),
(1153,252,o),
(997,133,o),
(814,133,cs),
(535,133,o),
(350,332,o),
(350,729,cs),
(350,1126,o),
(533,1324,o),
(814,1324,cs),
(997,1324,o),
(1149,1208,o),
(1185,1046,c),
(1201,1046,l),
(1341,1097,l),
(1288,1352,o),
(1043,1478,o),
(801,1478,cs),
(412,1478,o),
(152,1205,o),
(152,729,cs),
(152,253,o),
(412,-20,o),
(801,-20,cs)
);
},
{
closed = 1;
nodes = (
(831,1583,l),
(1130,1960,l),
(908,1960,l),
(712,1583,l)
);
}
);
};
layerId = "FE517A28-BD9F-4180-B9A0-41F76CAB3C17";
shapes = (
{
ref = C;
},
{
pos = (421,374);
ref = acutecomb;
}
);
userData = {
com.typemytype.robofont.layerData = {
};
org.robofab.postScriptHintData = {
};
};
width = 1433;
},
{
background = {
anchors = (
{
name = bot;
pos = (882,-1);
},
{
name = top;
pos = (913,1456);
}
);
shapes = (
{
closed = 1;
nodes = (
(1389,-20,o),
(1495,305,o),
(1527,447,c),
(1206,559,l),
(1175,559,l),
(1141,391,o),
(1071,269,o),
(877,269,cs),
(704,269,o),
(573,372,o),
(573,734,cs),
(573,1136,o),
(747,1186,o),
(886,1186,cs),
(1076,1186,o),
(1141,1060,o),
(1176,894,c),
(1207,894,l),
(1528,1005,l),
(1497,1142,o),
(1370,1478,o),
(865,1478,cs),
(377,1478,o),
(105,1203,o),
(105,734,cs),
(105,249,o),
(378,-20,o),
(867,-20,cs)
);
},
{
closed = 1;
nodes = (
(1019,1581,l),
(1370,1997,l),
(966,1997,l),
(797,1581,l)
);
}
);
};
layerId = "79570A4D-82CC-4E5E-902B-26A7181B4C65";
shapes = (
{
ref = C;
},
{
pos = (317,374);
ref = acutecomb;
}
);
userData = {
com.typemytype.robofont.layerData = {
};
org.robofab.postScriptHintData = {
};
};
width = 1641;
}
);
unicode = 262;
},
{
glyphname = Ccaron;
kernLeft = C;
lastChange = "2023-03-23 12:10:54 +0000";
layers = (
{
background = {
anchors = (
{
name = bot;
pos = (827,0);
},
{
name = top;
pos = (820,1455);
}
);
shapes = (
{
closed = 1;
nodes = (
(1005,-20,o),
(1191,100,o),
(1269,294,c),
(1209,318,l),
(1196,318,l),
(1127,153,o),
(972,49,o),
(797,49,cs),
(455,49,o),
(241,310,o),
(241,728,cs),
(241,1146,o),
(455,1407,o),
(797,1407,cs),
(972,1407,o),
(1127,1303,o),
(1196,1138,c),
(1210,1138,l),
(1269,1163,l),
(1191,1356,o),
(1005,1476,o),
(797,1476,cs),
(399,1476,o),
(148,1188,o),
(148,728,cs),
(148,268,o),
(399,-20,o),
(797,-20,cs)
);
},
{
closed = 1;
nodes = (
(860,1626,l),
(1042,1930,l),
(982,1930,l),
(810,1683,l),
(638,1930,l),
(576,1930,l),
(760,1626,l)
);
}
);
};
layerId = "45045840-C2F8-4391-8868-007C921F4A2B";
shapes = (
{
ref = C;
},
{
pos = (378,373);
ref = caroncomb;
}
);
userData = {
com.typemytype.robofont.layerData = {
};
org.robofab.postScriptHintData = {
};
};
width = 1377;
},
{
background = {
anchors = (
{
name = bot;
pos = (791,1);
},
{
name = top;
pos = (775,1456);
}
);
shapes = (
{
closed = 1;
nodes = (
(1045,-20,o),
(1292,106,o),
(1345,361,c),
(1205,412,l),
(1189,412,l),
(1153,252,o),
(997,133,o),
(814,133,cs),
(535,133,o),
(350,332,o),
(350,729,cs),
(350,1126,o),
(533,1324,o),
(814,1324,cs),
(997,1324,o),
(1149,1208,o),
(1185,1046,c),
(1201,1046,l),
(1341,1097,l),
(1288,1352,o),
(1043,1478,o),
(801,1478,cs),
(412,1478,o),
(152,1205,o),
(152,729,cs),
(152,253,o),
(412,-20,o),
(801,-20,cs)
);
},
{
closed = 1;
nodes = (
(858,1612,l),
(1054,1959,l),
(897,1959,l),
(762,1730,l),
(625,1959,l),
(468,1959,l),
(665,1612,l)
);
}
);
};
layerId = "FE517A28-BD9F-4180-B9A0-41F76CAB3C17";
shapes = (
{
ref = C;
},
{
pos = (349,374);
ref = caroncomb;
}
);
userData = {
com.typemytype.robofont.layerData = {
};
org.robofab.postScriptHintData = {
};
};
width = 1433;
},
{
background = {
anchors = (
{
name = bot;
pos = (882,-1);
},
{
name = top;
pos = (913,1456);
}
);
shapes = (
{
closed = 1;
nodes = (
(1389,-20,o),
(1495,305,o),
(1527,447,c),
(1206,559,l),
(1175,559,l),
(1141,391,o),
(1071,269,o),
(877,269,cs),
(704,269,o),
(573,372,o),
(573,734,cs),
(573,1136,o),
(747,1186,o),
(886,1186,cs),
(1076,1186,o),
(1141,1060,o),
(1176,894,c),
(1207,894,l),
(1528,1005,l),
(1497,1142,o),
(1370,1478,o),
(865,1478,cs),
(377,1478,o),
(105,1203,o),
(105,734,cs),
(105,249,o),
(378,-20,o),
(867,-20,cs)
);
},
{
closed = 1;
nodes = (
(1064,1663,l),
(1282,2074,l),
(976,2074,l),
(896,1872,l),
(815,2074,l),
(509,2074,l),
(726,1663,l)
);
}
);
};
layerId = "79570A4D-82CC-4E5E-902B-26A7181B4C65";
shapes = (
{
ref = C;
},
{
pos = (398,374);
ref = caroncomb;
}
);
userData = {
com.typemytype.robofont.layerData = {
};
org.robofab.postScriptHintData = {
};
};
width = 1641;
}
);
unicode = 268;
},
{
glyphname = Ccedilla;
kernLeft = C;
lastChange = "2023-03-23 13:44:01 +0000";
layers = (
{
background = {
anchors = (
{
name = bot;
pos = (827,0);
},
{
name = top;
pos = (820,1455);
}
);
shapes = (
{
closed = 1;
nodes = (
(1005,-20,o),
(1191,100,o),
(1269,294,c),
(1209,318,l),
(1196,318,l),
(1127,153,o),
(972,49,o),
(797,49,cs),
(455,49,o),
(241,310,o),
(241,728,cs),
(241,1146,o),
(455,1407,o),
(797,1407,cs),
(972,1407,o),
(1127,1303,o),
(1196,1138,c),
(1210,1138,l),
(1269,1163,l),
(1191,1356,o),
(1005,1476,o),
(797,1476,cs),
(399,1476,o),
(148,1188,o),
(148,728,cs),
(148,268,o),
(399,-20,o),
(797,-20,cs)
);
},
{
closed = 1;
nodes = (
(940,-387,o),
(1043,-312,o),
(1043,-199,cs),
(1043,-92,o),
(962,-43,o),
(871,-43,cs),
(840,-43,o),
(808,-49,o),
(778,-60,c),
(779,-94,l),
(807,-88,o),
(831,-86,o),
(852,-86,cs),
(959,-86,o),
(980,-152,o),
(980,-199,cs),
(980,-297,o),
(891,-339,o),
(802,-339,cs),
(754,-339,o),
(706,-327,o),
(668,-305,c),
(647,-356,l),
(690,-376,o),
(740,-387,o),
(795,-387,cs)
);
}
);
};
layerId = "45045840-C2F8-4391-8868-007C921F4A2B";
shapes = (
{
ref = C;
},
{
pos = (454,0);
ref = cedillacomb;
}
);
userData = {
com.typemytype.robofont.layerData = {
};
org.robofab.postScriptHintData = {
};
};
width = 1377;
},
{
background = {
anchors = (
{
name = bot;
pos = (791,1);
},
{
name = top;
pos = (775,1456);
}
);
shapes = (
{
closed = 1;
nodes = (
(1045,-20,o),
(1292,106,o),
(1345,361,c),
(1205,412,l),
(1189,412,l),
(1153,252,o),
(997,133,o),
(814,133,cs),
(535,133,o),
(350,332,o),
(350,729,cs),
(350,1126,o),
(533,1324,o),
(814,1324,cs),
(997,1324,o),
(1149,1208,o),
(1185,1046,c),
(1201,1046,l),
(1341,1097,l),
(1288,1352,o),
(1043,1478,o),
(801,1478,cs),
(412,1478,o),
(152,1205,o),
(152,729,cs),
(152,253,o),
(412,-20,o),
(801,-20,cs)
);
},
{
closed = 1;
nodes = (
(886,-412,o),
(994,-336,o),
(994,-213,cs),
(994,-104,o),
(920,-50,o),
(825,-50,cs),
(792,-50,o),
(756,-56,o),
(720,-70,c),
(721,-122,l),
(742,-118,o),
(760,-117,o),
(776,-117,cs),
(861,-117,o),
(884,-163,o),
(884,-207,cs),
(884,-282,o),
(818,-321,o),
(737,-321,cs),
(699,-321,o),
(657,-313,o),
(616,-294,c),
(585,-379,l),
(635,-401,o),
(688,-412,o),
(743,-412,cs)
);
}
);
};
layerId = "FE517A28-BD9F-4180-B9A0-41F76CAB3C17";
shapes = (
{
ref = C;
},
{
pos = (339,0);
ref = cedillacomb;
}
);
userData = {
com.typemytype.robofont.layerData = {
};
org.robofab.postScriptHintData = {
};
};
width = 1433;
},
{
background = {
anchors = (
{
name = bot;
pos = (882,-1);
},
{
name = top;
pos = (913,1456);
}
);
shapes = (
{
closed = 1;
nodes = (
(1389,-20,o),
(1495,305,o),
(1527,447,c),
(1206,559,l),
(1175,559,l),
(1141,391,o),
(1071,269,o),
(877,269,cs),
(704,269,o),
(573,372,o),
(573,734,cs),
(573,1136,o),
(747,1186,o),
(886,1186,cs),
(1076,1186,o),
(1141,1060,o),
(1176,894,c),
(1207,894,l),
(1528,1005,l),
(1497,1142,o),
(1370,1478,o),
(865,1478,cs),
(377,1478,o),
(105,1203,o),
(105,734,cs),
(105,249,o),
(378,-20,o),
(867,-20,cs)
);
},
{
closed = 1;
nodes = (
(951,-451,o),
(1066,-373,o),
(1066,-235,cs),
(1066,-124,o),
(1001,-62,o),
(900,-62,cs),
(863,-62,o),
(822,-70,o),
(777,-87,c),
(777,-165,l),
(786,-164,o),
(794,-164,o),
(802,-164,cs),
(856,-164,o),
(883,-182,o),
(884,-225,cs),
(884,-259,o),
(858,-299,o),
(783,-299,cs),
(756,-299,o),
(722,-293,o),
(682,-281,c),
(635,-414,l),
(695,-439,o),
(755,-451,o),
(810,-451,cs)
);
}
);
};
layerId = "79570A4D-82CC-4E5E-902B-26A7181B4C65";
shapes = (
{
ref = C;
},
{
pos = (298,0);
ref = cedillacomb;
}
);
userData = {
com.typemytype.robofont.layerData = {
};
org.robofab.postScriptHintData = {
};
};
width = 1641;
}
);
unicode = 199;
},
{
glyphname = Ccircumflex;
lastChange = "2023-03-23 12:10:54 +0000";
layers = (
{
background = {
anchors = (
{
name = bot;
pos = (827,0);
},
{
name = top;
pos = (820,1455);
}
);
shapes = (
{
closed = 1;
nodes = (
(1005,-20,o),
(1191,100,o),
(1269,294,c),
(1209,318,l),
(1196,318,l),
(1127,153,o),
(972,49,o),
(797,49,cs),
(455,49,o),
(241,310,o),
(241,728,cs),
(241,1146,o),
(455,1407,o),
(797,1407,cs),
(972,1407,o),
(1127,1303,o),
(1196,1138,c),
(1210,1138,l),
(1269,1163,l),
(1191,1356,o),
(1005,1476,o),
(797,1476,cs),
(399,1476,o),
(148,1188,o),
(148,728,cs),
(148,268,o),
(399,-20,o),
(797,-20,cs)
);
},
{
closed = 1;
nodes = (
(638,1626,l),
(810,1873,l),
(982,1626,l),
(1042,1626,l),
(860,1930,l),
(760,1930,l),
(576,1626,l)
);
}
);
};
layerId = "45045840-C2F8-4391-8868-007C921F4A2B";
shapes = (
{
ref = C;
},
{
pos = (378,373);
ref = circumflexcomb;
}
);
userData = {
com.typemytype.robofont.layerData = {
};
org.robofab.postScriptHintData = {
};
};
width = 1377;
},
{
background = {
anchors = (
{
name = bot;
pos = (791,1);
},
{
name = top;
pos = (775,1456);
}
);
shapes = (
{
closed = 1;
nodes = (
(1045,-20,o),
(1292,106,o),
(1345,361,c),
(1205,412,l),
(1189,412,l),
(1153,252,o),
(997,133,o),
(814,133,cs),
(535,133,o),
(350,332,o),
(350,729,cs),
(350,1126,o),
(533,1324,o),
(814,1324,cs),
(997,1324,o),
(1149,1208,o),
(1185,1046,c),
(1201,1046,l),
(1341,1097,l),
(1288,1352,o),
(1043,1478,o),
(801,1478,cs),
(412,1478,o),
(152,1205,o),
(152,729,cs),
(152,253,o),
(412,-20,o),
(801,-20,cs)
);
},
{
closed = 1;
nodes = (
(634,1625,l),
(771,1854,l),
(906,1625,l),
(1063,1625,l),
(867,1972,l),
(674,1972,l),
(477,1625,l)
);
}
);
};
layerId = "FE517A28-BD9F-4180-B9A0-41F76CAB3C17";
shapes = (
{
ref = C;
},
{
pos = (350,374);
ref = circumflexcomb;
}
);
userData = {
com.typemytype.robofont.layerData = {
};
org.robofab.postScriptHintData = {
};
};
width = 1433;
},
{
background = {
anchors = (
{
name = bot;
pos = (882,-1);
},
{
name = top;
pos = (913,1456);
}
);
shapes = (
{
closed = 1;
nodes = (
(1389,-20,o),
(1495,305,o),
(1527,447,c),
(1206,559,l),
(1175,559,l),
(1141,391,o),
(1071,269,o),
(877,269,cs),
(704,269,o),
(573,372,o),
(573,734,cs),
(573,1136,o),
(747,1186,o),
(886,1186,cs),
(1076,1186,o),
(1141,1060,o),
(1176,894,c),
(1207,894,l),
(1528,1005,l),
(1497,1142,o),
(1370,1478,o),
(865,1478,cs),
(377,1478,o),
(105,1203,o),
(105,734,cs),
(105,249,o),
(378,-20,o),
(867,-20,cs)
);
},
{
closed = 1;
nodes = (
(836,1696,l),
(916,1898,l),
(996,1696,l),
(1302,1696,l),
(1085,2107,l),
(747,2107,l),
(530,1696,l)
);
}
);
};
layerId = "79570A4D-82CC-4E5E-902B-26A7181B4C65";
shapes = (
{
ref = C;
},
{
pos = (401,374);
ref = circumflexcomb;
}
);
userData = {
com.typemytype.robofont.layerData = {
};
org.robofab.postScriptHintData = {
};
};
width = 1641;
}
);
unicode = 264;
},
{
glyphname = Cdotaccent;
lastChange = "2023-03-23 12:10:54 +0000";
layers = (
{
background = {
anchors = (
{
name = bot;
pos = (827,0);
},
{
name = top;
pos = (820,1455);
}
);
shapes = (
{
closed = 1;
nodes = (
(1005,-20,o),
(1191,100,o),
(1269,294,c),
(1209,318,l),
(1196,318,l),
(1127,153,o),
(972,49,o),
(797,49,cs),
(455,49,o),
(241,310,o),
(241,728,cs),
(241,1146,o),
(455,1407,o),
(797,1407,cs),
(972,1407,o),
(1127,1303,o),
(1196,1138,c),
(1210,1138,l),
(1269,1163,l),
(1191,1356,o),
(1005,1476,o),
(797,1476,cs),
(399,1476,o),
(148,1188,o),
(148,728,cs),
(148,268,o),
(399,-20,o),
(797,-20,cs)
);
},
{
closed = 1;
nodes = (
(871,1706,o),
(894,1731,o),
(894,1779,cs),
(894,1826,o),
(871,1851,o),
(821,1851,cs),
(769,1851,o),
(747,1826,o),
(747,1779,cs),
(747,1731,o),
(769,1706,o),
(821,1706,cs)
);
}
);
};
layerId = "45045840-C2F8-4391-8868-007C921F4A2B";
shapes = (
{
ref = C;
},
{
pos = (637,373);
ref = dotaccentcomb;
}
);
userData = {
com.typemytype.robofont.layerData = {
};
org.robofab.postScriptHintData = {
};
};
width = 1377;
},
{
background = {
anchors = (
{
name = bot;
pos = (791,1);
},
{
name = top;
pos = (775,1456);
}
);
shapes = (
{
closed = 1;
nodes = (
(1045,-20,o),
(1292,106,o),
(1345,361,c),
(1205,412,l),
(1189,412,l),
(1153,252,o),
(997,133,o),
(814,133,cs),
(535,133,o),
(350,332,o),
(350,729,cs),
(350,1126,o),
(533,1324,o),
(814,1324,cs),
(997,1324,o),
(1149,1208,o),
(1185,1046,c),
(1201,1046,l),
(1341,1097,l),
(1288,1352,o),
(1043,1478,o),
(801,1478,cs),
(412,1478,o),
(152,1205,o),
(152,729,cs),
(152,253,o),
(412,-20,o),
(801,-20,cs)
);
},
{
closed = 1;
nodes = (
(860,1676,o),
(908,1725,o),
(908,1805,cs),
(908,1882,o),
(860,1930,o),
(776,1930,cs),
(692,1930,o),
(644,1882,o),
(644,1805,cs),
(644,1725,o),
(692,1676,o),
(776,1676,cs)
);
}
);
};
layerId = "FE517A28-BD9F-4180-B9A0-41F76CAB3C17";
shapes = (
{
ref = C;
},
{
pos = (555,374);
ref = dotaccentcomb;
}
);
userData = {
com.typemytype.robofont.layerData = {
};
org.robofab.postScriptHintData = {
};
};
width = 1433;
},
{
background = {
anchors = (
{
name = bot;
pos = (882,-1);
},
{
name = top;
pos = (913,1456);
}
);
shapes = (
{
closed = 1;
nodes = (
(1389,-20,o),
(1495,305,o),
(1527,447,c),
(1206,559,l),
(1175,559,l),
(1141,391,o),
(1071,269,o),
(877,269,cs),
(704,269,o),
(573,372,o),
(573,734,cs),
(573,1136,o),
(747,1186,o),
(886,1186,cs),
(1076,1186,o),
(1141,1060,o),
(1176,894,c),
(1207,894,l),
(1528,1005,l),
(1497,1142,o),
(1370,1478,o),
(865,1478,cs),
(377,1478,o),
(105,1203,o),
(105,734,cs),
(105,249,o),
(378,-20,o),
(867,-20,cs)
);
},
{
closed = 1;
nodes = (
(1051,1630,o),
(1138,1714,o),
(1138,1842,cs),
(1138,1962,o),
(1051,2045,o),
(915,2045,cs),
(779,2045,o),
(692,1962,o),
(692,1842,cs),
(692,1714,o),
(779,1630,o),
(915,1630,cs)
);
}
);
};
layerId = "79570A4D-82CC-4E5E-902B-26A7181B4C65";
shapes = (
{
ref = C;
},
{
pos = (507,374);
ref = dotaccentcomb;
}
);
userData = {
com.typemytype.robofont.layerData = {
};
org.robofab.postScriptHintData = {
};
};
width = 1641;
}
);
unicode = 266;
},
{
glyphname = D;
kernRight = D;
lastChange = "2023-03-23 12:10:17 +0000";
layers = (
{
anchors = (
{
name = bottom;
pos = (761,0);
},
{
name = center;
pos = (761,728);
},
{
name = top;
pos = (736,1455);
}
);
background = {
anchors = (
{
name = bot;
pos = (765,0);
},
{
name = top;
pos = (762,1455);
}
);
shapes = (
{
closed = 1;
nodes = (
(1180,-10,o),
(1378,221,o),
(1378,729,cs),
(1378,1241,o),
(1190,1468,o),
(530,1468,cs),
(437,1468,o),
(335,1464,o),
(222,1455,c),
(222,0,l),
(319,-6,o),
(408,-10,o),
(490,-10,cs)
);
},
{
closed = 1;
nodes = (
(459,58,o),
(389,61,o),
(314,66,c),
(314,1388,l),
(385,1392,o),
(451,1394,o),
(513,1394,cs),
(1112,1394,o),
(1285,1206,o),
(1285,724,cs),
(1285,273,o),
(1115,58,o),
(524,58,cs)
);
}
);
};
layerId = "45045840-C2F8-4391-8868-007C921F4A2B";
shapes = (
{
closed = 1;
nodes = (
(1173,-10,o),
(1373,231,o),
(1373,731,cs),
(1373,1232,o),
(1191,1467,o),
(536,1467,cs),
(436,1467,o),
(330,1462,o),
(219,1452,c),
(219,1,l),
(318,-6,o),
(417,-10,o),
(492,-10,cs)
);
},
{
closed = 1;
nodes = (
(468,67,o),
(397,70,o),
(325,75,c),
(325,1378,l),
(400,1383,o),
(474,1385,o),
(524,1385,cs),
(1104,1385,o),
(1267,1191,o),
(1267,726,cs),
(1267,288,o),
(1104,67,o),
(528,67,cs)
);
}
);
userData = {
com.fontlab.hintData = {
hhints = (
{
position = 0;
width = 94;
},
{
position = 1355;
width = 94;
}
);
vhints = (
{
position = 1280;
width = 122;
}
);
};
com.typemytype.robofont.layerData = {
};
org.pippin.gimp.org.kernagic = {
lstem = 0;
rstem = 0;
};
org.robofab.postScriptHintData = {
};
};
width = 1521;
},
{
anchors = (
{
name = bottom;
pos = (750,0);
},
{
name = center;
pos = (750,728);
},
{
name = top;
pos = (697,1456);
}
);
background = {
anchors = (
{
name = bot;
pos = (778,-1);
},
{
name = top;
pos = (742,1456);
}
);
shapes = (
{
closed = 1;
nodes = (
(1138,-11,o),
(1347,297,o),
(1347,745,cs),
(1347,1175,o),
(1201,1462,o),
(581,1462,cs),
(471,1462,o),
(345,1453,o),
(203,1434,c),
(203,10,l),
(314,-4,o),
(416,-11,o),
(509,-11,cs)
);
},
{
closed = 1;
nodes = (
(510,126,o),
(455,129,o),
(397,135,c),
(397,1313,l),
(471,1321,o),
(537,1325,o),
(598,1325,cs),
(1053,1325,o),
(1154,1098,o),
(1154,740,cs),
(1154,383,o),
(1038,126,o),
(560,126,cs)
);
}
);
};
layerId = "FE517A28-BD9F-4180-B9A0-41F76CAB3C17";
shapes = (
{
closed = 1;
nodes = (
(1138,-11,o),
(1347,297,o),
(1347,745,cs),
(1347,1175,o),
(1201,1462,o),
(581,1462,cs),
(471,1462,o),
(345,1453,o),
(203,1434,c),
(203,10,l),
(314,-4,o),
(416,-11,o),
(509,-11,cs)
);
},
{
closed = 1;
nodes = (
(510,126,o),
(455,129,o),
(397,135,c),
(397,1313,l),
(471,1321,o),
(537,1325,o),
(598,1325,cs),
(1053,1325,o),
(1154,1098,o),
(1154,740,cs),
(1154,383,o),
(1038,126,o),
(560,126,cs)
);
}
);
userData = {
com.fontlab.hintData = {
hhints = (
{
position = 0;
width = 94;
},
{
position = 1355;
width = 94;
}
);
vhints = (
{
position = 1280;
width = 122;
}
);
};
com.typemytype.robofont.layerData = {
};
org.pippin.gimp.org.kernagic = {
lstem = 0;
rstem = 0;
};
org.robofab.postScriptHintData = {
};
};
width = 1500;
},
{
anchors = (
{
name = bottom;
pos = (786,0);
},
{
name = center;
pos = (786,728);
},
{
name = top;
pos = (746,1451);
}
);
background = {
anchors = (
{
name = bot;
pos = (767,1);
},
{
name = top;
pos = (831,1456);
}
);
shapes = (
{
closed = 1;
nodes = (
(1247,-12,o),
(1466,303,o),
(1466,762,cs),
(1466,1306,o),
(1192,1468,o),
(493,1468,cs),
(392,1468,o),
(281,1466,o),
(162,1460,c),
(162,4,l),
(280,-7,o),
(388,-12,o),
(487,-12,cs)
);
},
{
closed = 1;
nodes = (
(603,300,o),
(601,300,o),
(598,300,c),
(598,1181,l),
(600,1181,o),
(602,1181,o),
(604,1181,cs),
(1018,1181,o),
(1047,964,o),
(1047,757,cs),
(1047,467,o),
(930,300,o),
(606,300,cs)
);
}
);
};
layerId = "79570A4D-82CC-4E5E-902B-26A7181B4C65";
shapes = (
{
closed = 1;
nodes = (
(1247,-12,o),
(1466,303,o),
(1466,762,cs),
(1466,1306,o),
(1192,1468,o),
(493,1468,cs),
(392,1468,o),
(281,1466,o),
(162,1460,c),
(162,4,l),
(280,-7,o),
(388,-12,o),
(487,-12,cs)
);
},
{
closed = 1;
nodes = (
(603,300,o),
(601,300,o),
(598,300,c),
(598,1181,l),
(600,1181,o),
(602,1181,o),
(604,1181,cs),
(1018,1181,o),
(1047,964,o),
(1047,757,cs),
(1047,467,o),
(930,300,o),
(606,300,cs)
);
}
);
userData = {
com.fontlab.hintData = {
hhints = (
{
position = 0;
width = 94;
},
{
position = 1355;
width = 94;
}
);
vhints = (
{
position = 1280;
width = 122;
}
);
};
com.typemytype.robofont.layerData = {
};
org.pippin.gimp.org.kernagic = {
lstem = 0;
rstem = 0;
};
org.robofab.postScriptHintData = {
};
};
width = 1571;
}
);
unicode = 68;
},
{
glyphname = DZ;
lastChange = "2023-03-23 12:10:17 +0000";
layers = (
{
background = {
anchors = (
{
name = bot;
pos = (2168,0);
},
{
name = top;
pos = (2187,1455);
}
);
shapes = (
{
closed = 1;
nodes = (
(1180,-10,o),
(1378,221,o),
(1378,729,cs),
(1378,1241,o),
(1190,1468,o),
(530,1468,cs),
(437,1468,o),
(335,1464,o),
(222,1455,c),
(222,0,l),
(319,-6,o),
(408,-10,o),
(490,-10,cs)
);
},
{
closed = 1;
nodes = (
(459,58,o),
(389,61,o),
(314,66,c),
(314,1388,l),
(385,1392,o),
(451,1394,o),
(513,1394,cs),
(1112,1394,o),
(1285,1206,o),
(1285,724,cs),
(1285,273,o),
(1115,58,o),
(524,58,cs)
);
},
{
closed = 1;
nodes = (
(2600,0,l),
(2612,69,l),
(1745,69,l),
(2606,1386,l),
(2594,1455,l),
(1718,1455,l),
(1718,1384,l),
(2518,1384,l),
(1669,85,l),
(1669,0,l)
);
}
);
};
layerId = "45045840-C2F8-4391-8868-007C921F4A2B";
shapes = (
{
ref = D;
},
{
pos = (1521,0);
ref = Z;
}
);
userData = {
com.typemytype.robofont.layerData = {
};
org.pippin.gimp.org.kernagic = {
lstem = 0;
rstem = 0;
};
org.robofab.postScriptHintData = {
};
};
width = 2722;
},
{
background = {
anchors = (
{
name = bot;
pos = (2149,0);
},
{
name = top;
pos = (2166,1456);
}
);
shapes = (
{
closed = 1;
nodes = (
(1138,-11,o),
(1347,297,o),
(1347,745,cs),
(1347,1175,o),
(1201,1462,o),
(581,1462,cs),
(471,1462,o),
(345,1453,o),
(203,1434,c),
(203,10,l),
(314,-4,o),
(416,-11,o),
(509,-11,cs)
);
},
{
closed = 1;
nodes = (
(510,126,o),
(455,129,o),
(397,135,c),
(397,1313,l),
(471,1321,o),
(537,1325,o),
(598,1325,cs),
(1053,1325,o),
(1154,1098,o),
(1154,740,cs),
(1154,383,o),
(1038,126,o),
(560,126,cs)
);
},
{
closed = 1;
nodes = (
(2624,0,l),
(2630,146,l),
(1814,146,l),
(2622,1324,l),
(2616,1456,l),
(1622,1456,l),
(1624,1311,l),
(2405,1311,l),
(1592,133,l),
(1592,0,l)
);
}
);
};
layerId = "FE517A28-BD9F-4180-B9A0-41F76CAB3C17";
shapes = (
{
ref = D;
},
{
pos = (1500,0);
ref = Z;
}
);
userData = {
com.typemytype.robofont.layerData = {
};
org.pippin.gimp.org.kernagic = {
lstem = 0;
rstem = 0;
};
org.robofab.postScriptHintData = {
};
};
width = 2690;
},
{
background = {
anchors = (
{
name = bot;
pos = (2154,0);
},
{
name = top;
pos = (2204,1456);
}
);
shapes = (
{
closed = 1;
nodes = (
(1247,-12,o),
(1466,303,o),
(1466,762,cs),
(1466,1306,o),
(1192,1468,o),
(493,1468,cs),
(392,1468,o),
(281,1466,o),
(162,1460,c),
(162,4,l),
(280,-7,o),
(388,-12,o),
(487,-12,cs)
);
},
{
closed = 1;
nodes = (
(603,300,o),
(601,300,o),
(598,300,c),
(598,1181,l),
(600,1181,o),
(602,1181,o),
(604,1181,cs),
(1018,1181,o),
(1047,964,o),
(1047,757,cs),
(1047,467,o),
(930,300,o),
(606,300,cs)
);
},
{
closed = 1;
nodes = (
(2777,0,l),
(2757,267,l),
(2199,267,l),
(2737,1219,l),
(2739,1456,l),
(1685,1456,l),
(1706,1187,l),
(2269,1187,l),
(1683,216,l),
(1683,0,l)
);
}
);
};
layerId = "79570A4D-82CC-4E5E-902B-26A7181B4C65";
shapes = (
{
ref = D;
},
{
pos = (1571,0);
ref = Z;
}
);
userData = {
com.typemytype.robofont.layerData = {
};
org.pippin.gimp.org.kernagic = {
lstem = 0;
rstem = 0;
};
org.robofab.postScriptHintData = {
};
};
width = 2860;
}
);
unicode = 497;
},
{
glyphname = DZcaron;
lastChange = "2023-03-23 12:10:54 +0000";
layers = (
{
background = {
anchors = (
{
name = bot;
pos = (2168,0);
},
{
name = top;
pos = (2187,1455);
}
);
shapes = (
{
closed = 1;
nodes = (
(1180,-10,o),
(1378,221,o),
(1378,729,cs),
(1378,1241,o),
(1190,1468,o),
(530,1468,cs),
(437,1468,o),
(335,1464,o),
(222,1455,c),
(222,0,l),
(319,-6,o),
(408,-10,o),
(490,-10,cs)
);
},
{
closed = 1;
nodes = (
(459,58,o),
(389,61,o),
(314,66,c),
(314,1388,l),
(385,1392,o),
(451,1394,o),
(513,1394,cs),
(1112,1394,o),
(1285,1206,o),
(1285,724,cs),
(1285,273,o),
(1115,58,o),
(524,58,cs)
);
},
{
closed = 1;
nodes = (
(2600,0,l),
(2612,69,l),
(1745,69,l),
(2606,1386,l),
(2594,1455,l),
(1718,1455,l),
(1718,1384,l),
(2518,1384,l),
(1669,85,l),
(1669,0,l)
);
},
{
closed = 1;
nodes = (
(2227,1626,l),
(2409,1930,l),
(2349,1930,l),
(2177,1683,l),
(2005,1930,l),
(1943,1930,l),
(2127,1626,l)
);
}
);
};
layerId = "45045840-C2F8-4391-8868-007C921F4A2B";
shapes = (
{
ref = DZ;
},
{
pos = (1707,373);
ref = caroncomb;
}
);
userData = {
com.typemytype.robofont.layerData = {
};
org.pippin.gimp.org.kernagic = {
lstem = 0;
rstem = 0;
};
org.robofab.postScriptHintData = {
};
};
width = 2722;
},
{
background = {
anchors = (
{
name = bot;
pos = (2149,0);
},
{
name = top;
pos = (2166,1456);
}
);
shapes = (
{
closed = 1;
nodes = (
(1138,-11,o),
(1347,297,o),
(1347,745,cs),
(1347,1175,o),
(1201,1462,o),
(581,1462,cs),
(471,1462,o),
(345,1453,o),
(203,1434,c),
(203,10,l),
(314,-4,o),
(416,-11,o),
(509,-11,cs)
);
},
{
closed = 1;
nodes = (
(510,126,o),
(455,129,o),
(397,135,c),
(397,1313,l),
(471,1321,o),
(537,1325,o),
(598,1325,cs),
(1053,1325,o),
(1154,1098,o),
(1154,740,cs),
(1154,383,o),
(1038,126,o),
(560,126,cs)
);
},
{
closed = 1;
nodes = (
(2624,0,l),
(2630,146,l),
(1814,146,l),
(2622,1324,l),
(2616,1456,l),
(1622,1456,l),
(1624,1311,l),
(2405,1311,l),
(1592,133,l),
(1592,0,l)
);
},
{
closed = 1;
nodes = (
(2249,1612,l),
(2445,1959,l),
(2288,1959,l),
(2153,1730,l),
(2016,1959,l),
(1859,1959,l),
(2056,1612,l)
);
}
);
};
layerId = "FE517A28-BD9F-4180-B9A0-41F76CAB3C17";
shapes = (
{
ref = DZ;
},
{
pos = (1665,374);
ref = caroncomb;
}
);
userData = {
com.typemytype.robofont.layerData = {
};
org.pippin.gimp.org.kernagic = {
lstem = 0;
rstem = 0;
};
org.robofab.postScriptHintData = {
};
};
width = 2690;
},
{
background = {
anchors = (
{
name = bot;
pos = (2154,0);
},
{
name = top;
pos = (2204,1456);
}
);
shapes = (
{
closed = 1;
nodes = (
(1247,-12,o),
(1466,303,o),
(1466,762,cs),
(1466,1306,o),
(1192,1468,o),
(493,1468,cs),
(392,1468,o),
(281,1466,o),
(162,1460,c),
(162,4,l),
(280,-7,o),
(388,-12,o),
(487,-12,cs)
);
},
{
closed = 1;
nodes = (
(603,300,o),
(601,300,o),
(598,300,c),
(598,1181,l),
(600,1181,o),
(602,1181,o),
(604,1181,cs),
(1018,1181,o),
(1047,964,o),
(1047,757,cs),
(1047,467,o),
(930,300,o),
(606,300,cs)
);
},
{
closed = 1;
nodes = (
(2777,0,l),
(2757,267,l),
(2199,267,l),
(2737,1219,l),
(2739,1456,l),
(1685,1456,l),
(1706,1187,l),
(2269,1187,l),
(1683,216,l),
(1683,0,l)
);
},
{
closed = 1;
nodes = (
(2355,1663,l),
(2573,2074,l),
(2267,2074,l),
(2187,1872,l),
(2106,2074,l),
(1800,2074,l),
(2017,1663,l)
);
}
);
};
layerId = "79570A4D-82CC-4E5E-902B-26A7181B4C65";
shapes = (
{
ref = DZ;
},
{
pos = (1758,374);
ref = caroncomb;
}
);
userData = {
com.typemytype.robofont.layerData = {
};
org.pippin.gimp.org.kernagic = {
lstem = 0;
rstem = 0;
};
org.robofab.postScriptHintData = {
};
};
width = 2860;
}
);
unicode = 452;
},
{
glyphname = Eth;
kernRight = D;
lastChange = "2023-03-23 13:44:25 +0000";
layers = (
{
background = {
anchors = (
{
name = bot;
pos = (765,0);
},
{
name = top;
pos = (762,1455);
}
);
shapes = (
{
closed = 1;
nodes = (
(1180,-10,o),
(1378,221,o),
(1378,729,cs),
(1378,1241,o),
(1190,1468,o),
(530,1468,cs),
(437,1468,o),
(335,1464,o),
(222,1455,c),
(222,0,l),
(319,-6,o),
(408,-10,o),
(490,-10,cs)
);
},
{
closed = 1;
nodes = (
(459,58,o),
(389,61,o),
(314,66,c),
(314,1388,l),
(385,1392,o),
(451,1394,o),
(513,1394,cs),
(1112,1394,o),
(1285,1206,o),
(1285,724,cs),
(1285,273,o),
(1115,58,o),
(524,58,cs)
);
},
{
closed = 1;
nodes = (
(537,715,l),
(537,787,l),
(39,787,l),
(39,715,l)
);
}
);
};
layerId = "45045840-C2F8-4391-8868-007C921F4A2B";
shapes = (
{
closed = 1;
nodes = (
(537,715,l),
(537,787,l),
(39,787,l),
(39,715,l)
);
},
{
ref = D;
}
);
userData = {
com.typemytype.robofont.layerData = {
};
org.pippin.gimp.org.kernagic = {
lstem = 0;
rstem = 0;
};
org.robofab.postScriptHintData = {
};
};
width = 1521;
},
{
background = {
anchors = (
{
name = bot;
pos = (778,-1);
},
{
name = top;
pos = (742,1456);
}
);
shapes = (
{
closed = 1;
nodes = (
(1138,-11,o),
(1347,297,o),
(1347,745,cs),
(1347,1175,o),
(1201,1462,o),
(581,1462,cs),
(471,1462,o),
(345,1453,o),
(203,1434,c),
(203,10,l),
(314,-4,o),
(416,-11,o),
(509,-11,cs)
);
},
{
closed = 1;
nodes = (
(510,126,o),
(455,129,o),
(397,135,c),
(397,1313,l),
(471,1321,o),
(537,1325,o),
(598,1325,cs),
(1053,1325,o),
(1154,1098,o),
(1154,740,cs),
(1154,383,o),
(1038,126,o),
(560,126,cs)
);
},
{
closed = 1;
nodes = (
(576,685,l),
(576,826,l),
(67,826,l),
(67,685,l)
);
}
);
};
layerId = "FE517A28-BD9F-4180-B9A0-41F76CAB3C17";
shapes = (
{
closed = 1;
nodes = (
(576,685,l),
(576,826,l),
(67,826,l),
(67,685,l)
);
},
{
ref = D;
}
);
userData = {
com.typemytype.robofont.layerData = {
};
org.pippin.gimp.org.kernagic = {
lstem = 0;
rstem = 0;
};
org.robofab.postScriptHintData = {
};
};
width = 1500;
},
{
background = {
anchors = (
{
name = bot;
pos = (767,1);
},
{
name = top;
pos = (831,1456);
}
);
shapes = (
{
closed = 1;
nodes = (
(1247,-12,o),
(1466,303,o),
(1466,762,cs),
(1466,1306,o),
(1192,1468,o),
(493,1468,cs),
(392,1468,o),
(281,1466,o),
(162,1460,c),
(162,4,l),
(280,-7,o),
(388,-12,o),
(487,-12,cs)
);
},
{
closed = 1;
nodes = (
(603,300,o),
(601,300,o),
(598,300,c),
(598,1181,l),
(600,1181,o),
(602,1181,o),
(604,1181,cs),
(1018,1181,o),
(1047,964,o),
(1047,757,cs),
(1047,467,o),
(930,300,o),
(606,300,cs)
);
},
{
closed = 1;
nodes = (
(770,628,l),
(770,871,l),
(35,871,l),
(35,628,l)
);
}
);
};
layerId = "79570A4D-82CC-4E5E-902B-26A7181B4C65";
shapes = (
{
closed = 1;
nodes = (
(770,628,l),
(770,871,l),
(35,871,l),
(35,628,l)
);
},
{
ref = D;
}
);
userData = {
com.typemytype.robofont.layerData = {
};
org.pippin.gimp.org.kernagic = {
lstem = 0;
rstem = 0;
};
org.robofab.postScriptHintData = {
};
};
width = 1571;
}
);
unicode = 208;
},
{
glyphname = Dcaron;
lastChange = "2023-03-23 12:10:54 +0000";
layers = (
{
background = {
anchors = (
{
name = bot;
pos = (765,0);
},
{
name = top;
pos = (762,1455);
}
);
shapes = (
{
closed = 1;
nodes = (
(1180,-10,o),
(1378,221,o),
(1378,729,cs),
(1378,1241,o),
(1190,1468,o),
(530,1468,cs),
(437,1468,o),
(335,1464,o),
(222,1455,c),
(222,0,l),
(319,-6,o),
(408,-10,o),
(490,-10,cs)
);
},
{
closed = 1;
nodes = (
(459,58,o),
(389,61,o),
(314,66,c),
(314,1388,l),
(385,1392,o),
(451,1394,o),
(513,1394,cs),
(1112,1394,o),
(1285,1206,o),
(1285,724,cs),
(1285,273,o),
(1115,58,o),
(524,58,cs)
);
},
{
closed = 1;
nodes = (
(802,1626,l),
(984,1930,l),
(924,1930,l),
(752,1683,l),
(580,1930,l),
(518,1930,l),
(702,1626,l)
);
}
);
};
layerId = "45045840-C2F8-4391-8868-007C921F4A2B";
shapes = (
{
ref = D;
},
{
pos = (322,373);
ref = caroncomb;
}
);
userData = {
com.typemytype.robofont.layerData = {
};
org.robofab.postScriptHintData = {
};
};
width = 1521;
},
{
background = {
anchors = (
{
name = bot;
pos = (778,-1);
},
{
name = top;
pos = (742,1456);
}
);
shapes = (
{
closed = 1;
nodes = (
(1138,-11,o),
(1347,297,o),
(1347,745,cs),
(1347,1175,o),
(1201,1462,o),
(581,1462,cs),
(471,1462,o),
(345,1453,o),
(203,1434,c),
(203,10,l),
(314,-4,o),
(416,-11,o),
(509,-11,cs)
);
},
{
closed = 1;
nodes = (
(510,126,o),
(455,129,o),
(397,135,c),
(397,1313,l),
(471,1321,o),
(537,1325,o),
(598,1325,cs),
(1053,1325,o),
(1154,1098,o),
(1154,740,cs),
(1154,383,o),
(1038,126,o),
(560,126,cs)
);
},
{
closed = 1;
nodes = (
(825,1612,l),
(1021,1959,l),
(864,1959,l),
(729,1730,l),
(592,1959,l),
(435,1959,l),
(632,1612,l)
);
}
);
};
layerId = "FE517A28-BD9F-4180-B9A0-41F76CAB3C17";
shapes = (
{
ref = D;
},
{
pos = (267,374);
ref = caroncomb;
}
);
userData = {
com.typemytype.robofont.layerData = {
};
org.robofab.postScriptHintData = {
};
};
width = 1500;
},
{
background = {
anchors = (
{
name = bot;
pos = (767,1);
},
{
name = top;
pos = (831,1456);
}
);
shapes = (
{
closed = 1;
nodes = (
(1247,-12,o),
(1466,303,o),
(1466,762,cs),
(1466,1306,o),
(1192,1468,o),
(493,1468,cs),
(392,1468,o),
(281,1466,o),
(162,1460,c),
(162,4,l),
(280,-7,o),
(388,-12,o),
(487,-12,cs)
);
},
{
closed = 1;
nodes = (
(603,300,o),
(601,300,o),
(598,300,c),
(598,1181,l),
(600,1181,o),
(602,1181,o),
(604,1181,cs),
(1018,1181,o),
(1047,964,o),
(1047,757,cs),
(1047,467,o),
(930,300,o),
(606,300,cs)
);
},
{
closed = 1;
nodes = (
(982,1663,l),
(1200,2074,l),
(894,2074,l),
(814,1872,l),
(733,2074,l),
(427,2074,l),
(644,1663,l)
);
}
);
};
layerId = "79570A4D-82CC-4E5E-902B-26A7181B4C65";
shapes = (
{
ref = D;
},
{
pos = (288,369);
ref = caroncomb;
}
);
userData = {
com.typemytype.robofont.layerData = {
};
org.robofab.postScriptHintData = {
};
};
width = 1571;
}
);
unicode = 270;
},
{
glyphname = Dcroat;
lastChange = "2023-03-23 12:10:17 +0000";
layers = (
{
background = {
anchors = (
{
name = bot;
pos = (765,0);
},
{
name = top;
pos = (762,1455);
}
);
shapes = (
{
closed = 1;
nodes = (
(1180,-10,o),
(1378,221,o),
(1378,729,cs),
(1378,1241,o),
(1190,1468,o),
(530,1468,cs),
(437,1468,o),
(335,1464,o),
(222,1455,c),
(222,0,l),
(319,-6,o),
(408,-10,o),
(490,-10,cs)
);
},
{
closed = 1;
nodes = (
(459,58,o),
(389,61,o),
(314,66,c),
(314,1388,l),
(385,1392,o),
(451,1394,o),
(513,1394,cs),
(1112,1394,o),
(1285,1206,o),
(1285,724,cs),
(1285,273,o),
(1115,58,o),
(524,58,cs)
);
},
{
closed = 1;
nodes = (
(537,715,l),
(537,787,l),
(39,787,l),
(39,715,l)
);
}
);
};
layerId = "45045840-C2F8-4391-8868-007C921F4A2B";
shapes = (
{
ref = Eth;
}
);
userData = {
com.typemytype.robofont.layerData = {
};
org.pippin.gimp.org.kernagic = {
lstem = 0;
rstem = 0;
};
org.robofab.postScriptHintData = {
};
};
width = 1521;
},
{
background = {
anchors = (
{
name = bot;
pos = (778,-1);
},
{
name = top;
pos = (742,1456);
}
);
shapes = (
{
closed = 1;
nodes = (
(1138,-11,o),
(1347,297,o),
(1347,745,cs),
(1347,1175,o),
(1201,1462,o),
(581,1462,cs),
(471,1462,o),
(345,1453,o),
(203,1434,c),
(203,10,l),
(314,-4,o),
(416,-11,o),
(509,-11,cs)
);
},
{
closed = 1;
nodes = (
(510,126,o),
(455,129,o),
(397,135,c),
(397,1313,l),
(471,1321,o),
(537,1325,o),
(598,1325,cs),
(1053,1325,o),
(1154,1098,o),
(1154,740,cs),
(1154,383,o),
(1038,126,o),
(560,126,cs)
);
},
{
closed = 1;
nodes = (
(576,685,l),
(576,826,l),
(67,826,l),
(67,685,l)
);
}
);
};
layerId = "FE517A28-BD9F-4180-B9A0-41F76CAB3C17";
shapes = (
{
ref = Eth;
}
);
userData = {
com.typemytype.robofont.layerData = {
};
org.pippin.gimp.org.kernagic = {
lstem = 0;
rstem = 0;
};
org.robofab.postScriptHintData = {
};
};
width = 1500;
},
{
background = {
anchors = (
{
name = bot;
pos = (767,1);
},
{
name = top;
pos = (831,1456);
}
);
shapes = (
{
closed = 1;
nodes = (
(1247,-12,o),
(1466,303,o),
(1466,762,cs),
(1466,1306,o),
(1192,1468,o),
(493,1468,cs),
(392,1468,o),
(281,1466,o),
(162,1460,c),
(162,4,l),
(280,-7,o),
(388,-12,o),
(487,-12,cs)
);
},
{
closed = 1;
nodes = (
(603,300,o),
(601,300,o),
(598,300,c),
(598,1181,l),
(600,1181,o),
(602,1181,o),
(604,1181,cs),
(1018,1181,o),
(1047,964,o),
(1047,757,cs),
(1047,467,o),
(930,300,o),
(606,300,cs)
);
},
{
closed = 1;
nodes = (
(770,628,l),
(770,871,l),
(35,871,l),
(35,628,l)
);
}
);
};
layerId = "79570A4D-82CC-4E5E-902B-26A7181B4C65";
shapes = (
{
ref = Eth;
}
);
userData = {
com.typemytype.robofont.layerData = {
};
org.pippin.gimp.org.kernagic = {
lstem = 0;
rstem = 0;
};
org.robofab.postScriptHintData = {
};
};
width = 1571;
}
);
unicode = 272;
},
{
glyphname = Ddotaccent;
lastChange = "2023-03-23 12:10:54 +0000";
layers = (
{
background = {
anchors = (
{
name = bot;
pos = (765,0);
},
{
name = top;
pos = (762,1455);
}
);
shapes = (
{
closed = 1;
nodes = (
(1180,-10,o),
(1378,221,o),
(1378,729,cs),
(1378,1241,o),
(1190,1468,o),
(530,1468,cs),
(437,1468,o),
(335,1464,o),
(222,1455,c),
(222,0,l),
(319,-6,o),
(408,-10,o),
(490,-10,cs)
);
},
{
closed = 1;
nodes = (
(459,58,o),
(389,61,o),
(314,66,c),
(314,1388,l),
(385,1392,o),
(451,1394,o),
(513,1394,cs),
(1112,1394,o),
(1285,1206,o),
(1285,724,cs),
(1285,273,o),
(1115,58,o),
(524,58,cs)
);
},
{
closed = 1;
nodes = (
(813,1706,o),
(836,1731,o),
(836,1779,cs),
(836,1826,o),
(813,1851,o),
(763,1851,cs),
(711,1851,o),
(689,1826,o),
(689,1779,cs),
(689,1731,o),
(711,1706,o),
(763,1706,cs)
);
}
);
};
layerId = "45045840-C2F8-4391-8868-007C921F4A2B";
shapes = (
{
ref = D;
},
{
pos = (581,373);
ref = dotaccentcomb;
}
);
userData = {
com.typemytype.robofont.layerData = {
};
org.robofab.postScriptHintData = {
};
};
width = 1521;
},
{
background = {
anchors = (
{
name = bot;
pos = (778,-1);
},
{
name = top;
pos = (742,1456);
}
);
shapes = (
{
closed = 1;
nodes = (
(1138,-11,o),
(1347,297,o),
(1347,745,cs),
(1347,1175,o),
(1201,1462,o),
(581,1462,cs),
(471,1462,o),
(345,1453,o),
(203,1434,c),
(203,10,l),
(314,-4,o),
(416,-11,o),
(509,-11,cs)
);
},
{
closed = 1;
nodes = (
(510,126,o),
(455,129,o),
(397,135,c),
(397,1313,l),
(471,1321,o),
(537,1325,o),
(598,1325,cs),
(1053,1325,o),
(1154,1098,o),
(1154,740,cs),
(1154,383,o),
(1038,126,o),
(560,126,cs)
);
},
{
closed = 1;
nodes = (
(827,1676,o),
(875,1725,o),
(875,1805,cs),
(875,1882,o),
(827,1930,o),
(743,1930,cs),
(659,1930,o),
(611,1882,o),
(611,1805,cs),
(611,1725,o),
(659,1676,o),
(743,1676,cs)
);
}
);
};
layerId = "FE517A28-BD9F-4180-B9A0-41F76CAB3C17";
shapes = (
{
ref = D;
},
{
pos = (473,374);
ref = dotaccentcomb;
}
);
userData = {
com.typemytype.robofont.layerData = {
};
org.robofab.postScriptHintData = {
};
};
width = 1500;
},
{
background = {
anchors = (
{
name = bot;
pos = (767,1);
},
{
name = top;
pos = (831,1456);
}
);
shapes = (
{
closed = 1;
nodes = (
(1247,-12,o),
(1466,303,o),
(1466,762,cs),
(1466,1306,o),
(1192,1468,o),
(493,1468,cs),
(392,1468,o),
(281,1466,o),
(162,1460,c),
(162,4,l),
(280,-7,o),
(388,-12,o),
(487,-12,cs)
);
},
{
closed = 1;
nodes = (
(603,300,o),
(601,300,o),
(598,300,c),
(598,1181,l),
(600,1181,o),
(602,1181,o),
(604,1181,cs),
(1018,1181,o),
(1047,964,o),
(1047,757,cs),
(1047,467,o),
(930,300,o),
(606,300,cs)
);
},
{
closed = 1;
nodes = (
(969,1630,o),
(1056,1714,o),
(1056,1842,cs),
(1056,1962,o),
(969,2045,o),
(833,2045,cs),
(697,2045,o),
(610,1962,o),
(610,1842,cs),
(610,1714,o),
(697,1630,o),
(833,1630,cs)
);
}
);
};
layerId = "79570A4D-82CC-4E5E-902B-26A7181B4C65";
shapes = (
{
ref = D;
},
{
pos = (397,369);
ref = dotaccentcomb;
}
);
userData = {
com.typemytype.robofont.layerData = {
};
org.robofab.postScriptHintData = {
};
};
width = 1571;
}
);
unicode = 7690;
},
{
glyphname = Dz;
lastChange = "2023-03-23 12:10:17 +0000";
layers = (
{
background = {
anchors = (
{
name = bot;
pos = (1971,0);
},
{
name = top;
pos = (2001,1082);
}
);
shapes = (
{
closed = 1;
nodes = (
(1180,-10,o),
(1378,221,o),
(1378,729,cs),
(1378,1241,o),
(1190,1468,o),
(530,1468,cs),
(437,1468,o),
(335,1464,o),
(222,1455,c),
(222,0,l),
(319,-6,o),
(408,-10,o),
(490,-10,cs)
);
},
{
closed = 1;
nodes = (
(459,58,o),
(389,61,o),
(314,66,c),
(314,1388,l),
(385,1392,o),
(451,1394,o),
(513,1394,cs),
(1112,1394,o),
(1285,1206,o),
(1285,724,cs),
(1285,273,o),
(1115,58,o),
(524,58,cs)
);
},
{
closed = 1;
nodes = (
(2314,0,l),
(2313,61,l),
(1725,61,l),
(2309,1018,l),
(2309,1082,l),
(1667,1082,l),
(1667,1019,l),
(2227,1019,l),
(1646,66,l),
(1646,0,l)
);
}
);
};
layerId = "45045840-C2F8-4391-8868-007C921F4A2B";
shapes = (
{
ref = D;
},
{
pos = (1521,0);
ref = z;
}
);
userData = {
com.typemytype.robofont.layerData = {
};
org.pippin.gimp.org.kernagic = {
lstem = 0;
rstem = 0;
};
org.robofab.postScriptHintData = {
};
};
width = 2417;
},
{
background = {
anchors = (
{
name = bot;
pos = (1982,0);
},
{
name = top;
pos = (2011,1082);
}
);
shapes = (
{
closed = 1;
nodes = (
(1138,-11,o),
(1347,297,o),
(1347,745,cs),
(1347,1175,o),
(1201,1462,o),
(581,1462,cs),
(471,1462,o),
(345,1453,o),
(203,1434,c),
(203,10,l),
(314,-4,o),
(416,-11,o),
(509,-11,cs)
);
},
{
closed = 1;
nodes = (
(510,126,o),
(455,129,o),
(397,135,c),
(397,1313,l),
(471,1321,o),
(537,1325,o),
(598,1325,cs),
(1053,1325,o),
(1154,1098,o),
(1154,740,cs),
(1154,383,o),
(1038,126,o),
(560,126,cs)
);
},
{
closed = 1;
nodes = (
(2399,0,l),
(2392,136,l),
(1803,136,l),
(2389,959,l),
(2389,1082,l),
(1621,1082,l),
(1626,952,l),
(2198,952,l),
(1601,116,l),
(1601,0,l)
);
}
);
};
layerId = "FE517A28-BD9F-4180-B9A0-41F76CAB3C17";
shapes = (
{
ref = D;
},
{
pos = (1500,0);
ref = z;
}
);
userData = {
com.typemytype.robofont.layerData = {
};
org.pippin.gimp.org.kernagic = {
lstem = 0;
rstem = 0;
};
org.robofab.postScriptHintData = {
};
};
width = 2512;
},
{
background = {
anchors = (
{
name = bot;
pos = (2087,0);
},
{
name = top;
pos = (2036,1082);
}
);
shapes = (
{
closed = 1;
nodes = (
(1247,-12,o),
(1466,303,o),
(1466,762,cs),
(1466,1306,o),
(1192,1468,o),
(493,1468,cs),
(392,1468,o),
(281,1466,o),
(162,1460,c),
(162,4,l),
(280,-7,o),
(388,-12,o),
(487,-12,cs)
);
},
{
closed = 1;
nodes = (
(603,300,o),
(601,300,o),
(598,300,c),
(598,1181,l),
(600,1181,o),
(602,1181,o),
(604,1181,cs),
(1018,1181,o),
(1047,964,o),
(1047,757,cs),
(1047,467,o),
(930,300,o),
(606,300,cs)
);
},
{
closed = 1;
nodes = (
(2497,0,l),
(2508,246,l),
(2082,246,l),
(2474,908,l),
(2474,1082,l),
(1627,1082,l),
(1618,846,l),
(2039,846,l),
(1626,159,l),
(1626,0,l)
);
}
);
};
layerId = "79570A4D-82CC-4E5E-902B-26A7181B4C65";
shapes = (
{
ref = D;
},
{
pos = (1571,0);
ref = z;
}
);
userData = {
com.typemytype.robofont.layerData = {
};
org.pippin.gimp.org.kernagic = {
lstem = 0;
rstem = 0;
};
org.robofab.postScriptHintData = {
};
};
width = 2512;
}
);
unicode = 498;
},
{
glyphname = Dzcaron;
lastChange = "2023-03-23 13:48:42 +0000";
layers = (
{
background = {
anchors = (
{
name = bot;
pos = (1971,0);
},
{
name = top;
pos = (2001,1082);
}
);
shapes = (
{
closed = 1;
nodes = (
(1180,-10,o),
(1378,221,o),
(1378,729,cs),
(1378,1241,o),
(1190,1468,o),
(530,1468,cs),
(437,1468,o),
(335,1464,o),
(222,1455,c),
(222,0,l),
(319,-6,o),
(408,-10,o),
(490,-10,cs)
);
},
{
closed = 1;
nodes = (
(459,58,o),
(389,61,o),
(314,66,c),
(314,1388,l),
(385,1392,o),
(451,1394,o),
(513,1394,cs),
(1112,1394,o),
(1285,1206,o),
(1285,724,cs),
(1285,273,o),
(1115,58,o),
(524,58,cs)
);
},
{
closed = 1;
nodes = (
(2038,1253,l),
(2220,1557,l),
(2160,1557,l),
(1988,1310,l),
(1816,1557,l),
(1754,1557,l),
(1938,1253,l)
);
},
{
closed = 1;
nodes = (
(2314,0,l),
(2313,61,l),
(1725,61,l),
(2309,1018,l),
(2309,1082,l),
(1667,1082,l),
(1667,1019,l),
(2227,1019,l),
(1646,66,l),
(1646,0,l)
);
}
);
};
layerId = "45045840-C2F8-4391-8868-007C921F4A2B";
shapes = (
{
ref = D;
},
{
pos = (1521,0);
ref = zcaron;
}
);
userData = {
com.typemytype.robofont.layerData = {
};
org.pippin.gimp.org.kernagic = {
lstem = 0;
rstem = 0;
};
org.robofab.postScriptHintData = {
};
};
width = 2417;
},
{
background = {
anchors = (
{
name = bot;
pos = (1982,0);
},
{
name = top;
pos = (2011,1082);
}
);
shapes = (
{
closed = 1;
nodes = (
(1138,-11,o),
(1347,297,o),
(1347,745,cs),
(1347,1175,o),
(1201,1462,o),
(581,1462,cs),
(471,1462,o),
(345,1453,o),
(203,1434,c),
(203,10,l),
(314,-4,o),
(416,-11,o),
(509,-11,cs)
);
},
{
closed = 1;
nodes = (
(510,126,o),
(455,129,o),
(397,135,c),
(397,1313,l),
(471,1321,o),
(537,1325,o),
(598,1325,cs),
(1053,1325,o),
(1154,1098,o),
(1154,740,cs),
(1154,383,o),
(1038,126,o),
(560,126,cs)
);
},
{
closed = 1;
nodes = (
(825,1612,l),
(1021,1959,l),
(864,1959,l),
(729,1730,l),
(592,1959,l),
(435,1959,l),
(632,1612,l)
);
},
{
closed = 1;
nodes = (
(2399,0,l),
(2392,136,l),
(1803,136,l),
(2389,959,l),
(2389,1082,l),
(1621,1082,l),
(1626,952,l),
(2198,952,l),
(1601,116,l),
(1601,0,l)
);
}
);
};
layerId = "FE517A28-BD9F-4180-B9A0-41F76CAB3C17";
shapes = (
{
ref = D;
},
{
pos = (1500,0);
ref = zcaron;
}
);
userData = {
com.typemytype.robofont.layerData = {
};
org.pippin.gimp.org.kernagic = {
lstem = 0;
rstem = 0;
};
org.robofab.postScriptHintData = {
};
};
width = 2512;
},
{
background = {
anchors = (
{
name = bot;
pos = (2087,0);
},
{
name = top;
pos = (2036,1082);
}
);
shapes = (
{
closed = 1;
nodes = (
(1247,-12,o),
(1466,303,o),
(1466,762,cs),
(1466,1306,o),
(1192,1468,o),
(493,1468,cs),
(392,1468,o),
(281,1466,o),
(162,1460,c),
(162,4,l),
(280,-7,o),
(388,-12,o),
(487,-12,cs)
);
},
{
closed = 1;
nodes = (
(603,300,o),
(601,300,o),
(598,300,c),
(598,1181,l),
(600,1181,o),
(602,1181,o),
(604,1181,cs),
(1018,1181,o),
(1047,964,o),
(1047,757,cs),
(1047,467,o),
(930,300,o),
(606,300,cs)
);
},
{
closed = 1;
nodes = (
(982,1663,l),
(1200,2074,l),
(894,2074,l),
(814,1872,l),
(733,2074,l),
(427,2074,l),
(644,1663,l)
);
},
{
closed = 1;
nodes = (
(2497,0,l),
(2508,246,l),
(2082,246,l),
(2474,908,l),
(2474,1082,l),
(1627,1082,l),
(1618,846,l),
(2039,846,l),
(1626,159,l),
(1626,0,l)
);
}
);
};
layerId = "79570A4D-82CC-4E5E-902B-26A7181B4C65";
shapes = (
{
ref = D;
},
{
pos = (1571,0);
ref = zcaron;
}
);
userData = {
com.typemytype.robofont.layerData = {
};
org.pippin.gimp.org.kernagic = {
lstem = 0;
rstem = 0;
};
org.robofab.postScriptHintData = {
};
};
width = 2512;
}
);
unicode = 453;
},
{
glyphname = E;
lastChange = "2023-03-23 12:10:17 +0000";
layers = (
{
anchors = (
{
name = bottom;
pos = (580,0);
},
{
name = ogonek;
pos = (1043,10);
},
{
name = top;
pos = (655,1455);
},
{
name = topleft;
pos = (20,1455);
}
);
background = {
anchors = (
{
name = bot;
pos = (572,0);
},
{
name = top;
pos = (662,1455);
}
);
shapes = (
{
closed = 1;
nodes = (
(1069,0,l),
(1077,69,l),
(314,69,l),
(314,710,l),
(991,710,l),
(991,780,l),
(314,780,l),
(314,1384,l),
(1075,1384,l),
(1077,1455,l),
(222,1455,l),
(222,0,l)
);
}
);
};
layerId = "45045840-C2F8-4391-8868-007C921F4A2B";
shapes = (
{
closed = 1;
nodes = (
(1082,0,l),
(1090,80,l),
(325,80,l),
(325,706,l),
(1005,706,l),
(1005,786,l),
(325,786,l),
(325,1374,l),
(1086,1374,l),
(1088,1455,l),
(219,1455,l),
(219,0,l)
);
}
);
userData = {
com.typemytype.robofont.layerData = {
};
org.pippin.gimp.org.kernagic = {
lstem = 0;
rstem = 0;
};
org.robofab.postScriptHintData = {
};
};
width = 1158;
},
{
anchors = (
{
name = bottom;
pos = (655,0);
},
{
name = ogonek;
pos = (1178,10);
},
{
name = top;
pos = (685,1456);
},
{
name = topleft;
pos = (20,1456);
}
);
background = {
anchors = (
{
name = bot;
pos = (709,0);
},
{
name = top;
pos = (738,1456);
}
);
shapes = (
{
closed = 1;
nodes = (
(1166,0,l),
(1178,148,l),
(397,148,l),
(397,680,l),
(1097,680,l),
(1097,827,l),
(397,827,l),
(397,1310,l),
(1155,1310,l),
(1162,1456,l),
(203,1456,l),
(203,0,l)
);
}
);
};
layerId = "FE517A28-BD9F-4180-B9A0-41F76CAB3C17";
shapes = (
{
closed = 1;
nodes = (
(1166,0,l),
(1178,148,l),
(397,148,l),
(397,680,l),
(1097,680,l),
(1097,827,l),
(397,827,l),
(397,1310,l),
(1155,1310,l),
(1162,1456,l),
(203,1456,l),
(203,0,l)
);
}
);
userData = {
com.typemytype.robofont.layerData = {
};
org.pippin.gimp.org.kernagic = {
lstem = 0;
rstem = 0;
};
org.robofab.postScriptHintData = {
};
};
width = 1309;
},
{
anchors = (
{
name = bottom;
pos = (678,0);
},
{
name = ogonek;
pos = (1238,10);
},
{
name = top;
pos = (688,1456);
},
{
name = topleft;
pos = (20,1456);
}
);
background = {
anchors = (
{
name = bot;
pos = (654,0);
},
{
name = top;
pos = (762,1456);
}
);
shapes = (
{
closed = 1;
nodes = (
(1248,0,l),
(1250,293,l),
(597,293,l),
(597,601,l),
(1199,601,l),
(1199,885,l),
(597,885,l),
(597,1173,l),
(1206,1173,l),
(1229,1456,l),
(162,1456,l),
(162,0,l)
);
}
);
};
layerId = "79570A4D-82CC-4E5E-902B-26A7181B4C65";
shapes = (
{
closed = 1;
nodes = (
(1248,0,l),
(1250,293,l),
(597,293,l),
(597,601,l),
(1199,601,l),
(1199,885,l),
(597,885,l),
(597,1173,l),
(1206,1173,l),
(1229,1456,l),
(162,1456,l),
(162,0,l)
);
}
);
userData = {
com.typemytype.robofont.layerData = {
};
org.pippin.gimp.org.kernagic = {
lstem = 0;
rstem = 0;
};
org.robofab.postScriptHintData = {
};
};
width = 1376;
}
);
unicode = 69;
},
{
glyphname = Eacute;
lastChange = "2023-03-23 12:10:54 +0000";
layers = (
{
background = {
anchors = (
{
name = bot;
pos = (572,0);
},
{
name = top;
pos = (662,1455);
}
);
shapes = (
{
closed = 1;
nodes = (
(1069,0,l),
(1077,69,l),
(314,69,l),
(314,710,l),
(991,710,l),
(991,780,l),
(314,780,l),
(314,1384,l),
(1075,1384,l),
(1077,1455,l),
(222,1455,l),
(222,0,l)
);
},
{
closed = 1;
nodes = (
(687,1633,l),
(952,1984,l),
(847,1984,l),
(633,1633,l)
);
}
);
};
layerId = "45045840-C2F8-4391-8868-007C921F4A2B";
shapes = (
{
ref = E;
},
{
pos = (403,373);
ref = acutecomb;
}
);
userData = {
com.typemytype.robofont.layerData = {
};
org.robofab.postScriptHintData = {
};
};
width = 1158;
},
{
background = {
anchors = (
{
name = bot;
pos = (709,0);
},
{
name = top;
pos = (738,1456);
}
);
shapes = (
{
closed = 1;
nodes = (
(1166,0,l),
(1178,148,l),
(397,148,l),
(397,680,l),
(1097,680,l),
(1097,827,l),
(397,827,l),
(397,1310,l),
(1155,1310,l),
(1162,1456,l),
(203,1456,l),
(203,0,l)
);
},
{
closed = 1;
nodes = (
(794,1583,l),
(1093,1960,l),
(871,1960,l),
(675,1583,l)
);
}
);
};
layerId = "FE517A28-BD9F-4180-B9A0-41F76CAB3C17";
shapes = (
{
ref = E;
},
{
pos = (327,374);
ref = acutecomb;
}
);
userData = {
com.typemytype.robofont.layerData = {
};
org.robofab.postScriptHintData = {
};
};
width = 1309;
},
{
background = {
anchors = (
{
name = bot;
pos = (654,0);
},
{
name = top;
pos = (762,1456);
}
);
shapes = (
{
closed = 1;
nodes = (
(1248,0,l),
(1250,293,l),
(597,293,l),
(597,601,l),
(1199,601,l),
(1199,885,l),
(597,885,l),
(597,1173,l),
(1206,1173,l),
(1229,1456,l),
(162,1456,l),
(162,0,l)
);
},
{
closed = 1;
nodes = (
(868,1581,l),
(1219,1997,l),
(815,1997,l),
(646,1581,l)
);
}
);
};
layerId = "79570A4D-82CC-4E5E-902B-26A7181B4C65";
shapes = (
{
ref = E;
},
{
pos = (149,374);
ref = acutecomb;
}
);
userData = {
com.typemytype.robofont.layerData = {
};
org.robofab.postScriptHintData = {
};
};
width = 1376;
}
);
unicode = 201;
},
{
glyphname = Ebreve;
lastChange = "2023-03-23 12:10:54 +0000";
layers = (
{
background = {
anchors = (
{
name = bot;
pos = (572,0);
},
{
name = top;
pos = (662,1455);
}
);
shapes = (
{
closed = 1;
nodes = (
(1069,0,l),
(1077,69,l),
(314,69,l),
(314,710,l),
(991,710,l),
(991,780,l),
(314,780,l),
(314,1384,l),
(1075,1384,l),
(1077,1455,l),
(222,1455,l),
(222,0,l)
);
},
{
closed = 1;
nodes = (
(758,1652,o),
(859,1709,o),
(859,1869,c),
(807,1869,l),
(807,1749,o),
(728,1705,o),
(655,1705,cs),
(584,1705,o),
(513,1749,o),
(513,1869,c),
(458,1869,l),
(458,1708,o),
(555,1652,o),
(655,1652,cs)
);
}
);
};
layerId = "45045840-C2F8-4391-8868-007C921F4A2B";
shapes = (
{
ref = E;
},
{
pos = (246,373);
ref = brevecomb;
}
);
userData = {
com.typemytype.robofont.layerData = {
};
org.robofab.postScriptHintData = {
};
};
width = 1158;
},
{
background = {
anchors = (
{
name = bot;
pos = (709,0);
},
{
name = top;
pos = (738,1456);
}
);
shapes = (
{
closed = 1;
nodes = (
(1166,0,l),
(1178,148,l),
(397,148,l),
(397,680,l),
(1097,680,l),
(1097,827,l),
(397,827,l),
(397,1310,l),
(1155,1310,l),
(1162,1456,l),
(203,1456,l),
(203,0,l)
);
},
{
closed = 1;
nodes = (
(873,1678,o),
(981,1757,o),
(981,1922,c),
(866,1922,l),
(866,1831,o),
(798,1791,o),
(734,1791,cs),
(671,1791,o),
(607,1831,o),
(607,1922,c),
(490,1922,l),
(490,1757,o),
(596,1678,o),
(734,1678,cs)
);
}
);
};
layerId = "FE517A28-BD9F-4180-B9A0-41F76CAB3C17";
shapes = (
{
ref = E;
},
{
pos = (260,374);
ref = brevecomb;
}
);
userData = {
com.typemytype.robofont.layerData = {
};
org.robofab.postScriptHintData = {
};
};
width = 1309;
},
{
background = {
anchors = (
{
name = bot;
pos = (654,0);
},
{
name = top;
pos = (762,1456);
}
);
shapes = (
{
closed = 1;
nodes = (
(1248,0,l),
(1250,293,l),
(597,293,l),
(597,601,l),
(1199,601,l),
(1199,885,l),
(597,885,l),
(597,1173,l),
(1206,1173,l),
(1229,1456,l),
(162,1456,l),
(162,0,l)
);
},
{
closed = 1;
nodes = (
(957,1702,o),
(1075,1814,o),
(1075,1985,c),
(864,1985,l),
(864,1938,o),
(828,1906,o),
(763,1906,cs),
(697,1906,o),
(661,1938,o),
(661,1985,c),
(447,1985,l),
(447,1814,o),
(567,1702,o),
(763,1702,cs)
);
}
);
};
layerId = "79570A4D-82CC-4E5E-902B-26A7181B4C65";
shapes = (
{
ref = E;
},
{
pos = (236,374);
ref = brevecomb;
}
);
userData = {
com.typemytype.robofont.layerData = {
};
org.robofab.postScriptHintData = {
};
};
width = 1376;
}
);
unicode = 276;
},
{
glyphname = Ecaron;
lastChange = "2023-03-23 12:10:54 +0000";
layers = (
{
background = {
anchors = (
{
name = bot;
pos = (572,0);
},
{
name = top;
pos = (662,1455);
}
);
shapes = (
{
closed = 1;
nodes = (
(1069,0,l),
(1077,69,l),
(314,69,l),
(314,710,l),
(991,710,l),
(991,780,l),
(314,780,l),
(314,1384,l),
(1075,1384,l),
(1077,1455,l),
(222,1455,l),
(222,0,l)
);
},
{
closed = 1;
nodes = (
(702,1626,l),
(884,1930,l),
(824,1930,l),
(652,1683,l),
(480,1930,l),
(418,1930,l),
(602,1626,l)
);
}
);
};
layerId = "45045840-C2F8-4391-8868-007C921F4A2B";
shapes = (
{
ref = E;
},
{
pos = (241,373);
ref = caroncomb;
}
);
userData = {
com.typemytype.robofont.layerData = {
};
org.robofab.postScriptHintData = {
};
};
width = 1158;
},
{
background = {
anchors = (
{
name = bot;
pos = (709,0);
},
{
name = top;
pos = (738,1456);
}
);
shapes = (
{
closed = 1;
nodes = (
(1166,0,l),
(1178,148,l),
(397,148,l),
(397,680,l),
(1097,680,l),
(1097,827,l),
(397,827,l),
(397,1310,l),
(1155,1310,l),
(1162,1456,l),
(203,1456,l),
(203,0,l)
);
},
{
closed = 1;
nodes = (
(821,1612,l),
(1017,1959,l),
(860,1959,l),
(725,1730,l),
(588,1959,l),
(431,1959,l),
(628,1612,l)
);
}
);
};
layerId = "FE517A28-BD9F-4180-B9A0-41F76CAB3C17";
shapes = (
{
ref = E;
},
{
pos = (255,374);
ref = caroncomb;
}
);
userData = {
com.typemytype.robofont.layerData = {
};
org.robofab.postScriptHintData = {
};
};
width = 1309;
},
{
background = {
anchors = (
{
name = bot;
pos = (654,0);
},
{
name = top;
pos = (762,1456);
}
);
shapes = (
{
closed = 1;
nodes = (
(1248,0,l),
(1250,293,l),
(597,293,l),
(597,601,l),
(1199,601,l),
(1199,885,l),
(597,885,l),
(597,1173,l),
(1206,1173,l),
(1229,1456,l),
(162,1456,l),
(162,0,l)
);
},
{
closed = 1;
nodes = (
(913,1663,l),
(1131,2074,l),
(825,2074,l),
(745,1872,l),
(664,2074,l),
(358,2074,l),
(575,1663,l)
);
}
);
};
layerId = "79570A4D-82CC-4E5E-902B-26A7181B4C65";
shapes = (
{
ref = E;
},
{
pos = (230,374);
ref = caroncomb;
}
);
userData = {
com.typemytype.robofont.layerData = {
};
org.robofab.postScriptHintData = {
};
};
width = 1376;
}
);
unicode = 282;
},
{
glyphname = Ecedilla;
lastChange = "2023-03-23 12:10:54 +0000";
layers = (
{
background = {
anchors = (
{
name = bot;
pos = (572,0);
},
{
name = top;
pos = (662,1455);
}
);
shapes = (
{
closed = 1;
nodes = (
(1069,0,l),
(1077,69,l),
(314,69,l),
(314,710,l),
(991,710,l),
(991,780,l),
(314,780,l),
(314,1384,l),
(1075,1384,l),
(1077,1455,l),
(222,1455,l),
(222,0,l)
);
},
{
closed = 1;
nodes = (
(685,-387,o),
(788,-312,o),
(788,-199,cs),
(788,-92,o),
(707,-43,o),
(616,-43,cs),
(585,-43,o),
(553,-49,o),
(523,-60,c),
(524,-94,l),
(552,-88,o),
(576,-86,o),
(597,-86,cs),
(704,-86,o),
(725,-152,o),
(725,-199,cs),
(725,-297,o),
(636,-339,o),
(547,-339,cs),
(499,-339,o),
(451,-327,o),
(413,-305,c),
(392,-356,l),
(435,-376,o),
(485,-387,o),
(540,-387,cs)
);
}
);
};
layerId = "45045840-C2F8-4391-8868-007C921F4A2B";
shapes = (
{
ref = E;
},
{
pos = (267,0);
ref = cedillacomb;
}
);
userData = {
com.typemytype.robofont.layerData = {
};
org.robofab.postScriptHintData = {
};
};
width = 1158;
},
{
background = {
anchors = (
{
name = bot;
pos = (709,0);
},
{
name = top;
pos = (738,1456);
}
);
shapes = (
{
closed = 1;
nodes = (
(1166,0,l),
(1178,148,l),
(397,148,l),
(397,680,l),
(1097,680,l),
(1097,827,l),
(397,827,l),
(397,1310,l),
(1155,1310,l),
(1162,1456,l),
(203,1456,l),
(203,0,l)
);
},
{
closed = 1;
nodes = (
(804,-413,o),
(912,-337,o),
(912,-214,cs),
(912,-105,o),
(838,-51,o),
(743,-51,cs),
(710,-51,o),
(674,-57,o),
(638,-71,c),
(639,-123,l),
(660,-119,o),
(678,-118,o),
(694,-118,cs),
(779,-118,o),
(802,-164,o),
(802,-208,cs),
(802,-283,o),
(736,-322,o),
(655,-322,cs),
(617,-322,o),
(575,-314,o),
(534,-295,c),
(503,-380,l),
(553,-402,o),
(606,-413,o),
(661,-413,cs)
);
}
);
};
layerId = "FE517A28-BD9F-4180-B9A0-41F76CAB3C17";
shapes = (
{
ref = E;
},
{
pos = (277,0);
ref = cedillacomb;
}
);
userData = {
com.typemytype.robofont.layerData = {
};
org.robofab.postScriptHintData = {
};
};
width = 1309;
},
{
background = {
anchors = (
{
name = bot;
pos = (654,0);
},
{
name = top;
pos = (762,1456);
}
);
shapes = (
{
closed = 1;
nodes = (
(1248,0,l),
(1250,293,l),
(597,293,l),
(597,601,l),
(1199,601,l),
(1199,885,l),
(597,885,l),
(597,1173,l),
(1206,1173,l),
(1229,1456,l),
(162,1456,l),
(162,0,l)
);
},
{
closed = 1;
nodes = (
(723,-450,o),
(838,-372,o),
(838,-234,cs),
(838,-123,o),
(773,-61,o),
(672,-61,cs),
(635,-61,o),
(594,-69,o),
(549,-86,c),
(549,-164,l),
(558,-163,o),
(566,-163,o),
(574,-163,cs),
(628,-163,o),
(655,-181,o),
(656,-224,cs),
(656,-258,o),
(630,-298,o),
(555,-298,cs),
(528,-298,o),
(494,-292,o),
(454,-280,c),
(407,-413,l),
(467,-438,o),
(527,-450,o),
(582,-450,cs)
);
}
);
};
layerId = "79570A4D-82CC-4E5E-902B-26A7181B4C65";
shapes = (
{
ref = E;
},
{
pos = (155,0);
ref = cedillacomb;
}
);
userData = {
com.typemytype.robofont.layerData = {
};
org.robofab.postScriptHintData = {
};
};
width = 1376;
}
);
unicode = 552;
},
{
glyphname = Ecircumflex;
lastChange = "2023-03-23 12:10:54 +0000";
layers = (
{
background = {
anchors = (
{
name = bot;
pos = (572,0);
},
{
name = top;
pos = (662,1455);
}
);
shapes = (
{
closed = 1;
nodes = (
(1069,0,l),
(1077,69,l),
(314,69,l),
(314,710,l),
(991,710,l),
(991,780,l),
(314,780,l),
(314,1384,l),
(1075,1384,l),
(1077,1455,l),
(222,1455,l),
(222,0,l)
);
},
{
closed = 1;
nodes = (
(480,1626,l),
(652,1873,l),
(824,1626,l),
(884,1626,l),
(702,1930,l),
(602,1930,l),
(418,1626,l)
);
}
);
};
layerId = "45045840-C2F8-4391-8868-007C921F4A2B";
shapes = (
{
ref = E;
},
{
pos = (241,373);
ref = circumflexcomb;
}
);
userData = {
com.typemytype.robofont.layerData = {
};
org.robofab.postScriptHintData = {
};
};
width = 1158;
},
{
background = {
anchors = (
{
name = bot;
pos = (709,0);
},
{
name = top;
pos = (738,1456);
}
);
shapes = (
{
closed = 1;
nodes = (
(1166,0,l),
(1178,148,l),
(397,148,l),
(397,680,l),
(1097,680,l),
(1097,827,l),
(397,827,l),
(397,1310,l),
(1155,1310,l),
(1162,1456,l),
(203,1456,l),
(203,0,l)
);
},
{
closed = 1;
nodes = (
(597,1625,l),
(734,1854,l),
(869,1625,l),
(1026,1625,l),
(830,1972,l),
(637,1972,l),
(440,1625,l)
);
}
);
};
layerId = "FE517A28-BD9F-4180-B9A0-41F76CAB3C17";
shapes = (
{
ref = E;
},
{
pos = (256,374);
ref = circumflexcomb;
}
);
userData = {
com.typemytype.robofont.layerData = {
};
org.robofab.postScriptHintData = {
};
};
width = 1309;
},
{
background = {
anchors = (
{
name = bot;
pos = (654,0);
},
{
name = top;
pos = (762,1456);
}
);
shapes = (
{
closed = 1;
nodes = (
(1248,0,l),
(1250,293,l),
(597,293,l),
(597,601,l),
(1199,601,l),
(1199,885,l),
(597,885,l),
(597,1173,l),
(1206,1173,l),
(1229,1456,l),
(162,1456,l),
(162,0,l)
);
},
{
closed = 1;
nodes = (
(685,1696,l),
(765,1898,l),
(845,1696,l),
(1151,1696,l),
(934,2107,l),
(596,2107,l),
(379,1696,l)
);
}
);
};
layerId = "79570A4D-82CC-4E5E-902B-26A7181B4C65";
shapes = (
{
ref = E;
},
{
pos = (233,374);
ref = circumflexcomb;
}
);
userData = {
com.typemytype.robofont.layerData = {
};
org.robofab.postScriptHintData = {
};
};
width = 1376;
}
);
unicode = 202;
},
{
glyphname = Edblgrave;
lastChange = "2023-03-23 13:09:26 +0000";
layers = (
{
background = {
anchors = (
{
name = bot;
pos = (572,0);
},
{
name = top;
pos = (662,1455);
}
);
shapes = (
{
closed = 1;
nodes = (
(1069,0,l),
(1077,69,l),
(314,69,l),
(314,710,l),
(991,710,l),
(991,780,l),
(314,780,l),
(314,1384,l),
(1075,1384,l),
(1077,1455,l),
(222,1455,l),
(222,0,l)
);
},
{
closed = 1;
nodes = (
(771,1633,l),
(557,1984,l),
(452,1984,l),
(717,1633,l)
);
},
{
closed = 1;
nodes = (
(551,1633,l),
(337,1984,l),
(232,1984,l),
(497,1633,l)
);
}
);
};
layerId = "45045840-C2F8-4391-8868-007C921F4A2B";
shapes = (
{
ref = E;
},
{
pos = (145,373);
ref = dblgravecomb;
}
);
userData = {
com.typemytype.robofont.layerData = {
};
org.robofab.postScriptHintData = {
};
};
width = 1158;
},
{
background = {
anchors = (
{
name = bot;
pos = (709,0);
},
{
name = top;
pos = (738,1456);
}
);
shapes = (
{
closed = 1;
nodes = (
(1166,0,l),
(1178,148,l),
(397,148,l),
(397,680,l),
(1097,680,l),
(1097,827,l),
(397,827,l),
(397,1310,l),
(1155,1310,l),
(1162,1456,l),
(203,1456,l),
(203,0,l)
);
},
{
closed = 1;
nodes = (
(647,1637,l),
(498,1988,l),
(314,1988,l),
(539,1637,l)
);
},
{
closed = 1;
nodes = (
(926,1637,l),
(794,1988,l),
(627,1988,l),
(814,1637,l)
);
}
);
};
layerId = "FE517A28-BD9F-4180-B9A0-41F76CAB3C17";
shapes = (
{
ref = E;
},
{
pos = (219,374);
ref = dblgravecomb;
}
);
userData = {
com.typemytype.robofont.layerData = {
};
org.robofab.postScriptHintData = {
};
};
width = 1309;
},
{
background = {
anchors = (
{
name = bot;
pos = (654,0);
},
{
name = top;
pos = (762,1456);
}
);
shapes = (
{
closed = 1;
nodes = (
(1248,0,l),
(1250,293,l),
(597,293,l),
(597,601,l),
(1199,601,l),
(1199,885,l),
(597,885,l),
(597,1173,l),
(1206,1173,l),
(1229,1456,l),
(162,1456,l),
(162,0,l)
);
},
{
closed = 1;
nodes = (
(663,1633,l),
(519,2054,l),
(188,2054,l),
(484,1633,l)
);
},
{
closed = 1;
nodes = (
(1071,1633,l),
(906,2054,l),
(603,2054,l),
(879,1633,l)
);
}
);
};
layerId = "79570A4D-82CC-4E5E-902B-26A7181B4C65";
shapes = (
{
ref = E;
},
{
pos = (82,374);
ref = dblgravecomb;
}
);
userData = {
com.typemytype.robofont.layerData = {
};
org.robofab.postScriptHintData = {
};
};
width = 1376;
}
);
unicode = 516;
},
{
glyphname = Edieresis;
lastChange = "2023-03-23 12:10:54 +0000";
layers = (
{
background = {
anchors = (
{
name = bot;
pos = (572,0);
},
{
name = top;
pos = (662,1455);
}
);
shapes = (
{
closed = 1;
nodes = (
(1069,0,l),
(1077,69,l),
(314,69,l),
(314,710,l),
(991,710,l),
(991,780,l),
(314,780,l),
(314,1384,l),
(1075,1384,l),
(1077,1455,l),
(222,1455,l),
(222,0,l)
);
},
{
closed = 1;
nodes = (
(883,1723,o),
(894,1758,o),
(894,1787,cs),
(894,1813,o),
(883,1850,o),
(831,1850,cs),
(775,1850,o),
(767,1813,o),
(767,1787,cs),
(767,1759,o),
(777,1723,o),
(831,1723,cs)
);
},
{
closed = 1;
nodes = (
(520,1723,o),
(530,1759,o),
(530,1787,cs),
(530,1813,o),
(520,1850,o),
(467,1850,cs),
(411,1850,o),
(403,1813,o),
(403,1787,cs),
(403,1759,o),
(414,1723,o),
(467,1723,cs)
);
}
);
};
layerId = "45045840-C2F8-4391-8868-007C921F4A2B";
shapes = (
{
ref = E;
},
{
pos = (262,373);
ref = dieresiscomb;
}
);
userData = {
com.typemytype.robofont.layerData = {
};
org.robofab.postScriptHintData = {
};
};
width = 1158;
},
{
background = {
anchors = (
{
name = bot;
pos = (709,0);
},
{
name = top;
pos = (738,1456);
}
);
shapes = (
{
closed = 1;
nodes = (
(1166,0,l),
(1178,148,l),
(397,148,l),
(397,680,l),
(1097,680,l),
(1097,827,l),
(397,827,l),
(397,1310,l),
(1155,1310,l),
(1162,1456,l),
(203,1456,l),
(203,0,l)
);
},
{
closed = 1;
nodes = (
(1020,1664,o),
(1053,1712,o),
(1053,1773,cs),
(1053,1833,o),
(1020,1882,o),
(947,1882,cs),
(872,1882,o),
(839,1833,o),
(839,1773,cs),
(839,1712,o),
(873,1664,o),
(947,1664,cs)
);
},
{
closed = 1;
nodes = (
(585,1664,o),
(618,1712,o),
(618,1773,cs),
(618,1833,o),
(585,1882,o),
(512,1882,cs),
(437,1882,o),
(405,1833,o),
(405,1773,cs),
(405,1712,o),
(439,1664,o),
(512,1664,cs)
);
}
);
};
layerId = "FE517A28-BD9F-4180-B9A0-41F76CAB3C17";
shapes = (
{
ref = E;
},
{
pos = (229,374);
ref = dieresiscomb;
}
);
userData = {
com.typemytype.robofont.layerData = {
};
org.robofab.postScriptHintData = {
};
};
width = 1309;
},
{
background = {
anchors = (
{
name = bot;
pos = (654,0);
},
{
name = top;
pos = (762,1456);
}
);
shapes = (
{
closed = 1;
nodes = (
(1248,0,l),
(1250,293,l),
(597,293,l),
(597,601,l),
(1199,601,l),
(1199,885,l),
(597,885,l),
(597,1173,l),
(1206,1173,l),
(1229,1456,l),
(162,1456,l),
(162,0,l)
);
},
{
closed = 1;
nodes = (
(1138,1577,o),
(1205,1642,o),
(1205,1751,cs),
(1205,1861,o),
(1138,1928,o),
(1033,1928,cs),
(927,1928,o),
(857,1861,o),
(857,1751,cs),
(857,1642,o),
(927,1577,o),
(1033,1577,cs)
);
},
{
closed = 1;
nodes = (
(593,1577,o),
(660,1642,o),
(660,1751,cs),
(660,1861,o),
(593,1928,o),
(489,1928,cs),
(383,1928,o),
(315,1861,o),
(315,1751,cs),
(315,1642,o),
(383,1577,o),
(489,1577,cs)
);
}
);
};
layerId = "79570A4D-82CC-4E5E-902B-26A7181B4C65";
shapes = (
{
ref = E;
},
{
pos = (120,374);
ref = dieresiscomb;
}
);
userData = {
com.typemytype.robofont.layerData = {
};
org.robofab.postScriptHintData = {
};
};
width = 1376;
}
);
unicode = 203;
},
{
glyphname = Edotaccent;
lastChange = "2023-03-23 12:10:54 +0000";
layers = (
{
background = {
anchors = (
{
name = bot;
pos = (572,0);
},
{
name = top;
pos = (662,1455);
}
);
shapes = (
{
closed = 1;
nodes = (
(1069,0,l),
(1077,69,l),
(314,69,l),
(314,710,l),
(991,710,l),
(991,780,l),
(314,780,l),
(314,1384,l),
(1075,1384,l),
(1077,1455,l),
(222,1455,l),
(222,0,l)
);
},
{
closed = 1;
nodes = (
(713,1706,o),
(736,1731,o),
(736,1779,cs),
(736,1826,o),
(713,1851,o),
(663,1851,cs),
(611,1851,o),
(589,1826,o),
(589,1779,cs),
(589,1731,o),
(611,1706,o),
(663,1706,cs)
);
}
);
};
layerId = "45045840-C2F8-4391-8868-007C921F4A2B";
shapes = (
{
ref = E;
},
{
pos = (500,373);
ref = dotaccentcomb;
}
);
userData = {
com.typemytype.robofont.layerData = {
};
org.robofab.postScriptHintData = {
};
};
width = 1158;
},
{
background = {
anchors = (
{
name = bot;
pos = (709,0);
},
{
name = top;
pos = (738,1456);
}
);
shapes = (
{
closed = 1;
nodes = (
(1166,0,l),
(1178,148,l),
(397,148,l),
(397,680,l),
(1097,680,l),
(1097,827,l),
(397,827,l),
(397,1310,l),
(1155,1310,l),
(1162,1456,l),
(203,1456,l),
(203,0,l)
);
},
{
closed = 1;
nodes = (
(823,1676,o),
(871,1725,o),
(871,1805,cs),
(871,1882,o),
(823,1930,o),
(739,1930,cs),
(655,1930,o),
(607,1882,o),
(607,1805,cs),
(607,1725,o),
(655,1676,o),
(739,1676,cs)
);
}
);
};
layerId = "FE517A28-BD9F-4180-B9A0-41F76CAB3C17";
shapes = (
{
ref = E;
},
{
pos = (461,374);
ref = dotaccentcomb;
}
);
userData = {
com.typemytype.robofont.layerData = {
};
org.robofab.postScriptHintData = {
};
};
width = 1309;
},
{
background = {
anchors = (
{
name = bot;
pos = (654,0);
},
{
name = top;
pos = (762,1456);
}
);
shapes = (
{
closed = 1;
nodes = (
(1248,0,l),
(1250,293,l),
(597,293,l),
(597,601,l),
(1199,601,l),
(1199,885,l),
(597,885,l),
(597,1173,l),
(1206,1173,l),
(1229,1456,l),
(162,1456,l),
(162,0,l)
);
},
{
closed = 1;
nodes = (
(900,1630,o),
(987,1714,o),
(987,1842,cs),
(987,1962,o),
(900,2045,o),
(764,2045,cs),
(628,2045,o),
(541,1962,o),
(541,1842,cs),
(541,1714,o),
(628,1630,o),
(764,1630,cs)
);
}
);
};
layerId = "79570A4D-82CC-4E5E-902B-26A7181B4C65";
shapes = (
{
ref = E;
},
{
pos = (339,374);
ref = dotaccentcomb;
}
);
userData = {
com.typemytype.robofont.layerData = {
};
org.robofab.postScriptHintData = {
};
};
width = 1376;
}
);
unicode = 278;
},
{
glyphname = Egrave;
lastChange = "2023-03-23 12:10:54 +0000";
layers = (
{
background = {
anchors = (
{
name = bot;
pos = (572,0);
},
{
name = top;
pos = (662,1455);
}
);
shapes = (
{
closed = 1;
nodes = (
(1069,0,l),
(1077,69,l),
(314,69,l),
(314,710,l),
(991,710,l),
(991,780,l),
(314,780,l),
(314,1384,l),
(1075,1384,l),
(1077,1455,l),
(222,1455,l),
(222,0,l)
);
},
{
closed = 1;
nodes = (
(674,1633,l),
(460,1984,l),
(339,1984,l),
(620,1633,l)
);
}
);
};
layerId = "45045840-C2F8-4391-8868-007C921F4A2B";
shapes = (
{
ref = E;
},
{
pos = (235,375);
ref = gravecomb;
}
);
userData = {
com.typemytype.robofont.layerData = {
};
org.robofab.postScriptHintData = {
};
};
width = 1158;
},
{
background = {
anchors = (
{
name = bot;
pos = (709,0);
},
{
name = top;
pos = (738,1456);
}
);
shapes = (
{
closed = 1;
nodes = (
(1166,0,l),
(1178,148,l),
(397,148,l),
(397,680,l),
(1097,680,l),
(1097,827,l),
(397,827,l),
(397,1310,l),
(1155,1310,l),
(1162,1456,l),
(203,1456,l),
(203,0,l)
);
},
{
closed = 1;
nodes = (
(788,1599,l),
(593,1976,l),
(361,1976,l),
(669,1599,l)
);
}
);
};
layerId = "FE517A28-BD9F-4180-B9A0-41F76CAB3C17";
shapes = (
{
ref = E;
},
{
pos = (208,390);
ref = gravecomb;
}
);
userData = {
com.typemytype.robofont.layerData = {
};
org.robofab.postScriptHintData = {
};
};
width = 1309;
},
{
background = {
anchors = (
{
name = bot;
pos = (654,0);
},
{
name = top;
pos = (762,1456);
}
);
shapes = (
{
closed = 1;
nodes = (
(1248,0,l),
(1250,293,l),
(597,293,l),
(597,601,l),
(1199,601,l),
(1199,885,l),
(597,885,l),
(597,1173,l),
(1206,1173,l),
(1229,1456,l),
(162,1456,l),
(162,0,l)
);
},
{
closed = 1;
nodes = (
(828,1578,l),
(661,1994,l),
(257,1994,l),
(607,1578,l)
);
}
);
};
layerId = "79570A4D-82CC-4E5E-902B-26A7181B4C65";
shapes = (
{
ref = E;
},
{
pos = (158,371);
ref = gravecomb;
}
);
userData = {
com.typemytype.robofont.layerData = {
};
org.robofab.postScriptHintData = {
};
};
width = 1376;
}
);
unicode = 200;
},
{
glyphname = Einvertedbreve;
lastChange = "2023-03-23 12:10:54 +0000";
layers = (
{
background = {
anchors = (
{
name = bot;
pos = (572,0);
},
{
name = top;
pos = (662,1455);
}
);
shapes = (
{
closed = 1;
nodes = (
(1069,0,l),
(1077,69,l),
(314,69,l),
(314,710,l),
(991,710,l),
(991,780,l),
(314,780,l),
(314,1384,l),
(1075,1384,l),
(1077,1455,l),
(222,1455,l),
(222,0,l)
);
},
{
closed = 1;
nodes = (
(513,1652,l),
(513,1772,o),
(584,1816,o),
(655,1816,cs),
(728,1816,o),
(807,1772,o),
(807,1652,c),
(859,1652,l),
(859,1812,o),
(758,1869,o),
(655,1869,cs),
(555,1869,o),
(458,1813,o),
(458,1652,c)
);
}
);
};
layerId = "45045840-C2F8-4391-8868-007C921F4A2B";
shapes = (
{
ref = E;
},
{
pos = (273,373);
ref = breveinvertedcomb;
}
);
userData = {
com.typemytype.robofont.layerData = {
};
org.robofab.postScriptHintData = {
};
};
width = 1158;
},
{
background = {
anchors = (
{
name = bot;
pos = (709,0);
},
{
name = top;
pos = (738,1456);
}
);
shapes = (
{
closed = 1;
nodes = (
(1166,0,l),
(1178,148,l),
(397,148,l),
(397,680,l),
(1097,680,l),
(1097,827,l),
(397,827,l),
(397,1310,l),
(1155,1310,l),
(1162,1456,l),
(203,1456,l),
(203,0,l)
);
},
{
closed = 1;
nodes = (
(607,1678,l),
(607,1768,o),
(671,1809,o),
(734,1809,cs),
(797,1809,o),
(866,1768,o),
(866,1678,c),
(980,1678,l),
(980,1842,o),
(872,1922,o),
(734,1922,cs),
(596,1922,o),
(490,1843,o),
(490,1678,c)
);
}
);
};
layerId = "FE517A28-BD9F-4180-B9A0-41F76CAB3C17";
shapes = (
{
ref = E;
},
{
pos = (278,374);
ref = breveinvertedcomb;
}
);
userData = {
com.typemytype.robofont.layerData = {
};
org.robofab.postScriptHintData = {
};
};
width = 1309;
},
{
background = {
anchors = (
{
name = bot;
pos = (654,0);
},
{
name = top;
pos = (762,1456);
}
);
shapes = (
{
closed = 1;
nodes = (
(1248,0,l),
(1250,293,l),
(597,293,l),
(597,601,l),
(1199,601,l),
(1199,885,l),
(597,885,l),
(597,1173,l),
(1206,1173,l),
(1229,1456,l),
(162,1456,l),
(162,0,l)
);
},
{
closed = 1;
nodes = (
(659,1702,l),
(659,1748,o),
(695,1781,o),
(761,1781,cs),
(826,1781,o),
(862,1748,o),
(862,1702,c),
(1073,1702,l),
(1073,1873,o),
(955,1985,o),
(761,1985,cs),
(565,1985,o),
(445,1873,o),
(445,1702,c)
);
}
);
};
layerId = "79570A4D-82CC-4E5E-902B-26A7181B4C65";
shapes = (
{
ref = E;
},
{
pos = (231,374);
ref = breveinvertedcomb;
}
);
userData = {
com.typemytype.robofont.layerData = {
};
org.robofab.postScriptHintData = {
};
};
width = 1376;
}
);
unicode = 518;
},
{
glyphname = Emacron;
lastChange = "2023-03-23 12:10:54 +0000";
layers = (
{
background = {
anchors = (
{
name = bot;
pos = (572,0);
},
{
name = top;
pos = (662,1455);
}
);
shapes = (
{
closed = 1;
nodes = (
(1069,0,l),
(1077,69,l),
(314,69,l),
(314,710,l),
(991,710,l),
(991,780,l),
(314,780,l),
(314,1384,l),
(1075,1384,l),
(1077,1455,l),
(222,1455,l),
(222,0,l)
);
},
{
closed = 1;
nodes = (
(874,1754,l),
(874,1808,l),
(401,1808,l),
(401,1754,l)
);
}
);
};
layerId = "45045840-C2F8-4391-8868-007C921F4A2B";
shapes = (
{
ref = E;
},
{
pos = (68,373);
ref = macroncomb;
}
);
userData = {
com.typemytype.robofont.layerData = {
};
org.robofab.postScriptHintData = {
};
};
width = 1158;
},
{
background = {
anchors = (
{
name = bot;
pos = (709,0);
},
{
name = top;
pos = (738,1456);
}
);
shapes = (
{
closed = 1;
nodes = (
(1166,0,l),
(1178,148,l),
(397,148,l),
(397,680,l),
(1097,680,l),
(1097,827,l),
(397,827,l),
(397,1310,l),
(1155,1310,l),
(1162,1456,l),
(203,1456,l),
(203,0,l)
);
},
{
closed = 1;
nodes = (
(1016,1717,l),
(1016,1817,l),
(432,1817,l),
(432,1717,l)
);
}
);
};
layerId = "FE517A28-BD9F-4180-B9A0-41F76CAB3C17";
shapes = (
{
ref = E;
},
{
pos = (128,374);
ref = macroncomb;
}
);
userData = {
com.typemytype.robofont.layerData = {
};
org.robofab.postScriptHintData = {
};
};
width = 1309;
},
{
background = {
anchors = (
{
name = bot;
pos = (654,0);
},
{
name = top;
pos = (762,1456);
}
);
shapes = (
{
closed = 1;
nodes = (
(1248,0,l),
(1250,293,l),
(597,293,l),
(597,601,l),
(1199,601,l),
(1199,885,l),
(597,885,l),
(597,1173,l),
(1206,1173,l),
(1229,1456,l),
(162,1456,l),
(162,0,l)
);
},
{
closed = 1;
nodes = (
(1141,1618,l),
(1141,1787,l),
(387,1787,l),
(387,1618,l)
);
}
);
};
layerId = "79570A4D-82CC-4E5E-902B-26A7181B4C65";
shapes = (
{
ref = E;
},
{
pos = (184,374);
ref = macroncomb;
}
);
userData = {
com.typemytype.robofont.layerData = {
};
org.robofab.postScriptHintData = {
};
};
width = 1376;
}
);
unicode = 274;
},
{
glyphname = Eogonek;
lastChange = "2023-03-23 12:10:54 +0000";
layers = (
{
background = {
anchors = (
{
name = bot;
pos = (572,0);
},
{
name = top;
pos = (662,1455);
}
);
shapes = (
{
closed = 1;
nodes = (
(1069,0,l),
(1077,69,l),
(314,69,l),
(314,710,l),
(991,710,l),
(991,780,l),
(314,780,l),
(314,1384,l),
(1075,1384,l),
(1077,1455,l),
(222,1455,l),
(222,0,l)
);
},
{
closed = 1;
nodes = (
(754,-388,o),
(795,-379,o),
(825,-364,c),
(825,-364,o),
(826,-331,o),
(826,-318,cs),
(826,-313,l),
(800,-325,o),
(768,-332,o),
(739,-332,cs),
(685,-332,o),
(639,-305,o),
(639,-236,cs),
(639,-147,o),
(722,-58,o),
(809,0,c),
(750,0,l),
(626,-71,o),
(559,-176,o),
(559,-262,cs),
(559,-353,o),
(633,-388,o),
(713,-388,cs)
);
}
);
};
layerId = "45045840-C2F8-4391-8868-007C921F4A2B";
shapes = (
{
ref = E;
},
{
pos = (590,9);
ref = ogonekcomb;
}
);
userData = {
com.typemytype.robofont.layerData = {
};
org.robofab.postScriptHintData = {
};
};
width = 1158;
},
{
background = {
anchors = (
{
name = bot;
pos = (709,0);
},
{
name = top;
pos = (738,1456);
}
);
shapes = (
{
closed = 1;
nodes = (
(1166,0,l),
(1178,148,l),
(397,148,l),
(397,680,l),
(1097,680,l),
(1097,827,l),
(397,827,l),
(397,1310,l),
(1155,1310,l),
(1162,1456,l),
(203,1456,l),
(203,0,l)
);
},
{
closed = 1;
nodes = (
(893,-423,o),
(956,-408,o),
(991,-392,c),
(988,-283,l),
(970,-291,o),
(921,-308,o),
(878,-308,cs),
(833,-308,o),
(796,-284,o),
(796,-228,cs),
(796,-152,o),
(878,-41,o),
(939,4,c),
(855,4,l),
(754,-38,o),
(651,-153,o),
(651,-269,cs),
(651,-364,o),
(718,-423,o),
(842,-423,cs)
);
}
);
};
layerId = "FE517A28-BD9F-4180-B9A0-41F76CAB3C17";
shapes = (
{
ref = E;
},
{
pos = (587,6);
ref = ogonekcomb;
}
);
userData = {
com.typemytype.robofont.layerData = {
};
org.robofab.postScriptHintData = {
};
};
width = 1309;
},
{
background = {
anchors = (
{
name = bot;
pos = (654,0);
},
{
name = top;
pos = (762,1456);
}
);
shapes = (
{
closed = 1;
nodes = (
(1248,0,l),
(1250,293,l),
(597,293,l),
(597,601,l),
(1199,601,l),
(1199,885,l),
(597,885,l),
(597,1173,l),
(1206,1173,l),
(1229,1456,l),
(162,1456,l),
(162,0,l)
);
},
{
closed = 1;
nodes = (
(1050,-456,o),
(1115,-440,o),
(1187,-413,c),
(1177,-235,l),
(1166,-243,o),
(1099,-274,o),
(1035,-274,cs),
(995,-274,o),
(970,-229,o),
(970,-200,cs),
(970,-146,o),
(985,-68,o),
(1074,4,c),
(942,4,l),
(874,-40,o),
(761,-114,o),
(761,-257,cs),
(761,-397,o),
(871,-456,o),
(979,-456,cs)
);
}
);
};
layerId = "79570A4D-82CC-4E5E-902B-26A7181B4C65";
shapes = (
{
ref = E;
},
{
pos = (576,6);
ref = ogonekcomb;
}
);
userData = {
com.typemytype.robofont.layerData = {
};
org.robofab.postScriptHintData = {
};
};
width = 1376;
}
);
unicode = 280;
},
{
glyphname = Etilde;
lastChange = "2023-03-23 12:10:54 +0000";
layers = (
{
background = {
anchors = (
{
name = bot;
pos = (572,0);
},
{
name = top;
pos = (662,1455);
}
);
shapes = (
{
closed = 1;
nodes = (
(1069,0,l),
(1077,69,l),
(314,69,l),
(314,710,l),
(991,710,l),
(991,780,l),
(314,780,l),
(314,1384,l),
(1075,1384,l),
(1077,1455,l),
(222,1455,l),
(222,0,l)
);
},
{
closed = 1;
nodes = (
(405,1701,l),
(408,1770,o),
(433,1801,o),
(469,1801,cs),
(547,1801,o),
(682,1701,o),
(782,1701,cs),
(822,1701,o),
(893,1707,o),
(893,1864,c),
(836,1864,l),
(831,1796,o),
(810,1773,o),
(775,1773,cs),
(707,1773,o),
(590,1865,o),
(483,1865,cs),
(429,1865,o),
(354,1854,o),
(354,1701,c)
);
}
);
};
layerId = "45045840-C2F8-4391-8868-007C921F4A2B";
shapes = (
{
ref = E;
},
{
pos = (189,373);
ref = tildecomb;
}
);
userData = {
com.typemytype.robofont.layerData = {
};
org.robofab.postScriptHintData = {
};
};
width = 1158;
},
{
background = {
anchors = (
{
name = bot;
pos = (709,0);
},
{
name = top;
pos = (738,1456);
}
);
shapes = (
{
closed = 1;
nodes = (
(1166,0,l),
(1178,148,l),
(397,148,l),
(397,680,l),
(1097,680,l),
(1097,827,l),
(397,827,l),
(397,1310,l),
(1155,1310,l),
(1162,1456,l),
(203,1456,l),
(203,0,l)
);
},
{
closed = 1;
nodes = (
(510,1684,l),
(519,1755,o),
(543,1783,o),
(578,1783,cs),
(652,1783,o),
(770,1684,o),
(875,1684,cs),
(968,1684,o),
(1027,1760,o),
(1027,1897,c),
(931,1897,l),
(922,1832,o),
(901,1810,o),
(870,1810,cs),
(808,1810,o),
(705,1898,o),
(584,1898,cs),
(479,1898,o),
(417,1822,o),
(417,1684,c)
);
}
);
};
layerId = "FE517A28-BD9F-4180-B9A0-41F76CAB3C17";
shapes = (
{
ref = E;
},
{
pos = (207,374);
ref = tildecomb;
}
);
userData = {
com.typemytype.robofont.layerData = {
};
org.robofab.postScriptHintData = {
};
};
width = 1309;
},
{
background = {
anchors = (
{
name = bot;
pos = (654,0);
},
{
name = top;
pos = (762,1456);
}
);
shapes = (
{
closed = 1;
nodes = (
(1248,0,l),
(1250,293,l),
(597,293,l),
(597,601,l),
(1199,601,l),
(1199,885,l),
(597,885,l),
(597,1173,l),
(1206,1173,l),
(1229,1456,l),
(162,1456,l),
(162,0,l)
);
},
{
closed = 1;
nodes = (
(577,1614,l),
(596,1688,o),
(619,1713,o),
(654,1713,cs),
(719,1713,o),
(811,1614,o),
(926,1614,cs),
(1100,1614,o),
(1141,1794,o),
(1141,1901,c),
(985,1901,l),
(968,1840,o),
(949,1821,o),
(923,1821,cs),
(869,1821,o),
(789,1902,o),
(645,1902,cs),
(462,1902,o),
(420,1731,o),
(420,1614,c)
);
}
);
};
layerId = "79570A4D-82CC-4E5E-902B-26A7181B4C65";
shapes = (
{
ref = E;
},
{
pos = (187,374);
ref = tildecomb;
}
);
userData = {
com.typemytype.robofont.layerData = {
};
org.robofab.postScriptHintData = {
};
};
width = 1376;
}
);
unicode = 7868;
},
{
glyphname = F;
kernRight = F;
lastChange = "2023-03-23 12:10:17 +0000";
layers = (
{
anchors = (
{
name = bottom;
pos = (537,0);
},
{
name = top;
pos = (609,1455);
}
);
background = {
anchors = (
{
name = top;
pos = (538,1455);
}
);
shapes = (
{
closed = 1;
nodes = (
(319,0,l),
(319,700,l),
(936,700,l),
(936,765,l),
(319,765,l),
(319,1386,l),
(982,1386,l),
(990,1455,l),
(222,1455,l),
(222,0,l)
);
}
);
};
layerId = "45045840-C2F8-4391-8868-007C921F4A2B";
shapes = (
{
closed = 1;
nodes = (
(329,0,l),
(329,695,l),
(950,695,l),
(950,770,l),
(329,770,l),
(329,1375,l),
(1005,1375,l),
(1014,1455,l),
(219,1455,l),
(219,0,l)
);
}
);
userData = {
com.typemytype.robofont.layerData = {
};
org.pippin.gimp.org.kernagic = {
lstem = 0;
rstem = 705;
};
org.robofab.postScriptHintData = {
};
};
width = 1076;
},
{
anchors = (
{
name = bottom;
pos = (602,0);
},
{
name = top;
pos = (684,1456);
}
);
background = {
anchors = (
{
name = top;
pos = (738,1456);
}
);
shapes = (
{
closed = 1;
nodes = (
(397,0,l),
(397,659,l),
(1048,659,l),
(1048,801,l),
(397,801,l),
(397,1307,l),
(1160,1307,l),
(1170,1456,l),
(203,1456,l),
(203,0,l)
);
}
);
};
layerId = "FE517A28-BD9F-4180-B9A0-41F76CAB3C17";
shapes = (
{
closed = 1;
nodes = (
(397,0,l),
(397,659,l),
(1048,659,l),
(1048,801,l),
(397,801,l),
(397,1307,l),
(1160,1307,l),
(1170,1456,l),
(203,1456,l),
(203,0,l)
);
}
);
userData = {
com.typemytype.robofont.layerData = {
};
org.pippin.gimp.org.kernagic = {
lstem = 0;
rstem = 705;
};
org.robofab.postScriptHintData = {
};
};
width = 1203;
},
{
anchors = (
{
name = bottom;
pos = (635,0);
},
{
name = top;
pos = (685,1456);
}
);
background = {
anchors = (
{
name = top;
pos = (724,1456);
}
);
shapes = (
{
closed = 1;
nodes = (
(598,0,l),
(598,568,l),
(1159,568,l),
(1159,853,l),
(598,853,l),
(598,1159,l),
(1166,1159,l),
(1185,1456,l),
(162,1456,l),
(162,0,l)
);
}
);
};
layerId = "79570A4D-82CC-4E5E-902B-26A7181B4C65";
shapes = (
{
closed = 1;
nodes = (
(598,0,l),
(598,568,l),
(1159,568,l),
(1159,853,l),
(598,853,l),
(598,1159,l),
(1166,1159,l),
(1185,1456,l),
(162,1456,l),
(162,0,l)
);
}
);
userData = {
com.typemytype.robofont.layerData = {
};
org.pippin.gimp.org.kernagic = {
lstem = 0;
rstem = 705;
};
org.robofab.postScriptHintData = {
};
};
width = 1270;
}
);
unicode = 70;
},
{
glyphname = Fdotaccent;
lastChange = "2023-03-23 12:10:54 +0000";
layers = (
{
background = {
anchors = (
{
name = top;
pos = (538,1455);
}
);
shapes = (
{
closed = 1;
nodes = (
(319,0,l),
(319,700,l),
(936,700,l),
(936,765,l),
(319,765,l),
(319,1386,l),
(982,1386,l),
(990,1455,l),
(222,1455,l),
(222,0,l)
);
},
{
closed = 1;
nodes = (
(589,1706,o),
(612,1731,o),
(612,1779,cs),
(612,1826,o),
(589,1851,o),
(539,1851,cs),
(487,1851,o),
(465,1826,o),
(465,1779,cs),
(465,1731,o),
(487,1706,o),
(539,1706,cs)
);
}
);
};
layerId = "45045840-C2F8-4391-8868-007C921F4A2B";
shapes = (
{
ref = F;
},
{
pos = (454,373);
ref = dotaccentcomb;
}
);
userData = {
com.typemytype.robofont.layerData = {
};
org.robofab.postScriptHintData = {
};
};
width = 1076;
},
{
background = {
anchors = (
{
name = top;
pos = (738,1456);
}
);
shapes = (
{
closed = 1;
nodes = (
(397,0,l),
(397,659,l),
(1048,659,l),
(1048,801,l),
(397,801,l),
(397,1307,l),
(1160,1307,l),
(1170,1456,l),
(203,1456,l),
(203,0,l)
);
},
{
closed = 1;
nodes = (
(823,1676,o),
(871,1725,o),
(871,1805,cs),
(871,1882,o),
(823,1930,o),
(739,1930,cs),
(655,1930,o),
(607,1882,o),
(607,1805,cs),
(607,1725,o),
(655,1676,o),
(739,1676,cs)
);
}
);
};
layerId = "FE517A28-BD9F-4180-B9A0-41F76CAB3C17";
shapes = (
{
ref = F;
},
{
pos = (460,374);
ref = dotaccentcomb;
}
);
userData = {
com.typemytype.robofont.layerData = {
};
org.robofab.postScriptHintData = {
};
};
width = 1203;
},
{
background = {
anchors = (
{
name = top;
pos = (724,1456);
}
);
shapes = (
{
closed = 1;
nodes = (
(598,0,l),
(598,568,l),
(1159,568,l),
(1159,853,l),
(598,853,l),
(598,1159,l),
(1166,1159,l),
(1185,1456,l),
(162,1456,l),
(162,0,l)
);
},
{
closed = 1;
nodes = (
(862,1630,o),
(949,1714,o),
(949,1842,cs),
(949,1962,o),
(862,2045,o),
(726,2045,cs),
(590,2045,o),
(503,1962,o),
(503,1842,cs),
(503,1714,o),
(590,1630,o),
(726,1630,cs)
);
}
);
};
layerId = "79570A4D-82CC-4E5E-902B-26A7181B4C65";
shapes = (
{
ref = F;
},
{
pos = (336,374);
ref = dotaccentcomb;
}
);
userData = {
com.typemytype.robofont.layerData = {
};
org.robofab.postScriptHintData = {
};
};
width = 1270;
}
);
unicode = 7710;
},
{
glyphname = G;
kernLeft = C;
lastChange = "2023-03-23 12:10:17 +0000";
layers = (
{
anchors = (
{
name = bottom;
pos = (838,0);
},
{
name = top;
pos = (841,1455);
}
);
background = {
anchors = (
{
name = bot;
pos = (861,0);
},
{
name = top;
pos = (855,1455);
}
);
shapes = (
{
closed = 1;
nodes = (
(1052,-18,o),
(1185,11,o),
(1326,60,c),
(1326,716,l),
(897,716,l),
(885,631,l),
(1233,631,l),
(1233,101,l),
(1152,77,o),
(1006,53,o),
(872,53,cs),
(459,53,o),
(240,320,o),
(240,721,cs),
(240,1165,o),
(531,1400,o),
(866,1400,cs),
(1004,1400,o),
(1141,1361,o),
(1263,1286,c),
(1273,1286,l),
(1302,1353,l),
(1159,1434,o),
(1006,1473,o),
(859,1473,cs),
(466,1473,o),
(147,1188,o),
(147,720,cs),
(147,313,o),
(384,-18,o),
(853,-18,cs)
);
}
);
};
layerId = "45045840-C2F8-4391-8868-007C921F4A2B";
shapes = (
{
closed = 1;
nodes = (
(1046,-18,o),
(1185,11,o),
(1327,62,c),
(1327,723,l),
(889,723,l),
(878,632,l),
(1223,629,l),
(1223,111,l),
(1131,84,o),
(992,64,o),
(870,64,cs),
(463,64,o),
(255,327,o),
(255,723,cs),
(255,1154,o),
(530,1390,o),
(865,1390,cs),
(1007,1390,o),
(1144,1346,o),
(1258,1271,c),
(1269,1271,l),
(1307,1344,l),
(1167,1431,o),
(1011,1473,o),
(858,1473,cs),
(459,1473,o),
(148,1188,o),
(148,722,cs),
(148,310,o),
(383,-18,o),
(849,-18,cs)
);
}
);
userData = {
com.typemytype.robofont.layerData = {
};
org.pippin.gimp.org.kernagic = {
lstem = 0;
rstem = 0;
};
org.robofab.postScriptHintData = {
};
};
width = 1486;
},
{
anchors = (
{
name = bottom;
pos = (799,0);
},
{
name = top;
pos = (816,1456);
}
);
background = {
anchors = (
{
name = bot;
pos = (805,1);
},
{
name = top;
pos = (799,1456);
}
);
shapes = (
{
closed = 1;
nodes = (
(1022,-20,o),
(1184,14,o),
(1332,73,c),
(1332,769,l),
(837,769,l),
(828,640,l),
(1155,618,l),
(1155,175,l),
(1086,155,o),
(987,133,o),
(856,133,cs),
(487,133,o),
(350,366,o),
(350,737,cs),
(350,1089,o),
(522,1323,o),
(854,1323,cs),
(1036,1323,o),
(1160,1246,o),
(1223,1176,c),
(1240,1176,l),
(1336,1282,l),
(1249,1393,o),
(1072,1476,o),
(848,1476,cs),
(409,1476,o),
(152,1188,o),
(152,736,cs),
(152,288,o),
(373,-20,o),
(822,-20,cs)
);
}
);
};
layerId = "FE517A28-BD9F-4180-B9A0-41F76CAB3C17";
shapes = (
{
closed = 1;
nodes = (
(1022,-20,o),
(1184,14,o),
(1332,73,c),
(1332,769,l),
(837,769,l),
(828,640,l),
(1155,618,l),
(1155,175,l),
(1086,155,o),
(987,133,o),
(856,133,cs),
(487,133,o),
(350,366,o),
(350,737,cs),
(350,1089,o),
(522,1323,o),
(854,1323,cs),
(1036,1323,o),
(1160,1246,o),
(1223,1176,c),
(1240,1176,l),
(1336,1282,l),
(1249,1393,o),
(1072,1476,o),
(848,1476,cs),
(409,1476,o),
(152,1188,o),
(152,736,cs),
(152,288,o),
(373,-20,o),
(822,-20,cs)
);
}
);
userData = {
com.typemytype.robofont.layerData = {
};
org.pippin.gimp.org.kernagic = {
lstem = 0;
rstem = 0;
};
org.robofab.postScriptHintData = {
};
};
width = 1478;
},
{
anchors = (
{
name = bottom;
pos = (815,0);
},
{
name = top;
pos = (855,1456);
}
);
background = {
anchors = (
{
name = bot;
pos = (746,-1);
},
{
name = top;
pos = (848,1456);
}
);
shapes = (
{
closed = 1;
nodes = (
(1106,-20,o),
(1350,36,o),
(1481,87,c),
(1481,805,l),
(839,805,l),
(830,566,l),
(1128,546,l),
(1128,305,l),
(1074,283,o),
(1002,268,o),
(915,268,cs),
(762,268,o),
(573,326,o),
(573,724,cs),
(573,1067,o),
(676,1185,o),
(884,1185,cs),
(1051,1185,o),
(1114,1069,o),
(1160,948,c),
(1186,948,l),
(1486,1076,l),
(1409,1307,o),
(1223,1478,o),
(841,1478,cs),
(391,1478,o),
(105,1211,o),
(105,724,cs),
(105,228,o),
(401,-20,o),
(846,-20,cs)
);
}
);
};
layerId = "79570A4D-82CC-4E5E-902B-26A7181B4C65";
shapes = (
{
closed = 1;
nodes = (
(1106,-20,o),
(1350,36,o),
(1481,87,c),
(1481,805,l),
(839,805,l),
(830,566,l),
(1128,546,l),
(1128,305,l),
(1074,283,o),
(1002,268,o),
(915,268,cs),
(762,268,o),
(573,326,o),
(573,724,cs),
(573,1067,o),
(676,1185,o),
(884,1185,cs),
(1051,1185,o),
(1114,1069,o),
(1160,948,c),
(1186,948,l),
(1486,1076,l),
(1409,1307,o),
(1223,1478,o),
(841,1478,cs),
(391,1478,o),
(105,1211,o),
(105,724,cs),
(105,228,o),
(401,-20,o),
(846,-20,cs)
);
}
);
userData = {
com.typemytype.robofont.layerData = {
};
org.pippin.gimp.org.kernagic = {
lstem = 0;
rstem = 0;
};
org.robofab.postScriptHintData = {
};
};
width = 1629;
}
);
unicode = 71;
},
{
glyphname = Gacute;
lastChange = "2023-03-23 12:10:54 +0000";
layers = (
{
background = {
anchors = (
{
name = bot;
pos = (861,0);
},
{
name = top;
pos = (855,1455);
}
);
shapes = (
{
closed = 1;
nodes = (
(1052,-18,o),
(1185,11,o),
(1326,60,c),
(1326,716,l),
(897,716,l),
(885,631,l),
(1233,631,l),
(1233,101,l),
(1152,77,o),
(1006,53,o),
(872,53,cs),
(459,53,o),
(240,320,o),
(240,721,cs),
(240,1165,o),
(531,1400,o),
(866,1400,cs),
(1004,1400,o),
(1141,1361,o),
(1263,1286,c),
(1273,1286,l),
(1302,1353,l),
(1159,1434,o),
(1006,1473,o),
(859,1473,cs),
(466,1473,o),
(147,1188,o),
(147,720,cs),
(147,313,o),
(384,-18,o),
(853,-18,cs)
);
},
{
closed = 1;
nodes = (
(880,1633,l),
(1145,1984,l),
(1040,1984,l),
(826,1633,l)
);
}
);
};
layerId = "45045840-C2F8-4391-8868-007C921F4A2B";
shapes = (
{
ref = G;
},
{
pos = (589,373);
ref = acutecomb;
}
);
userData = {
com.typemytype.robofont.layerData = {
};
org.robofab.postScriptHintData = {
};
};
width = 1486;
},
{
background = {
anchors = (
{
name = bot;
pos = (805,1);
},
{
name = top;
pos = (799,1456);
}
);
shapes = (
{
closed = 1;
nodes = (
(1022,-20,o),
(1184,14,o),
(1332,73,c),
(1332,769,l),
(837,769,l),
(828,640,l),
(1155,618,l),
(1155,175,l),
(1086,155,o),
(987,133,o),
(856,133,cs),
(487,133,o),
(350,366,o),
(350,737,cs),
(350,1089,o),
(522,1323,o),
(854,1323,cs),
(1036,1323,o),
(1160,1246,o),
(1223,1176,c),
(1240,1176,l),
(1336,1282,l),
(1249,1393,o),
(1072,1476,o),
(848,1476,cs),
(409,1476,o),
(152,1188,o),
(152,736,cs),
(152,288,o),
(373,-20,o),
(822,-20,cs)
);
},
{
closed = 1;
nodes = (
(855,1583,l),
(1154,1960,l),
(932,1960,l),
(736,1583,l)
);
}
);
};
layerId = "FE517A28-BD9F-4180-B9A0-41F76CAB3C17";
shapes = (
{
ref = G;
},
{
pos = (458,374);
ref = acutecomb;
}
);
userData = {
com.typemytype.robofont.layerData = {
};
org.robofab.postScriptHintData = {
};
};
width = 1478;
},
{
background = {
anchors = (
{
name = bot;
pos = (746,-1);
},
{
name = top;
pos = (848,1456);
}
);
shapes = (
{
closed = 1;
nodes = (
(1106,-20,o),
(1350,36,o),
(1481,87,c),
(1481,805,l),
(839,805,l),
(830,566,l),
(1128,546,l),
(1128,305,l),
(1074,283,o),
(1002,268,o),
(915,268,cs),
(762,268,o),
(573,326,o),
(573,724,cs),
(573,1067,o),
(676,1185,o),
(884,1185,cs),
(1051,1185,o),
(1114,1069,o),
(1160,948,c),
(1186,948,l),
(1486,1076,l),
(1409,1307,o),
(1223,1478,o),
(841,1478,cs),
(391,1478,o),
(105,1211,o),
(105,724,cs),
(105,228,o),
(401,-20,o),
(846,-20,cs)
);
},
{
closed = 1;
nodes = (
(954,1581,l),
(1305,1997,l),
(901,1997,l),
(732,1581,l)
);
}
);
};
layerId = "79570A4D-82CC-4E5E-902B-26A7181B4C65";
shapes = (
{
ref = G;
},
{
pos = (316,374);
ref = acutecomb;
}
);
userData = {
com.typemytype.robofont.layerData = {
};
org.robofab.postScriptHintData = {
};
};
width = 1629;
}
);
unicode = 500;
},
{
glyphname = Gbreve;
lastChange = "2023-03-23 12:10:54 +0000";
layers = (
{
background = {
anchors = (
{
name = bot;
pos = (861,0);
},
{
name = top;
pos = (855,1455);
}
);
shapes = (
{
closed = 1;
nodes = (
(1052,-18,o),
(1185,11,o),
(1326,60,c),
(1326,716,l),
(897,716,l),
(885,631,l),
(1233,631,l),
(1233,101,l),
(1152,77,o),
(1006,53,o),
(872,53,cs),
(459,53,o),
(240,320,o),
(240,721,cs),
(240,1165,o),
(531,1400,o),
(866,1400,cs),
(1004,1400,o),
(1141,1361,o),
(1263,1286,c),
(1273,1286,l),
(1302,1353,l),
(1159,1434,o),
(1006,1473,o),
(859,1473,cs),
(466,1473,o),
(147,1188,o),
(147,720,cs),
(147,313,o),
(384,-18,o),
(853,-18,cs)
);
},
{
closed = 1;
nodes = (
(951,1652,o),
(1052,1709,o),
(1052,1869,c),
(1000,1869,l),
(1000,1749,o),
(921,1705,o),
(848,1705,cs),
(777,1705,o),
(706,1749,o),
(706,1869,c),
(651,1869,l),
(651,1708,o),
(748,1652,o),
(848,1652,cs)
);
}
);
};
layerId = "45045840-C2F8-4391-8868-007C921F4A2B";
shapes = (
{
ref = G;
},
{
pos = (432,373);
ref = brevecomb;
}
);
userData = {
com.typemytype.robofont.layerData = {
};
org.robofab.postScriptHintData = {
};
};
width = 1486;
},
{
background = {
anchors = (
{
name = bot;
pos = (805,1);
},
{
name = top;
pos = (799,1456);
}
);
shapes = (
{
closed = 1;
nodes = (
(1022,-20,o),
(1184,14,o),
(1332,73,c),
(1332,769,l),
(837,769,l),
(828,640,l),
(1155,618,l),
(1155,175,l),
(1086,155,o),
(987,133,o),
(856,133,cs),
(487,133,o),
(350,366,o),
(350,737,cs),
(350,1089,o),
(522,1323,o),
(854,1323,cs),
(1036,1323,o),
(1160,1246,o),
(1223,1176,c),
(1240,1176,l),
(1336,1282,l),
(1249,1393,o),
(1072,1476,o),
(848,1476,cs),
(409,1476,o),
(152,1188,o),
(152,736,cs),
(152,288,o),
(373,-20,o),
(822,-20,cs)
);
},
{
closed = 1;
nodes = (
(934,1678,o),
(1042,1757,o),
(1042,1922,c),
(927,1922,l),
(927,1831,o),
(859,1791,o),
(795,1791,cs),
(732,1791,o),
(668,1831,o),
(668,1922,c),
(551,1922,l),
(551,1757,o),
(657,1678,o),
(795,1678,cs)
);
}
);
};
layerId = "FE517A28-BD9F-4180-B9A0-41F76CAB3C17";
shapes = (
{
ref = G;
},
{
pos = (391,374);
ref = brevecomb;
}
);
userData = {
com.typemytype.robofont.layerData = {
};
org.robofab.postScriptHintData = {
};
};
width = 1478;
},
{
background = {
anchors = (
{
name = bot;
pos = (746,-1);
},
{
name = top;
pos = (848,1456);
}
);
shapes = (
{
closed = 1;
nodes = (
(1106,-20,o),
(1350,36,o),
(1481,87,c),
(1481,805,l),
(839,805,l),
(830,566,l),
(1128,546,l),
(1128,305,l),
(1074,283,o),
(1002,268,o),
(915,268,cs),
(762,268,o),
(573,326,o),
(573,724,cs),
(573,1067,o),
(676,1185,o),
(884,1185,cs),
(1051,1185,o),
(1114,1069,o),
(1160,948,c),
(1186,948,l),
(1486,1076,l),
(1409,1307,o),
(1223,1478,o),
(841,1478,cs),
(391,1478,o),
(105,1211,o),
(105,724,cs),
(105,228,o),
(401,-20,o),
(846,-20,cs)
);
},
{
closed = 1;
nodes = (
(1043,1702,o),
(1161,1814,o),
(1161,1985,c),
(950,1985,l),
(950,1938,o),
(914,1906,o),
(849,1906,cs),
(783,1906,o),
(747,1938,o),
(747,1985,c),
(533,1985,l),
(533,1814,o),
(653,1702,o),
(849,1702,cs)
);
}
);
};
layerId = "79570A4D-82CC-4E5E-902B-26A7181B4C65";
shapes = (
{
ref = G;
},
{
pos = (403,374);
ref = brevecomb;
}
);
userData = {
com.typemytype.robofont.layerData = {
};
org.robofab.postScriptHintData = {
};
};
width = 1629;
}
);
unicode = 286;
},
{
glyphname = Gcaron;
lastChange = "2023-03-23 12:10:54 +0000";
layers = (
{
background = {
anchors = (
{
name = bot;
pos = (861,0);
},
{
name = top;
pos = (855,1455);
}
);
shapes = (
{
closed = 1;
nodes = (
(1052,-18,o),
(1185,11,o),
(1326,60,c),
(1326,716,l),
(897,716,l),
(885,631,l),
(1233,631,l),
(1233,101,l),
(1152,77,o),
(1006,53,o),
(872,53,cs),
(459,53,o),
(240,320,o),
(240,721,cs),
(240,1165,o),
(531,1400,o),
(866,1400,cs),
(1004,1400,o),
(1141,1361,o),
(1263,1286,c),
(1273,1286,l),
(1302,1353,l),
(1159,1434,o),
(1006,1473,o),
(859,1473,cs),
(466,1473,o),
(147,1188,o),
(147,720,cs),
(147,313,o),
(384,-18,o),
(853,-18,cs)
);
},
{
closed = 1;
nodes = (
(895,1626,l),
(1077,1930,l),
(1017,1930,l),
(845,1683,l),
(673,1930,l),
(611,1930,l),
(795,1626,l)
);
}
);
};
layerId = "45045840-C2F8-4391-8868-007C921F4A2B";
shapes = (
{
ref = G;
},
{
pos = (427,373);
ref = caroncomb;
}
);
userData = {
com.typemytype.robofont.layerData = {
};
org.robofab.postScriptHintData = {
};
};
width = 1486;
},
{
background = {
anchors = (
{
name = bot;
pos = (805,1);
},
{
name = top;
pos = (799,1456);
}
);
shapes = (
{
closed = 1;
nodes = (
(1022,-20,o),
(1184,14,o),
(1332,73,c),
(1332,769,l),
(837,769,l),
(828,640,l),
(1155,618,l),
(1155,175,l),
(1086,155,o),
(987,133,o),
(856,133,cs),
(487,133,o),
(350,366,o),
(350,737,cs),
(350,1089,o),
(522,1323,o),
(854,1323,cs),
(1036,1323,o),
(1160,1246,o),
(1223,1176,c),
(1240,1176,l),
(1336,1282,l),
(1249,1393,o),
(1072,1476,o),
(848,1476,cs),
(409,1476,o),
(152,1188,o),
(152,736,cs),
(152,288,o),
(373,-20,o),
(822,-20,cs)
);
},
{
closed = 1;
nodes = (
(882,1612,l),
(1078,1959,l),
(921,1959,l),
(786,1730,l),
(649,1959,l),
(492,1959,l),
(689,1612,l)
);
}
);
};
layerId = "FE517A28-BD9F-4180-B9A0-41F76CAB3C17";
shapes = (
{
ref = G;
},
{
pos = (386,374);
ref = caroncomb;
}
);
userData = {
com.typemytype.robofont.layerData = {
};
org.robofab.postScriptHintData = {
};
};
width = 1478;
},
{
background = {
anchors = (
{
name = bot;
pos = (746,-1);
},
{
name = top;
pos = (848,1456);
}
);
shapes = (
{
closed = 1;
nodes = (
(1106,-20,o),
(1350,36,o),
(1481,87,c),
(1481,805,l),
(839,805,l),
(830,566,l),
(1128,546,l),
(1128,305,l),
(1074,283,o),
(1002,268,o),
(915,268,cs),
(762,268,o),
(573,326,o),
(573,724,cs),
(573,1067,o),
(676,1185,o),
(884,1185,cs),
(1051,1185,o),
(1114,1069,o),
(1160,948,c),
(1186,948,l),
(1486,1076,l),
(1409,1307,o),
(1223,1478,o),
(841,1478,cs),
(391,1478,o),
(105,1211,o),
(105,724,cs),
(105,228,o),
(401,-20,o),
(846,-20,cs)
);
},
{
closed = 1;
nodes = (
(999,1663,l),
(1217,2074,l),
(911,2074,l),
(831,1872,l),
(750,2074,l),
(444,2074,l),
(661,1663,l)
);
}
);
};
layerId = "79570A4D-82CC-4E5E-902B-26A7181B4C65";
shapes = (
{
ref = G;
},
{
pos = (397,374);
ref = caroncomb;
}
);
userData = {
com.typemytype.robofont.layerData = {
};
org.robofab.postScriptHintData = {
};
};
width = 1629;
}
);
unicode = 486;
},
{
glyphname = Gcircumflex;
lastChange = "2023-03-23 12:10:54 +0000";
layers = (
{
background = {
anchors = (
{
name = bot;
pos = (861,0);
},
{
name = top;
pos = (855,1455);
}
);
shapes = (
{
closed = 1;
nodes = (
(1052,-18,o),
(1185,11,o),
(1326,60,c),
(1326,716,l),
(897,716,l),
(885,631,l),
(1233,631,l),
(1233,101,l),
(1152,77,o),
(1006,53,o),
(872,53,cs),
(459,53,o),
(240,320,o),
(240,721,cs),
(240,1165,o),
(531,1400,o),
(866,1400,cs),
(1004,1400,o),
(1141,1361,o),
(1263,1286,c),
(1273,1286,l),
(1302,1353,l),
(1159,1434,o),
(1006,1473,o),
(859,1473,cs),
(466,1473,o),
(147,1188,o),
(147,720,cs),
(147,313,o),
(384,-18,o),
(853,-18,cs)
);
},
{
closed = 1;
nodes = (
(673,1626,l),
(845,1873,l),
(1017,1626,l),
(1077,1626,l),
(895,1930,l),
(795,1930,l),
(611,1626,l)
);
}
);
};
layerId = "45045840-C2F8-4391-8868-007C921F4A2B";
shapes = (
{
ref = G;
},
{
pos = (427,373);
ref = circumflexcomb;
}
);
userData = {
com.typemytype.robofont.layerData = {
};
org.robofab.postScriptHintData = {
};
};
width = 1486;
},
{
background = {
anchors = (
{
name = bot;
pos = (805,1);
},
{
name = top;
pos = (799,1456);
}
);
shapes = (
{
closed = 1;
nodes = (
(1022,-20,o),
(1184,14,o),
(1332,73,c),
(1332,769,l),
(837,769,l),
(828,640,l),
(1155,618,l),
(1155,175,l),
(1086,155,o),
(987,133,o),
(856,133,cs),
(487,133,o),
(350,366,o),
(350,737,cs),
(350,1089,o),
(522,1323,o),
(854,1323,cs),
(1036,1323,o),
(1160,1246,o),
(1223,1176,c),
(1240,1176,l),
(1336,1282,l),
(1249,1393,o),
(1072,1476,o),
(848,1476,cs),
(409,1476,o),
(152,1188,o),
(152,736,cs),
(152,288,o),
(373,-20,o),
(822,-20,cs)
);
},
{
closed = 1;
nodes = (
(658,1625,l),
(795,1854,l),
(930,1625,l),
(1087,1625,l),
(891,1972,l),
(698,1972,l),
(501,1625,l)
);
}
);
};
layerId = "FE517A28-BD9F-4180-B9A0-41F76CAB3C17";
shapes = (
{
ref = G;
},
{
pos = (387,374);
ref = circumflexcomb;
}
);
userData = {
com.typemytype.robofont.layerData = {
};
org.robofab.postScriptHintData = {
};
};
width = 1478;
},
{
background = {
anchors = (
{
name = bot;
pos = (746,-1);
},
{
name = top;
pos = (848,1456);
}
);
shapes = (
{
closed = 1;
nodes = (
(1106,-20,o),
(1350,36,o),
(1481,87,c),
(1481,805,l),
(839,805,l),
(830,566,l),
(1128,546,l),
(1128,305,l),
(1074,283,o),
(1002,268,o),
(915,268,cs),
(762,268,o),
(573,326,o),
(573,724,cs),
(573,1067,o),
(676,1185,o),
(884,1185,cs),
(1051,1185,o),
(1114,1069,o),
(1160,948,c),
(1186,948,l),
(1486,1076,l),
(1409,1307,o),
(1223,1478,o),
(841,1478,cs),
(391,1478,o),
(105,1211,o),
(105,724,cs),
(105,228,o),
(401,-20,o),
(846,-20,cs)
);
},
{
closed = 1;
nodes = (
(771,1696,l),
(851,1898,l),
(931,1696,l),
(1237,1696,l),
(1020,2107,l),
(682,2107,l),
(465,1696,l)
);
}
);
};
layerId = "79570A4D-82CC-4E5E-902B-26A7181B4C65";
shapes = (
{
ref = G;
},
{
pos = (400,374);
ref = circumflexcomb;
}
);
userData = {
com.typemytype.robofont.layerData = {
};
org.robofab.postScriptHintData = {
};
};
width = 1629;
}
);
unicode = 284;
},
{
glyphname = Gcommaaccent;
lastChange = "2023-03-23 14:26:05 +0000";
layers = (
{
background = {
anchors = (
{
name = bot;
pos = (861,0);
},
{
name = top;
pos = (855,1455);
}
);
shapes = (
{
closed = 1;
nodes = (
(1052,-18,o),
(1185,11,o),
(1326,60,c),
(1326,716,l),
(897,716,l),
(885,631,l),
(1233,631,l),
(1233,101,l),
(1152,77,o),
(1006,53,o),
(872,53,cs),
(459,53,o),
(240,320,o),
(240,721,cs),
(240,1165,o),
(531,1400,o),
(866,1400,cs),
(1004,1400,o),
(1141,1361,o),
(1263,1286,c),
(1273,1286,l),
(1302,1353,l),
(1159,1434,o),
(1006,1473,o),
(859,1473,cs),
(466,1473,o),
(147,1188,o),
(147,720,cs),
(147,313,o),
(384,-18,o),
(853,-18,cs)
);
},
{
closed = 1;
nodes = (
(838,-497,l),
(838,-496,o),
(899,-251,o),
(899,-169,cs),
(899,-163,l),
(813,-163,l),
(813,-287,o),
(798,-496,o),
(798,-497,c)
);
}
);
};
layerId = "45045840-C2F8-4391-8868-007C921F4A2B";
shapes = (
{
ref = G;
},
{
pos = (526,0);
ref = commaaccentcomb;
}
);
userData = {
com.typemytype.robofont.layerData = {
};
org.robofab.postScriptHintData = {
};
};
width = 1486;
},
{
background = {
anchors = (
{
name = bot;
pos = (805,1);
},
{
name = top;
pos = (799,1456);
}
);
shapes = (
{
closed = 1;
nodes = (
(1022,-20,o),
(1184,14,o),
(1332,73,c),
(1332,769,l),
(837,769,l),
(828,640,l),
(1155,618,l),
(1155,175,l),
(1086,155,o),
(987,133,o),
(856,133,cs),
(487,133,o),
(350,366,o),
(350,737,cs),
(350,1089,o),
(522,1323,o),
(854,1323,cs),
(1036,1323,o),
(1160,1246,o),
(1223,1176,c),
(1240,1176,l),
(1336,1282,l),
(1249,1393,o),
(1072,1476,o),
(848,1476,cs),
(409,1476,o),
(152,1188,o),
(152,736,cs),
(152,288,o),
(373,-20,o),
(822,-20,cs)
);
},
{
closed = 1;
nodes = (
(792,-522,l),
(792,-522,o),
(891,-191,o),
(891,-136,cs),
(891,-133,l),
(717,-133,l),
(717,-202,o),
(670,-522,o),
(670,-522,c)
);
}
);
};
layerId = "FE517A28-BD9F-4180-B9A0-41F76CAB3C17";
shapes = (
{
ref = G;
},
{
pos = (474,0);
ref = commaaccentcomb;
}
);
userData = {
com.typemytype.robofont.layerData = {
};
org.robofab.postScriptHintData = {
};
};
width = 1478;
},
{
background = {
anchors = (
{
name = bot;
pos = (746,-1);
},
{
name = top;
pos = (848,1456);
}
);
shapes = (
{
closed = 1;
nodes = (
(1106,-20,o),
(1350,36,o),
(1481,87,c),
(1481,805,l),
(839,805,l),
(830,566,l),
(1128,546,l),
(1128,305,l),
(1074,283,o),
(1002,268,o),
(915,268,cs),
(762,268,o),
(573,326,o),
(573,724,cs),
(573,1067,o),
(676,1185,o),
(884,1185,cs),
(1051,1185,o),
(1114,1069,o),
(1160,948,c),
(1186,948,l),
(1486,1076,l),
(1409,1307,o),
(1223,1478,o),
(841,1478,cs),
(391,1478,o),
(105,1211,o),
(105,724,cs),
(105,228,o),
(401,-20,o),
(846,-20,cs)
);
},
{
closed = 1;
nodes = (
(749,-563,l),
(813,-406,o),
(899,-155,o),
(899,-94,cs),
(899,-92,l),
(595,-92,l),
(563,-249,o),
(531,-406,o),
(499,-563,c)
);
}
);
};
layerId = "79570A4D-82CC-4E5E-902B-26A7181B4C65";
shapes = (
{
ref = G;
},
{
pos = (471,0);
ref = commaaccentcomb;
}
);
userData = {
com.typemytype.robofont.layerData = {
};
org.robofab.postScriptHintData = {
};
};
width = 1629;
}
);
unicode = 290;
},
{
glyphname = Gdotaccent;
lastChange = "2023-03-23 12:10:54 +0000";
layers = (
{
background = {
anchors = (
{
name = bot;
pos = (861,0);
},
{
name = top;
pos = (855,1455);
}
);
shapes = (
{
closed = 1;
nodes = (
(1052,-18,o),
(1185,11,o),
(1326,60,c),
(1326,716,l),
(897,716,l),
(885,631,l),
(1233,631,l),
(1233,101,l),
(1152,77,o),
(1006,53,o),
(872,53,cs),
(459,53,o),
(240,320,o),
(240,721,cs),
(240,1165,o),
(531,1400,o),
(866,1400,cs),
(1004,1400,o),
(1141,1361,o),
(1263,1286,c),
(1273,1286,l),
(1302,1353,l),
(1159,1434,o),
(1006,1473,o),
(859,1473,cs),
(466,1473,o),
(147,1188,o),
(147,720,cs),
(147,313,o),
(384,-18,o),
(853,-18,cs)
);
},
{
closed = 1;
nodes = (
(906,1706,o),
(929,1731,o),
(929,1779,cs),
(929,1826,o),
(906,1851,o),
(856,1851,cs),
(804,1851,o),
(782,1826,o),
(782,1779,cs),
(782,1731,o),
(804,1706,o),
(856,1706,cs)
);
}
);
};
layerId = "45045840-C2F8-4391-8868-007C921F4A2B";
shapes = (
{
ref = G;
},
{
pos = (686,373);
ref = dotaccentcomb;
}
);
userData = {
com.typemytype.robofont.layerData = {
};
org.robofab.postScriptHintData = {
};
};
width = 1486;
},
{
background = {
anchors = (
{
name = bot;
pos = (805,1);
},
{
name = top;
pos = (799,1456);
}
);
shapes = (
{
closed = 1;
nodes = (
(1022,-20,o),
(1184,14,o),
(1332,73,c),
(1332,769,l),
(837,769,l),
(828,640,l),
(1155,618,l),
(1155,175,l),
(1086,155,o),
(987,133,o),
(856,133,cs),
(487,133,o),
(350,366,o),
(350,737,cs),
(350,1089,o),
(522,1323,o),
(854,1323,cs),
(1036,1323,o),
(1160,1246,o),
(1223,1176,c),
(1240,1176,l),
(1336,1282,l),
(1249,1393,o),
(1072,1476,o),
(848,1476,cs),
(409,1476,o),
(152,1188,o),
(152,736,cs),
(152,288,o),
(373,-20,o),
(822,-20,cs)
);
},
{
closed = 1;
nodes = (
(884,1676,o),
(932,1725,o),
(932,1805,cs),
(932,1882,o),
(884,1930,o),
(800,1930,cs),
(716,1930,o),
(668,1882,o),
(668,1805,cs),
(668,1725,o),
(716,1676,o),
(800,1676,cs)
);
}
);
};
layerId = "FE517A28-BD9F-4180-B9A0-41F76CAB3C17";
shapes = (
{
ref = G;
},
{
pos = (592,374);
ref = dotaccentcomb;
}
);
userData = {
com.typemytype.robofont.layerData = {
};
org.robofab.postScriptHintData = {
};
};
width = 1478;
},
{
background = {
anchors = (
{
name = bot;
pos = (746,-1);
},
{
name = top;
pos = (848,1456);
}
);
shapes = (
{
closed = 1;
nodes = (
(1106,-20,o),
(1350,36,o),
(1481,87,c),
(1481,805,l),
(839,805,l),
(830,566,l),
(1128,546,l),
(1128,305,l),
(1074,283,o),
(1002,268,o),
(915,268,cs),
(762,268,o),
(573,326,o),
(573,724,cs),
(573,1067,o),
(676,1185,o),
(884,1185,cs),
(1051,1185,o),
(1114,1069,o),
(1160,948,c),
(1186,948,l),
(1486,1076,l),
(1409,1307,o),
(1223,1478,o),
(841,1478,cs),
(391,1478,o),
(105,1211,o),
(105,724,cs),
(105,228,o),
(401,-20,o),
(846,-20,cs)
);
},
{
closed = 1;
nodes = (
(986,1630,o),
(1073,1714,o),
(1073,1842,cs),
(1073,1962,o),
(986,2045,o),
(850,2045,cs),
(714,2045,o),
(627,1962,o),
(627,1842,cs),
(627,1714,o),
(714,1630,o),
(850,1630,cs)
);
}
);
};
layerId = "79570A4D-82CC-4E5E-902B-26A7181B4C65";
shapes = (
{
ref = G;
},
{
pos = (506,374);
ref = dotaccentcomb;
}
);
userData = {
com.typemytype.robofont.layerData = {
};
org.robofab.postScriptHintData = {
};
};
width = 1629;
}
);
unicode = 288;
},
{
glyphname = H;
lastChange = "2023-03-23 12:10:17 +0000";
layers = (
{
anchors = (
{
name = bottom;
pos = (749,0);
},
{
name = center;
pos = (749,728);
},
{
name = top;
pos = (749,1455);
},
{
name = topleft;
pos = (20,1455);
}
);
background = {
anchors = (
{
name = top;
pos = (747,1455);
}
);
shapes = (
{
closed = 1;
nodes = (
(311,0,l),
(311,717,l),
(1180,717,l),
(1180,0,l),
(1272,0,l),
(1272,1455,l),
(1180,1455,l),
(1180,778,l),
(311,778,l),
(311,1455,l),
(218,1455,l),
(218,0,l)
);
}
);
};
layerId = "45045840-C2F8-4391-8868-007C921F4A2B";
shapes = (
{
closed = 1;
nodes = (
(323,0,l),
(323,711,l),
(1175,711,l),
(1175,0,l),
(1280,0,l),
(1280,1455,l),
(1175,1455,l),
(1175,784,l),
(323,784,l),
(323,1455,l),
(217,1455,l),
(217,0,l)
);
}
);
userData = {
com.typemytype.robofont.layerData = {
};
org.pippin.gimp.org.kernagic = {
lstem = 0;
rstem = 0;
};
org.robofab.postScriptHintData = {
};
};
width = 1497;
},
{
anchors = (
{
name = bottom;
pos = (771,0);
},
{
name = center;
pos = (771,728);
},
{
name = top;
pos = (771,1456);
},
{
name = topleft;
pos = (20,1456);
}
);
background = {
anchors = (
{
name = top;
pos = (784,1456);
}
);
shapes = (
{
closed = 1;
nodes = (
(401,-1,l),
(401,673,l),
(1140,673,l),
(1140,-1,l),
(1335,-1,l),
(1335,1456,l),
(1140,1456,l),
(1140,825,l),
(401,825,l),
(401,1456,l),
(207,1456,l),
(207,-1,l)
);
}
);
};
layerId = "FE517A28-BD9F-4180-B9A0-41F76CAB3C17";
shapes = (
{
closed = 1;
nodes = (
(401,-1,l),
(401,673,l),
(1140,673,l),
(1140,-1,l),
(1335,-1,l),
(1335,1456,l),
(1140,1456,l),
(1140,825,l),
(401,825,l),
(401,1456,l),
(207,1456,l),
(207,-1,l)
);
}
);
userData = {
com.typemytype.robofont.layerData = {
};
org.pippin.gimp.org.kernagic = {
lstem = 0;
rstem = 0;
};
org.robofab.postScriptHintData = {
};
};
width = 1541;
},
{
anchors = (
{
name = bottom;
pos = (805,0);
},
{
name = center;
pos = (805,728);
},
{
name = top;
pos = (805,1456);
},
{
name = topleft;
pos = (20,1456);
}
);
background = {
anchors = (
{
name = top;
pos = (816,1456);
}
);
shapes = (
{
closed = 1;
nodes = (
(597,0,l),
(597,605,l),
(1012,605,l),
(1012,0,l),
(1449,0,l),
(1449,1456,l),
(1012,1456,l),
(1012,885,l),
(597,885,l),
(597,1456,l),
(161,1456,l),
(161,0,l)
);
}
);
};
layerId = "79570A4D-82CC-4E5E-902B-26A7181B4C65";
shapes = (
{
closed = 1;
nodes = (
(597,0,l),
(597,605,l),
(1012,605,l),
(1012,0,l),
(1449,0,l),
(1449,1456,l),
(1012,1456,l),
(1012,885,l),
(597,885,l),
(597,1456,l),
(161,1456,l),
(161,0,l)
);
}
);
userData = {
com.typemytype.robofont.layerData = {
};
org.pippin.gimp.org.kernagic = {
lstem = 0;
rstem = 0;
};
org.robofab.postScriptHintData = {
};
};
width = 1610;
}
);
unicode = 72;
},
{
glyphname = Hbar;
lastChange = "2023-03-23 12:10:17 +0000";
layers = (
{
background = {
anchors = (
{
name = top;
pos = (747,1455);
}
);
shapes = (
{
closed = 1;
nodes = (
(1377,1084,l),
(1377,1143,l),
(105,1143,l),
(105,1084,l)
);
},
{
closed = 1;
nodes = (
(311,0,l),
(311,717,l),
(1180,717,l),
(1180,0,l),
(1272,0,l),
(1272,1455,l),
(1180,1455,l),
(1180,778,l),
(311,778,l),
(311,1455,l),
(218,1455,l),
(218,0,l)
);
}
);
};
layerId = "45045840-C2F8-4391-8868-007C921F4A2B";
shapes = (
{
closed = 1;
nodes = (
(1382,1093,l),
(1382,1161,l),
(99,1161,l),
(99,1093,l)
);
},
{
ref = H;
}
);
userData = {
com.typemytype.robofont.layerData = {
};
org.pippin.gimp.org.kernagic = {
lstem = 0;
rstem = 0;
};
org.robofab.postScriptHintData = {
};
};
width = 1486;
},
{
background = {
anchors = (
{
name = top;
pos = (784,1456);
}
);
shapes = (
{
closed = 1;
nodes = (
(1414,1155,l),
(1414,1280,l),
(63,1280,l),
(63,1155,l)
);
},
{
closed = 1;
nodes = (
(401,-1,l),
(401,673,l),
(1140,673,l),
(1140,-1,l),
(1335,-1,l),
(1335,1456,l),
(1140,1456,l),
(1140,825,l),
(401,825,l),
(401,1456,l),
(207,1456,l),
(207,-1,l)
);
}
);
};
layerId = "FE517A28-BD9F-4180-B9A0-41F76CAB3C17";
shapes = (
{
closed = 1;
nodes = (
(1414,1155,l),
(1414,1280,l),
(63,1280,l),
(63,1155,l)
);
},
{
ref = H;
}
);
userData = {
com.typemytype.robofont.layerData = {
};
org.pippin.gimp.org.kernagic = {
lstem = 0;
rstem = 0;
};
org.robofab.postScriptHintData = {
};
};
width = 1486;
},
{
background = {
anchors = (
{
name = top;
pos = (816,1456);
}
);
shapes = (
{
closed = 1;
nodes = (
(1555,1069,l),
(1555,1292,l),
(63,1292,l),
(63,1069,l)
);
},
{
closed = 1;
nodes = (
(597,0,l),
(597,605,l),
(1012,605,l),
(1012,0,l),
(1449,0,l),
(1449,1456,l),
(1012,1456,l),
(1012,885,l),
(597,885,l),
(597,1456,l),
(161,1456,l),
(161,0,l)
);
}
);
};
layerId = "79570A4D-82CC-4E5E-902B-26A7181B4C65";
shapes = (
{
closed = 1;
nodes = (
(1555,1069,l),
(1555,1292,l),
(63,1292,l),
(63,1069,l)
);
},
{
ref = H;
}
);
userData = {
com.typemytype.robofont.layerData = {
};
org.pippin.gimp.org.kernagic = {
lstem = 0;
rstem = 0;
};
org.robofab.postScriptHintData = {
};
};
width = 1620;
}
);
unicode = 294;
},
{
glyphname = Hcaron;
lastChange = "2023-03-23 12:10:54 +0000";
layers = (
{
background = {
anchors = (
{
name = top;
pos = (747,1455);
}
);
shapes = (
{
closed = 1;
nodes = (
(311,0,l),
(311,717,l),
(1180,717,l),
(1180,0,l),
(1272,0,l),
(1272,1455,l),
(1180,1455,l),
(1180,778,l),
(311,778,l),
(311,1455,l),
(218,1455,l),
(218,0,l)
);
},
{
closed = 1;
nodes = (
(787,1626,l),
(969,1930,l),
(909,1930,l),
(737,1683,l),
(565,1930,l),
(503,1930,l),
(687,1626,l)
);
}
);
};
layerId = "45045840-C2F8-4391-8868-007C921F4A2B";
shapes = (
{
ref = H;
},
{
pos = (335,373);
ref = caroncomb;
}
);
userData = {
com.typemytype.robofont.layerData = {
};
org.robofab.postScriptHintData = {
};
};
width = 1497;
},
{
background = {
anchors = (
{
name = top;
pos = (784,1456);
}
);
shapes = (
{
closed = 1;
nodes = (
(401,-1,l),
(401,673,l),
(1140,673,l),
(1140,-1,l),
(1335,-1,l),
(1335,1456,l),
(1140,1456,l),
(1140,825,l),
(401,825,l),
(401,1456,l),
(207,1456,l),
(207,-1,l)
);
},
{
closed = 1;
nodes = (
(867,1612,l),
(1063,1959,l),
(906,1959,l),
(771,1730,l),
(634,1959,l),
(477,1959,l),
(674,1612,l)
);
}
);
};
layerId = "FE517A28-BD9F-4180-B9A0-41F76CAB3C17";
shapes = (
{
ref = H;
},
{
pos = (341,374);
ref = caroncomb;
}
);
userData = {
com.typemytype.robofont.layerData = {
};
org.robofab.postScriptHintData = {
};
};
width = 1541;
},
{
background = {
anchors = (
{
name = top;
pos = (816,1456);
}
);
shapes = (
{
closed = 1;
nodes = (
(597,0,l),
(597,605,l),
(1012,605,l),
(1012,0,l),
(1449,0,l),
(1449,1456,l),
(1012,1456,l),
(1012,885,l),
(597,885,l),
(597,1456,l),
(161,1456,l),
(161,0,l)
);
},
{
closed = 1;
nodes = (
(967,1663,l),
(1185,2074,l),
(879,2074,l),
(799,1872,l),
(718,2074,l),
(412,2074,l),
(629,1663,l)
);
}
);
};
layerId = "79570A4D-82CC-4E5E-902B-26A7181B4C65";
shapes = (
{
ref = H;
},
{
pos = (347,374);
ref = caroncomb;
}
);
userData = {
com.typemytype.robofont.layerData = {
};
org.robofab.postScriptHintData = {
};
};
width = 1610;
}
);
unicode = 542;
},
{
glyphname = Hcircumflex;
lastChange = "2023-03-23 12:10:54 +0000";
layers = (
{
background = {
anchors = (
{
name = top;
pos = (747,1455);
}
);
shapes = (
{
closed = 1;
nodes = (
(311,0,l),
(311,717,l),
(1180,717,l),
(1180,0,l),
(1272,0,l),
(1272,1455,l),
(1180,1455,l),
(1180,778,l),
(311,778,l),
(311,1455,l),
(218,1455,l),
(218,0,l)
);
},
{
closed = 1;
nodes = (
(565,1626,l),
(737,1873,l),
(909,1626,l),
(969,1626,l),
(787,1930,l),
(687,1930,l),
(503,1626,l)
);
}
);
};
layerId = "45045840-C2F8-4391-8868-007C921F4A2B";
shapes = (
{
ref = H;
},
{
pos = (335,373);
ref = circumflexcomb;
}
);
userData = {
com.typemytype.robofont.layerData = {
};
org.robofab.postScriptHintData = {
};
};
width = 1497;
},
{
background = {
anchors = (
{
name = top;
pos = (784,1456);
}
);
shapes = (
{
closed = 1;
nodes = (
(401,-1,l),
(401,673,l),
(1140,673,l),
(1140,-1,l),
(1335,-1,l),
(1335,1456,l),
(1140,1456,l),
(1140,825,l),
(401,825,l),
(401,1456,l),
(207,1456,l),
(207,-1,l)
);
},
{
closed = 1;
nodes = (
(643,1625,l),
(780,1854,l),
(915,1625,l),
(1072,1625,l),
(876,1972,l),
(683,1972,l),
(486,1625,l)
);
}
);
};
layerId = "FE517A28-BD9F-4180-B9A0-41F76CAB3C17";
shapes = (
{
ref = H;
},
{
pos = (342,374);
ref = circumflexcomb;
}
);
userData = {
com.typemytype.robofont.layerData = {
};
org.robofab.postScriptHintData = {
};
};
width = 1541;
},
{
background = {
anchors = (
{
name = top;
pos = (816,1456);
}
);
shapes = (
{
closed = 1;
nodes = (
(597,0,l),
(597,605,l),
(1012,605,l),
(1012,0,l),
(1449,0,l),
(1449,1456,l),
(1012,1456,l),
(1012,885,l),
(597,885,l),
(597,1456,l),
(161,1456,l),
(161,0,l)
);
},
{
closed = 1;
nodes = (
(739,1696,l),
(819,1898,l),
(899,1696,l),
(1205,1696,l),
(988,2107,l),
(650,2107,l),
(433,1696,l)
);
}
);
};
layerId = "79570A4D-82CC-4E5E-902B-26A7181B4C65";
shapes = (
{
ref = H;
},
{
pos = (350,374);
ref = circumflexcomb;
}
);
userData = {
com.typemytype.robofont.layerData = {
};
org.robofab.postScriptHintData = {
};
};
width = 1610;
}
);
unicode = 292;
},
{
glyphname = I;
lastChange = "2023-03-23 13:52:45 +0000";
layers = (
{
anchors = (
{
name = bottom;
pos = (391,0);
},
{
name = ogonek;
pos = (513,0);
},
{
name = top;
pos = (391,1455);
},
{
name = topleft;
pos = (20,1455);
}
);
background = {
anchors = (
{
name = top;
pos = (375,1455);
}
);
shapes = (
{
closed = 1;
nodes = (
(633,0,l),
(633,58,l),
(423,58,l),
(423,1397,l),
(633,1397,l),
(633,1455,l),
(119,1455,l),
(119,1397,l),
(330,1397,l),
(330,58,l),
(119,58,l),
(119,0,l)
);
}
);
};
layerId = "45045840-C2F8-4391-8868-007C921F4A2B";
shapes = (
{
closed = 1;
nodes = (
(652,0,l),
(652,66,l),
(444,66,l),
(444,1389,l),
(652,1389,l),
(652,1455,l),
(129,1455,l),
(129,1389,l),
(337,1389,l),
(337,66,l),
(129,66,l),
(129,0,l)
);
}
);
userData = {
com.fontlab.hintData = {
hhints = (
{
position = 0;
width = 86;
},
{
position = 1363;
width = 86;
}
);
vhints = (
{
position = 111;
width = 529;
}
);
};
com.typemytype.robofont.layerData = {
};
org.pippin.gimp.org.kernagic = {
lstem = 0;
rstem = 0;
};
org.robofab.postScriptHintData = {
};
};
width = 781;
},
{
anchors = (
{
name = bottom;
pos = (487,0);
},
{
name = ogonek;
pos = (630,0);
},
{
name = top;
pos = (487,1456);
},
{
name = topleft;
pos = (20,1456);
}
);
background = {
anchors = (
{
name = top;
pos = (483,1456);
}
);
shapes = (
{
closed = 1;
nodes = (
(772,-1,l),
(772,118,l),
(580,118,l),
(580,1338,l),
(772,1338,l),
(772,1456,l),
(191,1456,l),
(191,1338,l),
(385,1338,l),
(385,118,l),
(191,118,l),
(191,-1,l)
);
}
);
};
layerId = "FE517A28-BD9F-4180-B9A0-41F76CAB3C17";
shapes = (
{
closed = 1;
nodes = (
(772,-1,l),
(772,118,l),
(580,118,l),
(580,1338,l),
(772,1338,l),
(772,1456,l),
(191,1456,l),
(191,1338,l),
(385,1338,l),
(385,118,l),
(191,118,l),
(191,-1,l)
);
}
);
userData = {
com.fontlab.hintData = {
hhints = (
{
position = 0;
width = 86;
},
{
position = 1363;
width = 86;
}
);
vhints = (
{
position = 111;
width = 529;
}
);
};
com.typemytype.robofont.layerData = {
};
org.pippin.gimp.org.kernagic = {
lstem = 0;
rstem = 0;
};
org.robofab.postScriptHintData = {
};
};
width = 973;
},
{
anchors = (
{
name = bottom;
pos = (538,0);
},
{
name = ogonek;
pos = (817,10);
},
{
name = top;
pos = (538,1456);
},
{
name = topleft;
pos = (20,1456);
}
);
background = {
anchors = (
{
name = top;
pos = (542,1456);
}
);
shapes = (
{
closed = 1;
nodes = (
(979,-7,l),
(979,222,l),
(760,222,l),
(760,1226,l),
(979,1226,l),
(979,1456,l),
(98,1456,l),
(98,1226,l),
(325,1226,l),
(325,222,l),
(98,222,l),
(98,-7,l)
);
}
);
};
layerId = "79570A4D-82CC-4E5E-902B-26A7181B4C65";
shapes = (
{
closed = 1;
nodes = (
(979,-7,l),
(979,222,l),
(760,222,l),
(760,1226,l),
(979,1226,l),
(979,1456,l),
(98,1456,l),
(98,1226,l),
(325,1226,l),
(325,222,l),
(98,222,l),
(98,-7,l)
);
}
);
userData = {
com.fontlab.hintData = {
hhints = (
{
position = 0;
width = 86;
},
{
position = 1363;
width = 86;
}
);
vhints = (
{
position = 111;
width = 529;
}
);
};
com.typemytype.robofont.layerData = {
};
org.pippin.gimp.org.kernagic = {
lstem = 0;
rstem = 0;
};
org.robofab.postScriptHintData = {
};
};
width = 1075;
}
);
unicode = 73;
},
{
glyphname = IJ;
lastChange = "2023-03-23 12:10:17 +0000";
layers = (
{
background = {
anchors = (
{
name = top;
pos = (1157,1455);
}
);
shapes = (
{
closed = 1;
nodes = (
(633,0,l),
(633,58,l),
(423,58,l),
(423,1397,l),
(633,1397,l),
(633,1455,l),
(119,1455,l),
(119,1397,l),
(330,1397,l),
(330,58,l),
(119,58,l),
(119,0,l)
);
},
{
closed = 1;
nodes = (
(911,-329,l),
(1146,-235,o),
(1202,-179,o),
(1202,99,cs),
(1202,1455,l),
(1109,1455,l),
(1109,63,ls),
(1109,-153,o),
(1063,-177,o),
(887,-252,c),
(823,-278,l),
(854,-351,l)
);
}
);
};
layerId = "45045840-C2F8-4391-8868-007C921F4A2B";
shapes = (
{
ref = I;
},
{
pos = (781,0);
ref = J;
}
);
userData = {
com.typemytype.robofont.layerData = {
};
org.pippin.gimp.org.kernagic = {
lstem = 0;
rstem = 0;
};
org.robofab.postScriptHintData = {
};
};
width = 1472;
},
{
background = {
anchors = (
{
name = top;
pos = (1446,1456);
}
);
shapes = (
{
closed = 1;
nodes = (
(772,-1,l),
(772,118,l),
(580,118,l),
(580,1338,l),
(772,1338,l),
(772,1456,l),
(191,1456,l),
(191,1338,l),
(385,1338,l),
(385,118,l),
(191,118,l),
(191,-1,l)
);
},
{
closed = 1;
nodes = (
(1259,-380,l),
(1492,-295,o),
(1538,-243,o),
(1538,29,cs),
(1538,1456,l),
(1343,1456,l),
(1343,30,ls),
(1343,-146,o),
(1337,-171,o),
(1233,-214,cs),
(1110,-266,l),
(1170,-412,l)
);
}
);
};
layerId = "FE517A28-BD9F-4180-B9A0-41F76CAB3C17";
shapes = (
{
ref = I;
},
{
pos = (973,0);
ref = J;
}
);
userData = {
com.typemytype.robofont.layerData = {
};
org.pippin.gimp.org.kernagic = {
lstem = 0;
rstem = 0;
};
org.robofab.postScriptHintData = {
};
};
width = 1770;
},
{
background = {
anchors = (
{
name = top;
pos = (1528,1456);
}
);
shapes = (
{
closed = 1;
nodes = (
(979,-7,l),
(979,222,l),
(760,222,l),
(760,1226,l),
(979,1226,l),
(979,1456,l),
(98,1456,l),
(98,1226,l),
(325,1226,l),
(325,222,l),
(98,222,l),
(98,-7,l)
);
},
{
closed = 1;
nodes = (
(1308,-546,l),
(1705,-366,o),
(1741,-214,o),
(1741,95,cs),
(1741,1456,l),
(1306,1456,l),
(1306,355,ls),
(1306,-61,o),
(1296,-129,o),
(1179,-188,cs),
(963,-296,l),
(1117,-632,l)
);
}
);
};
layerId = "79570A4D-82CC-4E5E-902B-26A7181B4C65";
shapes = (
{
ref = I;
},
{
pos = (1075,0);
ref = J;
}
);
userData = {
com.typemytype.robofont.layerData = {
};
org.pippin.gimp.org.kernagic = {
lstem = 0;
rstem = 0;
};
org.robofab.postScriptHintData = {
};
};
width = 1898;
}
);
unicode = 306;
},
{
glyphname = Iacute;
lastChange = "2023-03-23 12:10:54 +0000";
layers = (
{
background = {
anchors = (
{
name = top;
pos = (375,1455);
}
);
shapes = (
{
closed = 1;
nodes = (
(633,0,l),
(633,58,l),
(423,58,l),
(423,1397,l),
(633,1397,l),
(633,1455,l),
(119,1455,l),
(119,1397,l),
(330,1397,l),
(330,58,l),
(119,58,l),
(119,0,l)
);
},
{
closed = 1;
nodes = (
(400,1633,l),
(665,1984,l),
(560,1984,l),
(346,1633,l)
);
}
);
};
layerId = "45045840-C2F8-4391-8868-007C921F4A2B";
shapes = (
{
ref = I;
},
{
pos = (139,373);
ref = acutecomb;
}
);
userData = {
com.typemytype.robofont.layerData = {
};
org.robofab.postScriptHintData = {
};
};
width = 781;
},
{
background = {
anchors = (
{
name = top;
pos = (483,1456);
}
);
shapes = (
{
closed = 1;
nodes = (
(772,-1,l),
(772,118,l),
(580,118,l),
(580,1338,l),
(772,1338,l),
(772,1456,l),
(191,1456,l),
(191,1338,l),
(385,1338,l),
(385,118,l),
(191,118,l),
(191,-1,l)
);
},
{
closed = 1;
nodes = (
(539,1583,l),
(838,1960,l),
(616,1960,l),
(420,1583,l)
);
}
);
};
layerId = "FE517A28-BD9F-4180-B9A0-41F76CAB3C17";
shapes = (
{
ref = I;
},
{
pos = (129,374);
ref = acutecomb;
}
);
userData = {
com.typemytype.robofont.layerData = {
};
org.robofab.postScriptHintData = {
};
};
width = 973;
},
{
background = {
anchors = (
{
name = top;
pos = (542,1456);
}
);
shapes = (
{
closed = 1;
nodes = (
(979,-7,l),
(979,222,l),
(760,222,l),
(760,1226,l),
(979,1226,l),
(979,1456,l),
(98,1456,l),
(98,1226,l),
(325,1226,l),
(325,222,l),
(98,222,l),
(98,-7,l)
);
},
{
closed = 1;
nodes = (
(648,1581,l),
(999,1997,l),
(595,1997,l),
(426,1581,l)
);
}
);
};
layerId = "79570A4D-82CC-4E5E-902B-26A7181B4C65";
shapes = (
{
ref = I;
},
{
pos = (-1,374);
ref = acutecomb;
}
);
userData = {
com.typemytype.robofont.layerData = {
};
org.robofab.postScriptHintData = {
};
};
width = 1075;
}
);
unicode = 205;
},
{
glyphname = Ibreve;
lastChange = "2023-03-23 12:10:54 +0000";
layers = (
{
background = {
anchors = (
{
name = top;
pos = (375,1455);
}
);
shapes = (
{
closed = 1;
nodes = (
(633,0,l),
(633,58,l),
(423,58,l),
(423,1397,l),
(633,1397,l),
(633,1455,l),
(119,1455,l),
(119,1397,l),
(330,1397,l),
(330,58,l),
(119,58,l),
(119,0,l)
);
},
{
closed = 1;
nodes = (
(471,1652,o),
(572,1709,o),
(572,1869,c),
(520,1869,l),
(520,1749,o),
(441,1705,o),
(368,1705,cs),
(297,1705,o),
(226,1749,o),
(226,1869,c),
(171,1869,l),
(171,1708,o),
(268,1652,o),
(368,1652,cs)
);
}
);
};
layerId = "45045840-C2F8-4391-8868-007C921F4A2B";
shapes = (
{
ref = I;
},
{
pos = (-18,373);
ref = brevecomb;
}
);
userData = {
com.typemytype.robofont.layerData = {
};
org.robofab.postScriptHintData = {
};
};
width = 781;
},
{
background = {
anchors = (
{
name = top;
pos = (483,1456);
}
);
shapes = (
{
closed = 1;
nodes = (
(772,-1,l),
(772,118,l),
(580,118,l),
(580,1338,l),
(772,1338,l),
(772,1456,l),
(191,1456,l),
(191,1338,l),
(385,1338,l),
(385,118,l),
(191,118,l),
(191,-1,l)
);
},
{
closed = 1;
nodes = (
(618,1678,o),
(726,1757,o),
(726,1922,c),
(611,1922,l),
(611,1831,o),
(543,1791,o),
(479,1791,cs),
(416,1791,o),
(352,1831,o),
(352,1922,c),
(235,1922,l),
(235,1757,o),
(341,1678,o),
(479,1678,cs)
);
}
);
};
layerId = "FE517A28-BD9F-4180-B9A0-41F76CAB3C17";
shapes = (
{
ref = I;
},
{
pos = (62,374);
ref = brevecomb;
}
);
userData = {
com.typemytype.robofont.layerData = {
};
org.robofab.postScriptHintData = {
};
};
width = 973;
},
{
background = {
anchors = (
{
name = top;
pos = (542,1456);
}
);
shapes = (
{
closed = 1;
nodes = (
(979,-7,l),
(979,222,l),
(760,222,l),
(760,1226,l),
(979,1226,l),
(979,1456,l),
(98,1456,l),
(98,1226,l),
(325,1226,l),
(325,222,l),
(98,222,l),
(98,-7,l)
);
},
{
closed = 1;
nodes = (
(737,1702,o),
(855,1814,o),
(855,1985,c),
(644,1985,l),
(644,1938,o),
(608,1906,o),
(543,1906,cs),
(477,1906,o),
(441,1938,o),
(441,1985,c),
(227,1985,l),
(227,1814,o),
(347,1702,o),
(543,1702,cs)
);
}
);
};
layerId = "79570A4D-82CC-4E5E-902B-26A7181B4C65";
shapes = (
{
ref = I;
},
{
pos = (86,374);
ref = brevecomb;
}
);
userData = {
com.typemytype.robofont.layerData = {
};
org.robofab.postScriptHintData = {
};
};
width = 1075;
}
);
unicode = 300;
},
{
glyphname = Icaron;
lastChange = "2023-03-23 12:10:54 +0000";
layers = (
{
background = {
anchors = (
{
name = top;
pos = (375,1455);
}
);
shapes = (
{
closed = 1;
nodes = (
(633,0,l),
(633,58,l),
(423,58,l),
(423,1397,l),
(633,1397,l),
(633,1455,l),
(119,1455,l),
(119,1397,l),
(330,1397,l),
(330,58,l),
(119,58,l),
(119,0,l)
);
},
{
closed = 1;
nodes = (
(415,1626,l),
(597,1930,l),
(537,1930,l),
(365,1683,l),
(193,1930,l),
(131,1930,l),
(315,1626,l)
);
}
);
};
layerId = "45045840-C2F8-4391-8868-007C921F4A2B";
shapes = (
{
ref = I;
},
{
pos = (-23,373);
ref = caroncomb;
}
);
userData = {
com.typemytype.robofont.layerData = {
};
org.robofab.postScriptHintData = {
};
};
width = 781;
},
{
background = {
anchors = (
{
name = top;
pos = (483,1456);
}
);
shapes = (
{
closed = 1;
nodes = (
(772,-1,l),
(772,118,l),
(580,118,l),
(580,1338,l),
(772,1338,l),
(772,1456,l),
(191,1456,l),
(191,1338,l),
(385,1338,l),
(385,118,l),
(191,118,l),
(191,-1,l)
);
},
{
closed = 1;
nodes = (
(566,1612,l),
(762,1959,l),
(605,1959,l),
(470,1730,l),
(333,1959,l),
(176,1959,l),
(373,1612,l)
);
}
);
};
layerId = "FE517A28-BD9F-4180-B9A0-41F76CAB3C17";
shapes = (
{
ref = I;
},
{
pos = (57,374);
ref = caroncomb;
}
);
userData = {
com.typemytype.robofont.layerData = {
};
org.robofab.postScriptHintData = {
};
};
width = 973;
},
{
background = {
anchors = (
{
name = top;
pos = (542,1456);
}
);
shapes = (
{
closed = 1;
nodes = (
(979,-7,l),
(979,222,l),
(760,222,l),
(760,1226,l),
(979,1226,l),
(979,1456,l),
(98,1456,l),
(98,1226,l),
(325,1226,l),
(325,222,l),
(98,222,l),
(98,-7,l)
);
},
{
closed = 1;
nodes = (
(693,1663,l),
(911,2074,l),
(605,2074,l),
(525,1872,l),
(444,2074,l),
(138,2074,l),
(355,1663,l)
);
}
);
};
layerId = "79570A4D-82CC-4E5E-902B-26A7181B4C65";
shapes = (
{
ref = I;
},
{
pos = (80,374);
ref = caroncomb;
}
);
userData = {
com.typemytype.robofont.layerData = {
};
org.robofab.postScriptHintData = {
};
};
width = 1075;
}
);
unicode = 463;
},
{
glyphname = Icircumflex;
lastChange = "2023-03-23 12:10:54 +0000";
layers = (
{
background = {
anchors = (
{
name = top;
pos = (375,1455);
}
);
shapes = (
{
closed = 1;
nodes = (
(633,0,l),
(633,58,l),
(423,58,l),
(423,1397,l),
(633,1397,l),
(633,1455,l),
(119,1455,l),
(119,1397,l),
(330,1397,l),
(330,58,l),
(119,58,l),
(119,0,l)
);
},
{
closed = 1;
nodes = (
(193,1626,l),
(365,1873,l),
(537,1626,l),
(597,1626,l),
(415,1930,l),
(315,1930,l),
(131,1626,l)
);
}
);
};
layerId = "45045840-C2F8-4391-8868-007C921F4A2B";
shapes = (
{
ref = I;
},
{
pos = (-23,373);
ref = circumflexcomb;
}
);
userData = {
com.typemytype.robofont.layerData = {
};
org.robofab.postScriptHintData = {
};
};
width = 781;
},
{
background = {
anchors = (
{
name = top;
pos = (483,1456);
}
);
shapes = (
{
closed = 1;
nodes = (
(772,-1,l),
(772,118,l),
(580,118,l),
(580,1338,l),
(772,1338,l),
(772,1456,l),
(191,1456,l),
(191,1338,l),
(385,1338,l),
(385,118,l),
(191,118,l),
(191,-1,l)
);
},
{
closed = 1;
nodes = (
(342,1625,l),
(479,1854,l),
(614,1625,l),
(771,1625,l),
(575,1972,l),
(382,1972,l),
(185,1625,l)
);
}
);
};
layerId = "FE517A28-BD9F-4180-B9A0-41F76CAB3C17";
shapes = (
{
ref = I;
},
{
pos = (58,374);
ref = circumflexcomb;
}
);
userData = {
com.typemytype.robofont.layerData = {
};
org.robofab.postScriptHintData = {
};
};
width = 973;
},
{
background = {
anchors = (
{
name = top;
pos = (542,1456);
}
);
shapes = (
{
closed = 1;
nodes = (
(979,-7,l),
(979,222,l),
(760,222,l),
(760,1226,l),
(979,1226,l),
(979,1456,l),
(98,1456,l),
(98,1226,l),
(325,1226,l),
(325,222,l),
(98,222,l),
(98,-7,l)
);
},
{
closed = 1;
nodes = (
(465,1696,l),
(545,1898,l),
(625,1696,l),
(931,1696,l),
(714,2107,l),
(376,2107,l),
(159,1696,l)
);
}
);
};
layerId = "79570A4D-82CC-4E5E-902B-26A7181B4C65";
shapes = (
{
ref = I;
},
{
pos = (83,374);
ref = circumflexcomb;
}
);
userData = {
com.typemytype.robofont.layerData = {
};
org.robofab.postScriptHintData = {
};
};
width = 1075;
}
);
unicode = 206;
},
{
glyphname = Idblgrave;
lastChange = "2023-03-23 13:09:26 +0000";
layers = (
{
background = {
anchors = (
{
name = top;
pos = (375,1455);
}
);
shapes = (
{
closed = 1;
nodes = (
(633,0,l),
(633,58,l),
(423,58,l),
(423,1397,l),
(633,1397,l),
(633,1455,l),
(119,1455,l),
(119,1397,l),
(330,1397,l),
(330,58,l),
(119,58,l),
(119,0,l)
);
},
{
closed = 1;
nodes = (
(484,1633,l),
(270,1984,l),
(165,1984,l),
(430,1633,l)
);
},
{
closed = 1;
nodes = (
(264,1633,l),
(50,1984,l),
(-55,1984,l),
(210,1633,l)
);
}
);
};
layerId = "45045840-C2F8-4391-8868-007C921F4A2B";
shapes = (
{
ref = I;
},
{
pos = (-119,373);
ref = dblgravecomb;
}
);
userData = {
com.typemytype.robofont.layerData = {
};
org.robofab.postScriptHintData = {
};
};
width = 781;
},
{
background = {
anchors = (
{
name = top;
pos = (483,1456);
}
);
shapes = (
{
closed = 1;
nodes = (
(772,-1,l),
(772,118,l),
(580,118,l),
(580,1338,l),
(772,1338,l),
(772,1456,l),
(191,1456,l),
(191,1338,l),
(385,1338,l),
(385,118,l),
(191,118,l),
(191,-1,l)
);
},
{
closed = 1;
nodes = (
(392,1637,l),
(243,1988,l),
(59,1988,l),
(284,1637,l)
);
},
{
closed = 1;
nodes = (
(671,1637,l),
(539,1988,l),
(372,1988,l),
(559,1637,l)
);
}
);
};
layerId = "FE517A28-BD9F-4180-B9A0-41F76CAB3C17";
shapes = (
{
ref = I;
},
{
pos = (21,374);
ref = dblgravecomb;
}
);
userData = {
com.typemytype.robofont.layerData = {
};
org.robofab.postScriptHintData = {
};
};
width = 973;
},
{
background = {
anchors = (
{
name = top;
pos = (542,1456);
}
);
shapes = (
{
closed = 1;
nodes = (
(979,-7,l),
(979,222,l),
(760,222,l),
(760,1226,l),
(979,1226,l),
(979,1456,l),
(98,1456,l),
(98,1226,l),
(325,1226,l),
(325,222,l),
(98,222,l),
(98,-7,l)
);
},
{
closed = 1;
nodes = (
(443,1633,l),
(299,2054,l),
(-32,2054,l),
(264,1633,l)
);
},
{
closed = 1;
nodes = (
(851,1633,l),
(686,2054,l),
(383,2054,l),
(659,1633,l)
);
}
);
};
layerId = "79570A4D-82CC-4E5E-902B-26A7181B4C65";
shapes = (
{
ref = I;
},
{
pos = (-68,374);
ref = dblgravecomb;
}
);
userData = {
com.typemytype.robofont.layerData = {
};
org.robofab.postScriptHintData = {
};
};
width = 1075;
}
);
unicode = 520;
},
{
glyphname = Idieresis;
lastChange = "2023-03-23 12:10:54 +0000";
layers = (
{
background = {
anchors = (
{
name = top;
pos = (375,1455);
}
);
shapes = (
{
closed = 1;
nodes = (
(633,0,l),
(633,58,l),
(423,58,l),
(423,1397,l),
(633,1397,l),
(633,1455,l),
(119,1455,l),
(119,1397,l),
(330,1397,l),
(330,58,l),
(119,58,l),
(119,0,l)
);
},
{
closed = 1;
nodes = (
(596,1723,o),
(607,1758,o),
(607,1787,cs),
(607,1813,o),
(596,1850,o),
(544,1850,cs),
(488,1850,o),
(480,1813,o),
(480,1787,cs),
(480,1759,o),
(490,1723,o),
(544,1723,cs)
);
},
{
closed = 1;
nodes = (
(233,1723,o),
(243,1759,o),
(243,1787,cs),
(243,1813,o),
(233,1850,o),
(180,1850,cs),
(124,1850,o),
(116,1813,o),
(116,1787,cs),
(116,1759,o),
(127,1723,o),
(180,1723,cs)
);
}
);
};
layerId = "45045840-C2F8-4391-8868-007C921F4A2B";
shapes = (
{
ref = I;
},
{
pos = (-2,373);
ref = dieresiscomb;
}
);
userData = {
com.typemytype.robofont.layerData = {
};
org.robofab.postScriptHintData = {
};
};
width = 781;
},
{
background = {
anchors = (
{
name = top;
pos = (483,1456);
}
);
shapes = (
{
closed = 1;
nodes = (
(772,-1,l),
(772,118,l),
(580,118,l),
(580,1338,l),
(772,1338,l),
(772,1456,l),
(191,1456,l),
(191,1338,l),
(385,1338,l),
(385,118,l),
(191,118,l),
(191,-1,l)
);
},
{
closed = 1;
nodes = (
(765,1664,o),
(798,1712,o),
(798,1773,cs),
(798,1833,o),
(765,1882,o),
(692,1882,cs),
(617,1882,o),
(584,1833,o),
(584,1773,cs),
(584,1712,o),
(618,1664,o),
(692,1664,cs)
);
},
{
closed = 1;
nodes = (
(330,1664,o),
(363,1712,o),
(363,1773,cs),
(363,1833,o),
(330,1882,o),
(257,1882,cs),
(182,1882,o),
(150,1833,o),
(150,1773,cs),
(150,1712,o),
(184,1664,o),
(257,1664,cs)
);
}
);
};
layerId = "FE517A28-BD9F-4180-B9A0-41F76CAB3C17";
shapes = (
{
ref = I;
},
{
pos = (31,374);
ref = dieresiscomb;
}
);
userData = {
com.typemytype.robofont.layerData = {
};
org.robofab.postScriptHintData = {
};
};
width = 973;
},
{
background = {
anchors = (
{
name = top;
pos = (542,1456);
}
);
shapes = (
{
closed = 1;
nodes = (
(979,-7,l),
(979,222,l),
(760,222,l),
(760,1226,l),
(979,1226,l),
(979,1456,l),
(98,1456,l),
(98,1226,l),
(325,1226,l),
(325,222,l),
(98,222,l),
(98,-7,l)
);
},
{
closed = 1;
nodes = (
(918,1577,o),
(985,1642,o),
(985,1751,cs),
(985,1861,o),
(918,1928,o),
(813,1928,cs),
(707,1928,o),
(637,1861,o),
(637,1751,cs),
(637,1642,o),
(707,1577,o),
(813,1577,cs)
);
},
{
closed = 1;
nodes = (
(373,1577,o),
(440,1642,o),
(440,1751,cs),
(440,1861,o),
(373,1928,o),
(269,1928,cs),
(163,1928,o),
(95,1861,o),
(95,1751,cs),
(95,1642,o),
(163,1577,o),
(269,1577,cs)
);
}
);
};
layerId = "79570A4D-82CC-4E5E-902B-26A7181B4C65";
shapes = (
{
ref = I;
},
{
pos = (-30,374);
ref = dieresiscomb;
}
);
userData = {
com.typemytype.robofont.layerData = {
};
org.robofab.postScriptHintData = {
};
};
width = 1075;
}
);
unicode = 207;
},
{
glyphname = Idotaccent;
lastChange = "2023-03-23 12:10:54 +0000";
layers = (
{
background = {
anchors = (
{
name = top;
pos = (375,1455);
}
);
shapes = (
{
closed = 1;
nodes = (
(633,0,l),
(633,58,l),
(423,58,l),
(423,1397,l),
(633,1397,l),
(633,1455,l),
(119,1455,l),
(119,1397,l),
(330,1397,l),
(330,58,l),
(119,58,l),
(119,0,l)
);
},
{
closed = 1;
nodes = (
(426,1706,o),
(449,1731,o),
(449,1779,cs),
(449,1826,o),
(426,1851,o),
(376,1851,cs),
(324,1851,o),
(302,1826,o),
(302,1779,cs),
(302,1731,o),
(324,1706,o),
(376,1706,cs)
);
}
);
};
layerId = "45045840-C2F8-4391-8868-007C921F4A2B";
shapes = (
{
ref = I;
},
{
pos = (236,373);
ref = dotaccentcomb;
}
);
userData = {
com.typemytype.robofont.layerData = {
};
org.robofab.postScriptHintData = {
};
};
width = 781;
},
{
background = {
anchors = (
{
name = top;
pos = (483,1456);
}
);
shapes = (
{
closed = 1;
nodes = (
(772,-1,l),
(772,118,l),
(580,118,l),
(580,1338,l),
(772,1338,l),
(772,1456,l),
(191,1456,l),
(191,1338,l),
(385,1338,l),
(385,118,l),
(191,118,l),
(191,-1,l)
);
},
{
closed = 1;
nodes = (
(568,1676,o),
(616,1725,o),
(616,1805,cs),
(616,1882,o),
(568,1930,o),
(484,1930,cs),
(400,1930,o),
(352,1882,o),
(352,1805,cs),
(352,1725,o),
(400,1676,o),
(484,1676,cs)
);
}
);
};
layerId = "FE517A28-BD9F-4180-B9A0-41F76CAB3C17";
shapes = (
{
ref = I;
},
{
pos = (263,374);
ref = dotaccentcomb;
}
);
userData = {
com.typemytype.robofont.layerData = {
};
org.robofab.postScriptHintData = {
};
};
width = 973;
},
{
background = {
anchors = (
{
name = top;
pos = (542,1456);
}
);
shapes = (
{
closed = 1;
nodes = (
(979,-7,l),
(979,222,l),
(760,222,l),
(760,1226,l),
(979,1226,l),
(979,1456,l),
(98,1456,l),
(98,1226,l),
(325,1226,l),
(325,222,l),
(98,222,l),
(98,-7,l)
);
},
{
closed = 1;
nodes = (
(680,1630,o),
(767,1714,o),
(767,1842,cs),
(767,1962,o),
(680,2045,o),
(544,2045,cs),
(408,2045,o),
(321,1962,o),
(321,1842,cs),
(321,1714,o),
(408,1630,o),
(544,1630,cs)
);
}
);
};
layerId = "79570A4D-82CC-4E5E-902B-26A7181B4C65";
shapes = (
{
ref = I;
},
{
pos = (189,374);
ref = dotaccentcomb;
}
);
userData = {
com.typemytype.robofont.layerData = {
};
org.robofab.postScriptHintData = {
};
};
width = 1075;
}
);
unicode = 304;
},
{
glyphname = Igrave;
lastChange = "2023-03-23 12:10:54 +0000";
layers = (
{
background = {
anchors = (
{
name = top;
pos = (375,1455);
}
);
shapes = (
{
closed = 1;
nodes = (
(633,0,l),
(633,58,l),
(423,58,l),
(423,1397,l),
(633,1397,l),
(633,1455,l),
(119,1455,l),
(119,1397,l),
(330,1397,l),
(330,58,l),
(119,58,l),
(119,0,l)
);
},
{
closed = 1;
nodes = (
(387,1633,l),
(173,1984,l),
(52,1984,l),
(333,1633,l)
);
}
);
};
layerId = "45045840-C2F8-4391-8868-007C921F4A2B";
shapes = (
{
ref = I;
},
{
pos = (-29,375);
ref = gravecomb;
}
);
userData = {
com.typemytype.robofont.layerData = {
};
org.robofab.postScriptHintData = {
};
};
width = 781;
},
{
background = {
anchors = (
{
name = top;
pos = (483,1456);
}
);
shapes = (
{
closed = 1;
nodes = (
(772,-1,l),
(772,118,l),
(580,118,l),
(580,1338,l),
(772,1338,l),
(772,1456,l),
(191,1456,l),
(191,1338,l),
(385,1338,l),
(385,118,l),
(191,118,l),
(191,-1,l)
);
},
{
closed = 1;
nodes = (
(533,1599,l),
(338,1976,l),
(106,1976,l),
(414,1599,l)
);
}
);
};
layerId = "FE517A28-BD9F-4180-B9A0-41F76CAB3C17";
shapes = (
{
ref = I;
},
{
pos = (10,390);
ref = gravecomb;
}
);
userData = {
com.typemytype.robofont.layerData = {
};
org.robofab.postScriptHintData = {
};
};
width = 973;
},
{
background = {
anchors = (
{
name = top;
pos = (542,1456);
}
);
shapes = (
{
closed = 1;
nodes = (
(979,-7,l),
(979,222,l),
(760,222,l),
(760,1226,l),
(979,1226,l),
(979,1456,l),
(98,1456,l),
(98,1226,l),
(325,1226,l),
(325,222,l),
(98,222,l),
(98,-7,l)
);
},
{
closed = 1;
nodes = (
(608,1578,l),
(441,1994,l),
(37,1994,l),
(387,1578,l)
);
}
);
};
layerId = "79570A4D-82CC-4E5E-902B-26A7181B4C65";
shapes = (
{
ref = I;
},
{
pos = (8,371);
ref = gravecomb;
}
);
userData = {
com.typemytype.robofont.layerData = {
};
org.robofab.postScriptHintData = {
};
};
width = 1075;
}
);
unicode = 204;
},
{
glyphname = Iinvertedbreve;
lastChange = "2023-03-23 12:10:54 +0000";
layers = (
{
background = {
anchors = (
{
name = top;
pos = (375,1455);
}
);
shapes = (
{
closed = 1;
nodes = (
(633,0,l),
(633,58,l),
(423,58,l),
(423,1397,l),
(633,1397,l),
(633,1455,l),
(119,1455,l),
(119,1397,l),
(330,1397,l),
(330,58,l),
(119,58,l),
(119,0,l)
);
},
{
closed = 1;
nodes = (
(226,1652,l),
(226,1772,o),
(297,1816,o),
(368,1816,cs),
(441,1816,o),
(520,1772,o),
(520,1652,c),
(572,1652,l),
(572,1812,o),
(471,1869,o),
(368,1869,cs),
(268,1869,o),
(171,1813,o),
(171,1652,c)
);
}
);
};
layerId = "45045840-C2F8-4391-8868-007C921F4A2B";
shapes = (
{
ref = I;
},
{
pos = (9,373);
ref = breveinvertedcomb;
}
);
userData = {
com.typemytype.robofont.layerData = {
};
org.robofab.postScriptHintData = {
};
};
width = 781;
},
{
background = {
anchors = (
{
name = top;
pos = (483,1456);
}
);
shapes = (
{
closed = 1;
nodes = (
(772,-1,l),
(772,118,l),
(580,118,l),
(580,1338,l),
(772,1338,l),
(772,1456,l),
(191,1456,l),
(191,1338,l),
(385,1338,l),
(385,118,l),
(191,118,l),
(191,-1,l)
);
},
{
closed = 1;
nodes = (
(352,1678,l),
(352,1768,o),
(416,1809,o),
(479,1809,cs),
(542,1809,o),
(611,1768,o),
(611,1678,c),
(725,1678,l),
(725,1842,o),
(617,1922,o),
(479,1922,cs),
(341,1922,o),
(235,1843,o),
(235,1678,c)
);
}
);
};
layerId = "FE517A28-BD9F-4180-B9A0-41F76CAB3C17";
shapes = (
{
ref = I;
},
{
pos = (80,374);
ref = breveinvertedcomb;
}
);
userData = {
com.typemytype.robofont.layerData = {
};
org.robofab.postScriptHintData = {
};
};
width = 973;
},
{
background = {
anchors = (
{
name = top;
pos = (542,1456);
}
);
shapes = (
{
closed = 1;
nodes = (
(979,-7,l),
(979,222,l),
(760,222,l),
(760,1226,l),
(979,1226,l),
(979,1456,l),
(98,1456,l),
(98,1226,l),
(325,1226,l),
(325,222,l),
(98,222,l),
(98,-7,l)
);
},
{
closed = 1;
nodes = (
(439,1702,l),
(439,1748,o),
(475,1781,o),
(541,1781,cs),
(606,1781,o),
(642,1748,o),
(642,1702,c),
(853,1702,l),
(853,1873,o),
(735,1985,o),
(541,1985,cs),
(345,1985,o),
(225,1873,o),
(225,1702,c)
);
}
);
};
layerId = "79570A4D-82CC-4E5E-902B-26A7181B4C65";
shapes = (
{
ref = I;
},
{
pos = (81,374);
ref = breveinvertedcomb;
}
);
userData = {
com.typemytype.robofont.layerData = {
};
org.robofab.postScriptHintData = {
};
};
width = 1075;
}
);
unicode = 522;
},
{
glyphname = Imacron;
lastChange = "2023-03-23 12:10:54 +0000";
layers = (
{
background = {
anchors = (
{
name = top;
pos = (375,1455);
}
);
shapes = (
{
closed = 1;
nodes = (
(633,0,l),
(633,58,l),
(423,58,l),
(423,1397,l),
(633,1397,l),
(633,1455,l),
(119,1455,l),
(119,1397,l),
(330,1397,l),
(330,58,l),
(119,58,l),
(119,0,l)
);
},
{
closed = 1;
nodes = (
(587,1754,l),
(587,1808,l),
(114,1808,l),
(114,1754,l)
);
}
);
};
layerId = "45045840-C2F8-4391-8868-007C921F4A2B";
shapes = (
{
ref = I;
},
{
pos = (-196,373);
ref = macroncomb;
}
);
userData = {
com.typemytype.robofont.layerData = {
};
org.robofab.postScriptHintData = {
};
};
width = 781;
},
{
background = {
anchors = (
{
name = top;
pos = (483,1456);
}
);
shapes = (
{
closed = 1;
nodes = (
(772,-1,l),
(772,118,l),
(580,118,l),
(580,1338,l),
(772,1338,l),
(772,1456,l),
(191,1456,l),
(191,1338,l),
(385,1338,l),
(385,118,l),
(191,118,l),
(191,-1,l)
);
},
{
closed = 1;
nodes = (
(761,1717,l),
(761,1817,l),
(177,1817,l),
(177,1717,l)
);
}
);
};
layerId = "FE517A28-BD9F-4180-B9A0-41F76CAB3C17";
shapes = (
{
ref = I;
},
{
pos = (-70,374);
ref = macroncomb;
}
);
userData = {
com.typemytype.robofont.layerData = {
};
org.robofab.postScriptHintData = {
};
};
width = 973;
},
{
background = {
anchors = (
{
name = top;
pos = (542,1456);
}
);
shapes = (
{
closed = 1;
nodes = (
(979,-7,l),
(979,222,l),
(760,222,l),
(760,1226,l),
(979,1226,l),
(979,1456,l),
(98,1456,l),
(98,1226,l),
(325,1226,l),
(325,222,l),
(98,222,l),
(98,-7,l)
);
},
{
closed = 1;
nodes = (
(921,1618,l),
(921,1787,l),
(167,1787,l),
(167,1618,l)
);
}
);
};
layerId = "79570A4D-82CC-4E5E-902B-26A7181B4C65";
shapes = (
{
ref = I;
},
{
pos = (34,374);
ref = macroncomb;
}
);
userData = {
com.typemytype.robofont.layerData = {
};
org.robofab.postScriptHintData = {
};
};
width = 1075;
}
);
unicode = 298;
},
